999
dxfrw 0.5.11
0
SECTION
2
HEADER
9
$ACADVER
1
AC1021
9
$HANDSEED
5
20000
9
$DWGCODEPAGE
3
ANSI_1252
9
$INSBASE
10
0
20
0
30
0
9
$EXTMIN
10
0
20
0
30
0
9
$EXTMAX
10
48.0000
20
0
30
48.0000
9
$LIMMIN
10
0
20
0
9
$LIMMAX
10
420
20
297
9
$ORTHOMODE
70
0
9
$LTSCALE
40
1
9
$TEXTSTYLE
7
STANDARD
9
$CLAYER
8
0
9
$DIMASZ
40
2.5
9
$DIMLFAC
40
1
9
$DIMSCALE
40
1
9
$DIMEXO
40
0.625
9
$DIMEXE
40
1.25
9
$DIMTXT
40
2.5
9
$DIMTSZ
40
0
9
$DIMAUNIT
70
0
9
$DIMADEC
70
0
9
$DIMLUNIT
70
2
9
$DIMSTYLE
2
STANDARD
9
$DIMGAP
40
0.625
9
$DIMTIH
70
0
9
$LUNITS
70
2
9
$LUPREC
70
4
9
$AUNITS
70
0
9
$AUPREC
70
2
9
$SPLINESEGS
70
8
9
$SNAPSTYLE
70
0
9
$PINSBASE
10
0
20
0
30
0
9
$PLIMMIN
10
0
20
0
9
$PLIMMAX
10
210
20
297
9
$INSUNITS
70
4
9
$PSVPSCALE
40
1
0
ENDSEC
0
SECTION
2
CLASSES
0
ENDSEC
0
SECTION
2
TABLES
0
TABLE
2
VPORT
5
8
330
0
100
AcDbSymbolTable
70
1
0
VPORT
5
31
330
2
100
AcDbSymbolTableRecord
100
AcDbViewportTableRecord
2
*ACTIVE
70
0
10
0
20
0
11
1
21
1
12
73.375
22
51.875
13
0
23
0
14
10
24
10
15
10
25
10
16
0
26
0
36
1
17
0
27
0
37
0
40
116.25
41
1.36989247312
42
50
43
0
44
0
50
0
51
0
71
0
72
100
73
1
74
3
75
0
76
1
77
0
78
0
281
0
65
1
110
0
120
0
130
0
111
1
121
0
131
0
112
0
122
1
132
0
79
0
146
0
348
10020
60
7
61
5
292
1
282
1
141
0
142
0
63
250
421
3358443
0
ENDTAB
0
TABLE
2
LTYPE
5
5
330
0
100
AcDbSymbolTable
70
4
0
LTYPE
5
14
330
5
100
AcDbSymbolTableRecord
100
AcDbLinetypeTableRecord
2
ByBlock
70
0
3

72
65
73
0
40
0
0
LTYPE
5
15
330
5
100
AcDbSymbolTableRecord
100
AcDbLinetypeTableRecord
2
ByLayer
70
0
3

72
65
73
0
40
0
0
LTYPE
5
16
330
5
100
AcDbSymbolTableRecord
100
AcDbLinetypeTableRecord
2
Continuous
70
0
3
Solid line
72
65
73
0
40
0
0
LTYPE
5
32
330
5
100
AcDbSymbolTableRecord
100
AcDbLinetypeTableRecord
2
DOT
70
0
3
Dot . . . . . . . . . . . . . . . . . . . . . .
72
65
73
2
40
6.35
49
0
74
0
49
-6.35
74
0
0
LTYPE
5
33
330
5
100
AcDbSymbolTableRecord
100
AcDbLinetypeTableRecord
2
DOT2
70
0
3
Dot (.5x) .....................................
72
65
73
2
40
3.175
49
0
74
0
49
-3.175
74
0
0
LTYPE
5
34
330
5
100
AcDbSymbolTableRecord
100
AcDbLinetypeTableRecord
2
DOTX2
70
0
3
Dot (2x) .  .  .  .  .  .  .  .  .  .  .  .  .
72
65
73
2
40
12.7
49
0
74
0
49
-12.7
74
0
0
LTYPE
5
35
330
5
100
AcDbSymbolTableRecord
100
AcDbLinetypeTableRecord
2
DASHED
70
0
3
Dot . . . . . . . . . . . . . . . . . . . . . .
72
65
73
2
40
19.05
49
12.7
74
0
49
-6.35
74
0
0
LTYPE
5
36
330
5
100
AcDbSymbolTableRecord
100
AcDbLinetypeTableRecord
2
DASHED2
70
0
3
Dashed (.5x) _ _ _ _ _ _ _ _ _ _ _ _ _ _ _ _ _
72
65
73
2
40
9.525
49
6.35
74
0
49
-3.175
74
0
0
LTYPE
5
37
330
5
100
AcDbSymbolTableRecord
100
AcDbLinetypeTableRecord
2
DASHEDX2
70
0
3
Dashed (2x) ____  ____  ____  ____  ____  ___
72
65
73
2
40
38.1
49
25.4
74
0
49
-12.7
74
0
0
LTYPE
5
38
330
5
100
AcDbSymbolTableRecord
100
AcDbLinetypeTableRecord
2
DASHDOT
70
0
3
Dash dot __ . __ . __ . __ . __ . __ . __ . __
72
65
73
4
40
25.4
49
12.7
74
0
49
-6.35
74
0
49
0
74
0
49
-6.35
74
0
0
LTYPE
5
39
330
5
100
AcDbSymbolTableRecord
100
AcDbLinetypeTableRecord
2
DASHDOT2
70
0
3
Dash dot (.5x) _._._._._._._._._._._._._._._.
72
65
73
4
40
12.7
49
6.35
74
0
49
-3.175
74
0
49
0
74
0
49
-3.175
74
0
0
LTYPE
5
3A
330
5
100
AcDbSymbolTableRecord
100
AcDbLinetypeTableRecord
2
DASHDOTX2
70
0
3
Dash dot (2x) ____  .  ____  .  ____  .  ___
72
65
73
4
40
50.8
49
25.4
74
0
49
-12.7
74
0
49
0
74
0
49
-12.7
74
0
0
LTYPE
5
3B
330
5
100
AcDbSymbolTableRecord
100
AcDbLinetypeTableRecord
2
DIVIDE
70
0
3
Divide ____ . . ____ . . ____ . . ____ . . ____
72
65
73
6
40
31.75
49
12.7
74
0
49
-6.35
74
0
49
0
74
0
49
-6.35
74
0
49
0
74
0
49
-6.35
74
0
0
LTYPE
5
3C
330
5
100
AcDbSymbolTableRecord
100
AcDbLinetypeTableRecord
2
DIVIDE2
70
0
3
Divide (.5x) __..__..__..__..__..__..__..__.._
72
65
73
6
40
15.875
49
6.35
74
0
49
-3.175
74
0
49
0
74
0
49
-3.175
74
0
49
0
74
0
49
-3.175
74
0
0
LTYPE
5
3D
330
5
100
AcDbSymbolTableRecord
100
AcDbLinetypeTableRecord
2
DIVIDEX2
70
0
3
Divide (2x) ________  .  .  ________  .  .  _
72
65
73
6
40
63.5
49
25.4
74
0
49
-12.7
74
0
49
0
74
0
49
-12.7
74
0
49
0
74
0
49
-12.7
74
0
0
LTYPE
5
3E
330
5
100
AcDbSymbolTableRecord
100
AcDbLinetypeTableRecord
2
BORDER
70
0
3
Border __ __ . __ __ . __ __ . __ __ . __ __ .
72
65
73
6
40
44.45
49
12.7
74
0
49
-6.35
74
0
49
12.7
74
0
49
-6.35
74
0
49
0
74
0
49
-6.35
74
0
0
LTYPE
5
3F
330
5
100
AcDbSymbolTableRecord
100
AcDbLinetypeTableRecord
2
BORDER2
70
0
3
Border (.5x) __.__.__.__.__.__.__.__.__.__.__.
72
65
73
6
40
22.225
49
6.35
74
0
49
-3.175
74
0
49
6.35
74
0
49
-3.175
74
0
49
0
74
0
49
-3.175
74
0
0
LTYPE
5
40
330
5
100
AcDbSymbolTableRecord
100
AcDbLinetypeTableRecord
2
BORDERX2
70
0
3
Border (2x) ____  ____  .  ____  ____  .  ___
72
65
73
6
40
88.9
49
25.4
74
0
49
-12.7
74
0
49
25.4
74
0
49
-12.7
74
0
49
0
74
0
49
-12.7
74
0
0
LTYPE
5
41
330
5
100
AcDbSymbolTableRecord
100
AcDbLinetypeTableRecord
2
CENTER
70
0
3
Center ____ _ ____ _ ____ _ ____ _ ____ _ ____
72
65
73
4
40
50.8
49
31.75
74
0
49
-6.35
74
0
49
6.35
74
0
49
-6.35
74
0
0
LTYPE
5
42
330
5
100
AcDbSymbolTableRecord
100
AcDbLinetypeTableRecord
2
CENTER2
70
0
3
Center (.5x) ___ _ ___ _ ___ _ ___ _ ___ _ ___
72
65
73
4
40
28.575
49
19.05
74
0
49
-3.175
74
0
49
3.175
74
0
49
-3.175
74
0
0
LTYPE
5
43
330
5
100
AcDbSymbolTableRecord
100
AcDbLinetypeTableRecord
2
CENTERX2
70
0
3
Center (2x) ________  __  ________  __  _____
72
65
73
4
40
101.6
49
63.5
74
0
49
-12.7
74
0
49
12.7
74
0
49
-12.7
74
0
0
ENDTAB
0
TABLE
2
LAYER
5
2
330
0
100
AcDbSymbolTable
70
1
0
LAYER
5
10
330
2
100
AcDbSymbolTableRecord
100
AcDbLayerTableRecord
2
0
70
0
62
7
6
CONTINUOUS
370
0
390
F
0
LAYER
5
101
330
2
100
AcDbSymbolTableRecord
100
AcDbLayerTableRecord
2
outline
70
0
62
7
6
CONTINUOUS
370
15
390
F
0
LAYER
5
102
330
2
100
AcDbSymbolTableRecord
100
AcDbLayerTableRecord
2
bottom_copper
70
0
62
7
6
CONTINUOUS
370
15
390
F
0
LAYER
5
103
330
2
100
AcDbSymbolTableRecord
100
AcDbLayerTableRecord
2
top_copper
70
0
62
7
6
CONTINUOUS
370
15
390
F
0
LAYER
5
104
330
2
100
AcDbSymbolTableRecord
100
AcDbLayerTableRecord
2
bottom_silk
70
0
62
7
6
CONTINUOUS
370
15
390
F
0
LAYER
5
105
330
2
100
AcDbSymbolTableRecord
100
AcDbLayerTableRecord
2
top_silk
70
0
62
7
6
CONTINUOUS
370
15
390
F
0
LAYER
5
106
330
2
100
AcDbSymbolTableRecord
100
AcDbLayerTableRecord
2
drill_plated
70
0
62
7
6
CONTINUOUS
370
15
390
F
0
LAYER
5
107
330
2
100
AcDbSymbolTableRecord
100
AcDbLayerTableRecord
2
drill_unplated
70
0
62
7
6
CONTINUOUS
370
15
390
F
0
ENDTAB
0
TABLE
2
STYLE
5
3
330
0
100
AcDbSymbolTable
70
3
0
STYLE
5
44
330
2
100
AcDbSymbolTableRecord
100
AcDbTextStyleTableRecord
2
Standard
70
0
40
0
41
1
50
0
71
0
42
1
3
txt
4

0
ENDTAB
0
TABLE
2
VIEW
5
6
330
0
100
AcDbSymbolTable
70
0
0
ENDTAB
0
TABLE
2
UCS
5
7
330
0
100
AcDbSymbolTable
70
0
0
ENDTAB
0
TABLE
2
APPID
5
9
330
0
100
AcDbSymbolTable
70
1
0
APPID
5
12
330
9
100
AcDbSymbolTableRecord
100
AcDbRegAppTableRecord
2
ACAD
70
0
0
ENDTAB
0
TABLE
2
DIMSTYLE
5
A
330
0
100
AcDbSymbolTable
70
1
100
AcDbDimStyleTable
71
1
0
DIMSTYLE
105
45
330
A
100
AcDbSymbolTableRecord
100
AcDbDimStyleTableRecord
2
Standard
70
0
40
1
41
2.5
42
0.625
43
0.38
44
1.25
45
0
46
0
47
0
48
0
140
2.5
141
0.09
142
0
143
25.4
144
1
145
0
146
1
147
0.625
148
0
71
0
72
0
73
0
74
1
75
0
76
0
77
0
78
0
79
0
170
0
171
2
172
0
173
0
174
0
175
0
176
0
177
0
178
0
179
0
271
4
272
4
273
2
274
2
275
0
276
0
277
2
278
46
279
0
280
0
281
0
282
0
283
1
284
0
285
0
286
0
288
0
289
3
340
Standard
341

371
-2
372
-2
0
ENDTAB
0
TABLE
2
BLOCK_RECORD
5
1
330
0
100
AcDbSymbolTable
70
2
0
BLOCK_RECORD
5
1F
330
1
100
AcDbSymbolTableRecord
100
AcDbBlockTableRecord
2
*Model_Space
70
0
280
1
281
0
0
BLOCK_RECORD
5
1E
330
1
100
AcDbSymbolTableRecord
100
AcDbBlockTableRecord
2
*Paper_Space
70
0
280
1
281
0
0
ENDTAB
0
ENDSEC
0
SECTION
2
BLOCKS
0
BLOCK
5
20
330
1F
100
AcDbEntity
8
0
100
AcDbBlockBegin
2
*Model_Space
70
0
10
0
20
0
30
0
3
*Model_Space
1

0
ENDBLK
5
21
330
1F
100
AcDbEntity
8
0
100
AcDbBlockEnd
0
BLOCK
5
1C
330
1B
100
AcDbEntity
8
0
100
AcDbBlockBegin
2
*Paper_Space
70
0
10
0
20
0
30
0
3
*Paper_Space
1

0
ENDBLK
5
1D
330
1F
100
AcDbEntity
8
0
100
AcDbBlockEnd
0
ENDSEC
0
SECTION
2
ENTITIES
0
LINE
5
108
100
AcDbEntity
8
bottom_silk
6
ByLayer
62
256
370
25
100
AcDbLine
10
1.7940
20
46.2280
11
1.7940
21
2.2280
0
LINE
5
109
100
AcDbEntity
8
bottom_silk
6
ByLayer
62
256
370
25
100
AcDbLine
10
45.7940
20
46.2280
11
1.7940
21
46.2280
0
LINE
5
110
100
AcDbEntity
8
bottom_silk
6
ByLayer
62
256
370
25
100
AcDbLine
10
45.7940
20
2.2280
11
45.7940
21
46.2280
0
LINE
5
111
100
AcDbEntity
8
bottom_silk
6
ByLayer
62
256
370
25
100
AcDbLine
10
1.7940
20
2.2280
11
45.7940
21
2.2280
0
LINE
5
112
100
AcDbEntity
8
bottom_copper
6
ByLayer
62
256
370
25
100
AcDbLine
10
9.9790
20
4.5060
11
13.0270
21
4.5060
0
LINE
5
113
100
AcDbEntity
8
bottom_copper
6
ByLayer
62
256
370
25
100
AcDbLine
10
13.0270
20
6.2840
11
13.0270
21
4.5060
0
LINE
5
114
100
AcDbEntity
8
bottom_copper
6
ByLayer
62
256
370
25
100
AcDbLine
10
9.9790
20
6.2840
11
13.0270
21
6.2840
0
LINE
5
115
100
AcDbEntity
8
bottom_copper
6
ByLayer
62
256
370
25
100
AcDbLine
10
9.9790
20
6.2840
11
9.9790
21
4.5060
0
LINE
5
116
100
AcDbEntity
8
bottom_copper
6
ByLayer
62
256
370
25
100
AcDbLine
10
11.7570
20
5.0648
11
11.8586
21
4.9632
0
LINE
5
117
100
AcDbEntity
8
bottom_copper
6
ByLayer
62
256
370
25
100
AcDbLine
10
11.8586
20
4.9632
11
12.1634
21
4.9632
0
LINE
5
118
100
AcDbEntity
8
bottom_copper
6
ByLayer
62
256
370
25
100
AcDbLine
10
12.1634
20
4.9632
11
12.2650
21
5.0648
0
LINE
5
119
100
AcDbEntity
8
bottom_copper
6
ByLayer
62
256
370
25
100
AcDbLine
10
12.2650
20
5.0648
11
12.2650
21
5.2680
0
LINE
5
120
100
AcDbEntity
8
bottom_copper
6
ByLayer
62
256
370
25
100
AcDbLine
10
11.7570
20
5.7760
11
12.2650
21
5.2680
0
LINE
5
121
100
AcDbEntity
8
bottom_copper
6
ByLayer
62
256
370
25
100
AcDbLine
10
11.7570
20
5.7760
11
12.2650
21
5.7760
0
CIRCLE
5
122
100
AcDbEntity
8
bottom_copper
6
ByLayer
62
256
370
0
100
AcDbCircle
10
6.5940
20
24.2280
40
1.6256
0
CIRCLE
5
123
100
AcDbEntity
8
bottom_copper
6
ByLayer
62
256
370
0
100
AcDbCircle
10
19.8200
20
24.2800
40
0.5080
0
CIRCLE
5
124
100
AcDbEntity
8
bottom_copper
6
ByLayer
62
256
370
0
100
AcDbCircle
10
15.2940
20
24.2280
40
0.9398
0
CIRCLE
5
125
100
AcDbEntity
8
bottom_copper
6
ByLayer
62
256
370
0
100
AcDbCircle
10
6.5940
20
24.2280
40
1.6256
0
CIRCLE
5
126
100
AcDbEntity
8
bottom_copper
6
ByLayer
62
256
370
0
100
AcDbCircle
10
23.7940
20
24.2280
40
0.5080
0
CIRCLE
5
127
100
AcDbEntity
8
bottom_copper
6
ByLayer
62
256
370
0
100
AcDbCircle
10
5.7940
20
6.2280
40
1.8000
0
CIRCLE
5
128
100
AcDbEntity
8
bottom_copper
6
ByLayer
62
256
370
0
100
AcDbCircle
10
19.8200
20
17.5300
40
1.6510
0
CIRCLE
5
129
100
AcDbEntity
8
bottom_copper
6
ByLayer
62
256
370
0
100
AcDbCircle
10
23.7940
20
7.0280
40
1.9000
0
CIRCLE
5
130
100
AcDbEntity
8
bottom_copper
6
ByLayer
62
256
370
0
100
AcDbCircle
10
7.1801
20
19.7763
40
0.9398
0
CIRCLE
5
131
100
AcDbEntity
8
bottom_copper
6
ByLayer
62
256
370
0
100
AcDbCircle
10
41.7940
20
6.2280
40
1.8000
0
CIRCLE
5
132
100
AcDbEntity
8
bottom_copper
6
ByLayer
62
256
370
0
100
AcDbCircle
10
32.2940
20
24.2280
40
0.9398
0
CIRCLE
5
133
100
AcDbEntity
8
bottom_copper
6
ByLayer
62
256
370
0
100
AcDbCircle
10
40.9940
20
24.2280
40
1.6256
0
CIRCLE
5
134
100
AcDbEntity
8
bottom_copper
6
ByLayer
62
256
370
0
100
AcDbCircle
10
32.3940
20
9.3280
40
1.6256
0
CIRCLE
5
135
100
AcDbEntity
8
bottom_copper
6
ByLayer
62
256
370
0
100
AcDbCircle
10
35.9574
20
12.0615
40
0.9398
0
CIRCLE
5
136
100
AcDbEntity
8
bottom_copper
6
ByLayer
62
256
370
0
100
AcDbCircle
10
29.7940
20
30.2280
40
0.9398
0
CIRCLE
5
137
100
AcDbEntity
8
bottom_copper
6
ByLayer
62
256
370
0
100
AcDbCircle
10
19.8200
20
31.0300
40
1.6510
0
CIRCLE
5
138
100
AcDbEntity
8
bottom_copper
6
ByLayer
62
256
370
0
100
AcDbCircle
10
29.7940
20
18.2280
40
0.9398
0
CIRCLE
5
139
100
AcDbEntity
8
bottom_copper
6
ByLayer
62
256
370
0
100
AcDbCircle
10
26.5700
20
24.2800
40
1.7510
0
CIRCLE
5
140
100
AcDbEntity
8
bottom_copper
6
ByLayer
62
256
370
0
100
AcDbCircle
10
5.7940
20
42.2280
40
1.8000
0
CIRCLE
5
141
100
AcDbEntity
8
bottom_copper
6
ByLayer
62
256
370
0
100
AcDbCircle
10
8.8984
20
32.8280
40
1.9000
0
CIRCLE
5
142
100
AcDbEntity
8
bottom_copper
6
ByLayer
62
256
370
0
100
AcDbCircle
10
41.7940
20
42.2280
40
1.8000
0
CIRCLE
5
143
100
AcDbEntity
8
bottom_copper
6
ByLayer
62
256
370
0
100
AcDbCircle
10
32.3940
20
39.1280
40
1.6256
0
CIRCLE
5
144
100
AcDbEntity
8
bottom_copper
6
ByLayer
62
256
370
0
100
AcDbCircle
10
38.6896
20
32.8280
40
1.9000
0
CIRCLE
5
145
100
AcDbEntity
8
bottom_copper
6
ByLayer
62
256
370
0
100
AcDbCircle
10
40.4079
20
28.6797
40
0.9398
0
CIRCLE
5
146
100
AcDbEntity
8
bottom_copper
6
ByLayer
62
256
370
0
100
AcDbCircle
10
28.2446
20
40.8461
40
0.9398
0
CIRCLE
5
147
100
AcDbEntity
8
bottom_copper
6
ByLayer
62
256
370
0
100
AcDbCircle
10
6.5940
20
24.2280
40
1.1176
0
HATCH
5
148
100
AcDbEntity
8
bottom_copper
6
ByLayer
62
256
370
0
100
AcDbHatch
10
0
20
0
30
0
210
0
220
0
230
1
2
SOLID
70
1
71
0
91
1
92
0
93
1
72
2
10
6.5940
20
24.2280
40
1.1176
50
0
51
360
73
1
97
0
75
0
76
1
98
0
0
CIRCLE
5
149
100
AcDbEntity
8
bottom_copper
6
ByLayer
62
256
370
0
100
AcDbCircle
10
19.8200
20
24.2800
40
0.2540
0
HATCH
5
150
100
AcDbEntity
8
bottom_copper
6
ByLayer
62
256
370
0
100
AcDbHatch
10
0
20
0
30
0
210
0
220
0
230
1
2
SOLID
70
1
71
0
91
1
92
0
93
1
72
2
10
19.8200
20
24.2800
40
0.2540
50
0
51
360
73
1
97
0
75
0
76
1
98
0
0
CIRCLE
5
151
100
AcDbEntity
8
bottom_copper
6
ByLayer
62
256
370
0
100
AcDbCircle
10
15.2940
20
24.2280
40
0.4318
0
HATCH
5
152
100
AcDbEntity
8
bottom_copper
6
ByLayer
62
256
370
0
100
AcDbHatch
10
0
20
0
30
0
210
0
220
0
230
1
2
SOLID
70
1
71
0
91
1
92
0
93
1
72
2
10
15.2940
20
24.2280
40
0.4318
50
0
51
360
73
1
97
0
75
0
76
1
98
0
0
CIRCLE
5
153
100
AcDbEntity
8
bottom_copper
6
ByLayer
62
256
370
0
100
AcDbCircle
10
6.5940
20
24.2280
40
1.1176
0
HATCH
5
154
100
AcDbEntity
8
bottom_copper
6
ByLayer
62
256
370
0
100
AcDbHatch
10
0
20
0
30
0
210
0
220
0
230
1
2
SOLID
70
1
71
0
91
1
92
0
93
1
72
2
10
6.5940
20
24.2280
40
1.1176
50
0
51
360
73
1
97
0
75
0
76
1
98
0
0
CIRCLE
5
155
100
AcDbEntity
8
bottom_copper
6
ByLayer
62
256
370
0
100
AcDbCircle
10
23.7940
20
24.2280
40
0.2540
0
HATCH
5
156
100
AcDbEntity
8
bottom_copper
6
ByLayer
62
256
370
0
100
AcDbHatch
10
0
20
0
30
0
210
0
220
0
230
1
2
SOLID
70
1
71
0
91
1
92
0
93
1
72
2
10
23.7940
20
24.2280
40
0.2540
50
0
51
360
73
1
97
0
75
0
76
1
98
0
0
CIRCLE
5
157
100
AcDbEntity
8
bottom_copper
6
ByLayer
62
256
370
0
100
AcDbCircle
10
5.7940
20
6.2280
40
1.5500
0
HATCH
5
158
100
AcDbEntity
8
bottom_copper
6
ByLayer
62
256
370
0
100
AcDbHatch
10
0
20
0
30
0
210
0
220
0
230
1
2
SOLID
70
1
71
0
91
1
92
0
93
1
72
2
10
5.7940
20
6.2280
40
1.5500
50
0
51
360
73
1
97
0
75
0
76
1
98
0
0
CIRCLE
5
159
100
AcDbEntity
8
bottom_copper
6
ByLayer
62
256
370
0
100
AcDbCircle
10
19.8200
20
17.5300
40
1.3970
0
HATCH
5
160
100
AcDbEntity
8
bottom_copper
6
ByLayer
62
256
370
0
100
AcDbHatch
10
0
20
0
30
0
210
0
220
0
230
1
2
SOLID
70
1
71
0
91
1
92
0
93
1
72
2
10
19.8200
20
17.5300
40
1.3970
50
0
51
360
73
1
97
0
75
0
76
1
98
0
0
CIRCLE
5
161
100
AcDbEntity
8
bottom_copper
6
ByLayer
62
256
370
0
100
AcDbCircle
10
23.7940
20
7.0280
40
1.6000
0
HATCH
5
162
100
AcDbEntity
8
bottom_copper
6
ByLayer
62
256
370
0
100
AcDbHatch
10
0
20
0
30
0
210
0
220
0
230
1
2
SOLID
70
1
71
0
91
1
92
0
93
1
72
2
10
23.7940
20
7.0280
40
1.6000
50
0
51
360
73
1
97
0
75
0
76
1
98
0
0
CIRCLE
5
163
100
AcDbEntity
8
bottom_copper
6
ByLayer
62
256
370
0
100
AcDbCircle
10
7.1801
20
19.7763
40
0.4318
0
HATCH
5
164
100
AcDbEntity
8
bottom_copper
6
ByLayer
62
256
370
0
100
AcDbHatch
10
0
20
0
30
0
210
0
220
0
230
1
2
SOLID
70
1
71
0
91
1
92
0
93
1
72
2
10
7.1801
20
19.7763
40
0.4318
50
0
51
360
73
1
97
0
75
0
76
1
98
0
0
CIRCLE
5
165
100
AcDbEntity
8
bottom_copper
6
ByLayer
62
256
370
0
100
AcDbCircle
10
41.7940
20
6.2280
40
1.5500
0
HATCH
5
166
100
AcDbEntity
8
bottom_copper
6
ByLayer
62
256
370
0
100
AcDbHatch
10
0
20
0
30
0
210
0
220
0
230
1
2
SOLID
70
1
71
0
91
1
92
0
93
1
72
2
10
41.7940
20
6.2280
40
1.5500
50
0
51
360
73
1
97
0
75
0
76
1
98
0
0
CIRCLE
5
167
100
AcDbEntity
8
bottom_copper
6
ByLayer
62
256
370
0
100
AcDbCircle
10
32.2940
20
24.2280
40
0.4318
0
HATCH
5
168
100
AcDbEntity
8
bottom_copper
6
ByLayer
62
256
370
0
100
AcDbHatch
10
0
20
0
30
0
210
0
220
0
230
1
2
SOLID
70
1
71
0
91
1
92
0
93
1
72
2
10
32.2940
20
24.2280
40
0.4318
50
0
51
360
73
1
97
0
75
0
76
1
98
0
0
CIRCLE
5
169
100
AcDbEntity
8
bottom_copper
6
ByLayer
62
256
370
0
100
AcDbCircle
10
40.9940
20
24.2280
40
1.1176
0
HATCH
5
170
100
AcDbEntity
8
bottom_copper
6
ByLayer
62
256
370
0
100
AcDbHatch
10
0
20
0
30
0
210
0
220
0
230
1
2
SOLID
70
1
71
0
91
1
92
0
93
1
72
2
10
40.9940
20
24.2280
40
1.1176
50
0
51
360
73
1
97
0
75
0
76
1
98
0
0
CIRCLE
5
171
100
AcDbEntity
8
bottom_copper
6
ByLayer
62
256
370
0
100
AcDbCircle
10
32.3940
20
9.3280
40
1.1176
0
HATCH
5
172
100
AcDbEntity
8
bottom_copper
6
ByLayer
62
256
370
0
100
AcDbHatch
10
0
20
0
30
0
210
0
220
0
230
1
2
SOLID
70
1
71
0
91
1
92
0
93
1
72
2
10
32.3940
20
9.3280
40
1.1176
50
0
51
360
73
1
97
0
75
0
76
1
98
0
0
CIRCLE
5
173
100
AcDbEntity
8
bottom_copper
6
ByLayer
62
256
370
0
100
AcDbCircle
10
35.9574
20
12.0615
40
0.4318
0
HATCH
5
174
100
AcDbEntity
8
bottom_copper
6
ByLayer
62
256
370
0
100
AcDbHatch
10
0
20
0
30
0
210
0
220
0
230
1
2
SOLID
70
1
71
0
91
1
92
0
93
1
72
2
10
35.9574
20
12.0615
40
0.4318
50
0
51
360
73
1
97
0
75
0
76
1
98
0
0
CIRCLE
5
175
100
AcDbEntity
8
bottom_copper
6
ByLayer
62
256
370
0
100
AcDbCircle
10
29.7940
20
30.2280
40
0.4318
0
HATCH
5
176
100
AcDbEntity
8
bottom_copper
6
ByLayer
62
256
370
0
100
AcDbHatch
10
0
20
0
30
0
210
0
220
0
230
1
2
SOLID
70
1
71
0
91
1
92
0
93
1
72
2
10
29.7940
20
30.2280
40
0.4318
50
0
51
360
73
1
97
0
75
0
76
1
98
0
0
CIRCLE
5
177
100
AcDbEntity
8
bottom_copper
6
ByLayer
62
256
370
0
100
AcDbCircle
10
19.8200
20
31.0300
40
1.3970
0
HATCH
5
178
100
AcDbEntity
8
bottom_copper
6
ByLayer
62
256
370
0
100
AcDbHatch
10
0
20
0
30
0
210
0
220
0
230
1
2
SOLID
70
1
71
0
91
1
92
0
93
1
72
2
10
19.8200
20
31.0300
40
1.3970
50
0
51
360
73
1
97
0
75
0
76
1
98
0
0
CIRCLE
5
179
100
AcDbEntity
8
bottom_copper
6
ByLayer
62
256
370
0
100
AcDbCircle
10
29.7940
20
18.2280
40
0.4318
0
HATCH
5
180
100
AcDbEntity
8
bottom_copper
6
ByLayer
62
256
370
0
100
AcDbHatch
10
0
20
0
30
0
210
0
220
0
230
1
2
SOLID
70
1
71
0
91
1
92
0
93
1
72
2
10
29.7940
20
18.2280
40
0.4318
50
0
51
360
73
1
97
0
75
0
76
1
98
0
0
CIRCLE
5
181
100
AcDbEntity
8
bottom_copper
6
ByLayer
62
256
370
0
100
AcDbCircle
10
26.5700
20
24.2800
40
1.3970
0
HATCH
5
182
100
AcDbEntity
8
bottom_copper
6
ByLayer
62
256
370
0
100
AcDbHatch
10
0
20
0
30
0
210
0
220
0
230
1
2
SOLID
70
1
71
0
91
1
92
0
93
1
72
2
10
26.5700
20
24.2800
40
1.3970
50
0
51
360
73
1
97
0
75
0
76
1
98
0
0
CIRCLE
5
183
100
AcDbEntity
8
bottom_copper
6
ByLayer
62
256
370
0
100
AcDbCircle
10
5.7940
20
42.2280
40
1.5500
0
HATCH
5
184
100
AcDbEntity
8
bottom_copper
6
ByLayer
62
256
370
0
100
AcDbHatch
10
0
20
0
30
0
210
0
220
0
230
1
2
SOLID
70
1
71
0
91
1
92
0
93
1
72
2
10
5.7940
20
42.2280
40
1.5500
50
0
51
360
73
1
97
0
75
0
76
1
98
0
0
CIRCLE
5
185
100
AcDbEntity
8
bottom_copper
6
ByLayer
62
256
370
0
100
AcDbCircle
10
8.8984
20
32.8280
40
1.6000
0
HATCH
5
186
100
AcDbEntity
8
bottom_copper
6
ByLayer
62
256
370
0
100
AcDbHatch
10
0
20
0
30
0
210
0
220
0
230
1
2
SOLID
70
1
71
0
91
1
92
0
93
1
72
2
10
8.8984
20
32.8280
40
1.6000
50
0
51
360
73
1
97
0
75
0
76
1
98
0
0
CIRCLE
5
187
100
AcDbEntity
8
bottom_copper
6
ByLayer
62
256
370
0
100
AcDbCircle
10
41.7940
20
42.2280
40
1.5500
0
HATCH
5
188
100
AcDbEntity
8
bottom_copper
6
ByLayer
62
256
370
0
100
AcDbHatch
10
0
20
0
30
0
210
0
220
0
230
1
2
SOLID
70
1
71
0
91
1
92
0
93
1
72
2
10
41.7940
20
42.2280
40
1.5500
50
0
51
360
73
1
97
0
75
0
76
1
98
0
0
CIRCLE
5
189
100
AcDbEntity
8
bottom_copper
6
ByLayer
62
256
370
0
100
AcDbCircle
10
32.3940
20
39.1280
40
1.1176
0
HATCH
5
190
100
AcDbEntity
8
bottom_copper
6
ByLayer
62
256
370
0
100
AcDbHatch
10
0
20
0
30
0
210
0
220
0
230
1
2
SOLID
70
1
71
0
91
1
92
0
93
1
72
2
10
32.3940
20
39.1280
40
1.1176
50
0
51
360
73
1
97
0
75
0
76
1
98
0
0
CIRCLE
5
191
100
AcDbEntity
8
bottom_copper
6
ByLayer
62
256
370
0
100
AcDbCircle
10
38.6896
20
32.8280
40
1.6000
0
HATCH
5
192
100
AcDbEntity
8
bottom_copper
6
ByLayer
62
256
370
0
100
AcDbHatch
10
0
20
0
30
0
210
0
220
0
230
1
2
SOLID
70
1
71
0
91
1
92
0
93
1
72
2
10
38.6896
20
32.8280
40
1.6000
50
0
51
360
73
1
97
0
75
0
76
1
98
0
0
CIRCLE
5
193
100
AcDbEntity
8
bottom_copper
6
ByLayer
62
256
370
0
100
AcDbCircle
10
40.4079
20
28.6797
40
0.4318
0
HATCH
5
194
100
AcDbEntity
8
bottom_copper
6
ByLayer
62
256
370
0
100
AcDbHatch
10
0
20
0
30
0
210
0
220
0
230
1
2
SOLID
70
1
71
0
91
1
92
0
93
1
72
2
10
40.4079
20
28.6797
40
0.4318
50
0
51
360
73
1
97
0
75
0
76
1
98
0
0
CIRCLE
5
195
100
AcDbEntity
8
bottom_copper
6
ByLayer
62
256
370
0
100
AcDbCircle
10
28.2446
20
40.8461
40
0.4318
0
HATCH
5
196
100
AcDbEntity
8
bottom_copper
6
ByLayer
62
256
370
0
100
AcDbHatch
10
0
20
0
30
0
210
0
220
0
230
1
2
SOLID
70
1
71
0
91
1
92
0
93
1
72
2
10
28.2446
20
40.8461
40
0.4318
50
0
51
360
73
1
97
0
75
0
76
1
98
0
0
LINE
5
197
100
AcDbEntity
8
top_copper
6
ByLayer
62
256
370
25
100
AcDbLine
10
9.9790
20
6.2840
11
9.9790
21
4.5060
0
LINE
5
198
100
AcDbEntity
8
top_copper
6
ByLayer
62
256
370
25
100
AcDbLine
10
9.9790
20
6.2840
11
13.0270
21
6.2840
0
LINE
5
199
100
AcDbEntity
8
top_copper
6
ByLayer
62
256
370
25
100
AcDbLine
10
13.0270
20
6.2840
11
13.0270
21
4.5060
0
LINE
5
200
100
AcDbEntity
8
top_copper
6
ByLayer
62
256
370
25
100
AcDbLine
10
9.9790
20
4.5060
11
13.0270
21
4.5060
0
LINE
5
201
100
AcDbEntity
8
top_copper
6
ByLayer
62
256
370
102
100
AcDbLine
10
32.3940
20
15.6280
11
29.7940
21
18.2280
0
LINE
5
202
100
AcDbEntity
8
top_copper
6
ByLayer
62
256
370
102
100
AcDbLine
10
32.3940
20
9.3280
11
32.3940
21
15.6280
0
LINE
5
203
100
AcDbEntity
8
top_copper
6
ByLayer
62
256
370
102
100
AcDbLine
10
24.6700
20
18.2280
11
23.9940
21
17.5520
0
LINE
5
204
100
AcDbEntity
8
top_copper
6
ByLayer
62
256
370
102
100
AcDbLine
10
29.7940
20
18.2280
11
24.6700
21
18.2280
0
LINE
5
205
100
AcDbEntity
8
top_copper
6
ByLayer
62
256
370
102
100
AcDbLine
10
19.9300
20
17.5520
11
23.9940
21
17.5520
0
LINE
5
206
100
AcDbEntity
8
top_copper
6
ByLayer
62
256
370
102
100
AcDbLine
10
23.4860
20
31.0140
11
19.9300
21
31.0140
0
LINE
5
207
100
AcDbEntity
8
top_copper
6
ByLayer
62
256
370
102
100
AcDbLine
10
24.2720
20
30.2280
11
23.4860
21
31.0140
0
LINE
5
208
100
AcDbEntity
8
top_copper
6
ByLayer
62
256
370
102
100
AcDbLine
10
32.2940
20
24.2280
11
40.9940
21
24.2280
0
LINE
5
209
100
AcDbEntity
8
top_copper
6
ByLayer
62
256
370
102
100
AcDbLine
10
32.2220
20
24.1560
11
32.2940
21
24.2280
0
LINE
5
210
100
AcDbEntity
8
top_copper
6
ByLayer
62
256
370
102
100
AcDbLine
10
29.7940
20
36.5280
11
32.3940
21
39.1280
0
LINE
5
211
100
AcDbEntity
8
top_copper
6
ByLayer
62
256
370
102
100
AcDbLine
10
29.7940
20
30.2280
11
29.7940
21
36.5280
0
LINE
5
212
100
AcDbEntity
8
top_copper
6
ByLayer
62
256
370
102
100
AcDbLine
10
26.5340
20
24.1560
11
32.2220
21
24.1560
0
LINE
5
213
100
AcDbEntity
8
top_copper
6
ByLayer
62
256
370
102
100
AcDbLine
10
29.7940
20
30.2280
11
24.2720
21
30.2280
0
LINE
5
214
100
AcDbEntity
8
top_copper
6
ByLayer
62
256
370
25
100
AcDbLine
10
10.7410
20
5.6642
11
10.9036
21
5.8268
0
LINE
5
215
100
AcDbEntity
8
top_copper
6
ByLayer
62
256
370
25
100
AcDbLine
10
10.9036
20
5.8268
11
10.9036
21
5.0140
0
LINE
5
216
100
AcDbEntity
8
top_copper
6
ByLayer
62
256
370
25
100
AcDbLine
10
10.7410
20
5.0140
11
11.0458
21
5.0140
0
CIRCLE
5
217
100
AcDbEntity
8
top_copper
6
ByLayer
62
256
370
0
100
AcDbCircle
10
6.5940
20
24.2280
40
1.6256
0
CIRCLE
5
218
100
AcDbEntity
8
top_copper
6
ByLayer
62
256
370
0
100
AcDbCircle
10
19.8200
20
24.2800
40
0.5080
0
CIRCLE
5
219
100
AcDbEntity
8
top_copper
6
ByLayer
62
256
370
0
100
AcDbCircle
10
15.2940
20
24.2280
40
0.9398
0
CIRCLE
5
220
100
AcDbEntity
8
top_copper
6
ByLayer
62
256
370
0
100
AcDbCircle
10
6.5940
20
24.2280
40
1.6256
0
CIRCLE
5
221
100
AcDbEntity
8
top_copper
6
ByLayer
62
256
370
0
100
AcDbCircle
10
23.7940
20
24.2280
40
0.5080
0
CIRCLE
5
222
100
AcDbEntity
8
top_copper
6
ByLayer
62
256
370
0
100
AcDbCircle
10
5.7940
20
6.2280
40
1.8000
0
CIRCLE
5
223
100
AcDbEntity
8
top_copper
6
ByLayer
62
256
370
0
100
AcDbCircle
10
19.8200
20
17.5300
40
1.6510
0
CIRCLE
5
224
100
AcDbEntity
8
top_copper
6
ByLayer
62
256
370
0
100
AcDbCircle
10
23.7940
20
7.0280
40
1.9000
0
CIRCLE
5
225
100
AcDbEntity
8
top_copper
6
ByLayer
62
256
370
0
100
AcDbCircle
10
7.1801
20
19.7763
40
0.9398
0
CIRCLE
5
226
100
AcDbEntity
8
top_copper
6
ByLayer
62
256
370
0
100
AcDbCircle
10
41.7940
20
6.2280
40
1.8000
0
CIRCLE
5
227
100
AcDbEntity
8
top_copper
6
ByLayer
62
256
370
0
100
AcDbCircle
10
32.2940
20
24.2280
40
0.9398
0
CIRCLE
5
228
100
AcDbEntity
8
top_copper
6
ByLayer
62
256
370
0
100
AcDbCircle
10
40.9940
20
24.2280
40
1.6256
0
CIRCLE
5
229
100
AcDbEntity
8
top_copper
6
ByLayer
62
256
370
0
100
AcDbCircle
10
32.3940
20
9.3280
40
1.6256
0
CIRCLE
5
230
100
AcDbEntity
8
top_copper
6
ByLayer
62
256
370
0
100
AcDbCircle
10
35.9574
20
12.0615
40
0.9398
0
CIRCLE
5
231
100
AcDbEntity
8
top_copper
6
ByLayer
62
256
370
0
100
AcDbCircle
10
29.7940
20
30.2280
40
0.9398
0
CIRCLE
5
232
100
AcDbEntity
8
top_copper
6
ByLayer
62
256
370
0
100
AcDbCircle
10
19.8200
20
31.0300
40
1.6510
0
CIRCLE
5
233
100
AcDbEntity
8
top_copper
6
ByLayer
62
256
370
0
100
AcDbCircle
10
29.7940
20
18.2280
40
0.9398
0
CIRCLE
5
234
100
AcDbEntity
8
top_copper
6
ByLayer
62
256
370
0
100
AcDbCircle
10
26.5700
20
24.2800
40
1.7510
0
CIRCLE
5
235
100
AcDbEntity
8
top_copper
6
ByLayer
62
256
370
0
100
AcDbCircle
10
5.7940
20
42.2280
40
1.8000
0
CIRCLE
5
236
100
AcDbEntity
8
top_copper
6
ByLayer
62
256
370
0
100
AcDbCircle
10
8.8984
20
32.8280
40
1.9000
0
CIRCLE
5
237
100
AcDbEntity
8
top_copper
6
ByLayer
62
256
370
0
100
AcDbCircle
10
41.7940
20
42.2280
40
1.8000
0
CIRCLE
5
238
100
AcDbEntity
8
top_copper
6
ByLayer
62
256
370
0
100
AcDbCircle
10
32.3940
20
39.1280
40
1.6256
0
CIRCLE
5
239
100
AcDbEntity
8
top_copper
6
ByLayer
62
256
370
0
100
AcDbCircle
10
38.6896
20
32.8280
40
1.9000
0
CIRCLE
5
240
100
AcDbEntity
8
top_copper
6
ByLayer
62
256
370
0
100
AcDbCircle
10
40.4079
20
28.6797
40
0.9398
0
CIRCLE
5
241
100
AcDbEntity
8
top_copper
6
ByLayer
62
256
370
0
100
AcDbCircle
10
28.2446
20
40.8461
40
0.9398
0
CIRCLE
5
242
100
AcDbEntity
8
top_copper
6
ByLayer
62
256
370
0
100
AcDbCircle
10
6.5940
20
24.2280
40
1.1176
0
HATCH
5
243
100
AcDbEntity
8
top_copper
6
ByLayer
62
256
370
0
100
AcDbHatch
10
0
20
0
30
0
210
0
220
0
230
1
2
SOLID
70
1
71
0
91
1
92
0
93
1
72
2
10
6.5940
20
24.2280
40
1.1176
50
0
51
360
73
1
97
0
75
0
76
1
98
0
0
CIRCLE
5
244
100
AcDbEntity
8
top_copper
6
ByLayer
62
256
370
0
100
AcDbCircle
10
19.8200
20
24.2800
40
0.2540
0
HATCH
5
245
100
AcDbEntity
8
top_copper
6
ByLayer
62
256
370
0
100
AcDbHatch
10
0
20
0
30
0
210
0
220
0
230
1
2
SOLID
70
1
71
0
91
1
92
0
93
1
72
2
10
19.8200
20
24.2800
40
0.2540
50
0
51
360
73
1
97
0
75
0
76
1
98
0
0
CIRCLE
5
246
100
AcDbEntity
8
top_copper
6
ByLayer
62
256
370
0
100
AcDbCircle
10
15.2940
20
24.2280
40
0.4318
0
HATCH
5
247
100
AcDbEntity
8
top_copper
6
ByLayer
62
256
370
0
100
AcDbHatch
10
0
20
0
30
0
210
0
220
0
230
1
2
SOLID
70
1
71
0
91
1
92
0
93
1
72
2
10
15.2940
20
24.2280
40
0.4318
50
0
51
360
73
1
97
0
75
0
76
1
98
0
0
CIRCLE
5
248
100
AcDbEntity
8
top_copper
6
ByLayer
62
256
370
0
100
AcDbCircle
10
6.5940
20
24.2280
40
1.1176
0
HATCH
5
249
100
AcDbEntity
8
top_copper
6
ByLayer
62
256
370
0
100
AcDbHatch
10
0
20
0
30
0
210
0
220
0
230
1
2
SOLID
70
1
71
0
91
1
92
0
93
1
72
2
10
6.5940
20
24.2280
40
1.1176
50
0
51
360
73
1
97
0
75
0
76
1
98
0
0
CIRCLE
5
250
100
AcDbEntity
8
top_copper
6
ByLayer
62
256
370
0
100
AcDbCircle
10
23.7940
20
24.2280
40
0.2540
0
HATCH
5
251
100
AcDbEntity
8
top_copper
6
ByLayer
62
256
370
0
100
AcDbHatch
10
0
20
0
30
0
210
0
220
0
230
1
2
SOLID
70
1
71
0
91
1
92
0
93
1
72
2
10
23.7940
20
24.2280
40
0.2540
50
0
51
360
73
1
97
0
75
0
76
1
98
0
0
CIRCLE
5
252
100
AcDbEntity
8
top_copper
6
ByLayer
62
256
370
0
100
AcDbCircle
10
5.7940
20
6.2280
40
1.5500
0
HATCH
5
253
100
AcDbEntity
8
top_copper
6
ByLayer
62
256
370
0
100
AcDbHatch
10
0
20
0
30
0
210
0
220
0
230
1
2
SOLID
70
1
71
0
91
1
92
0
93
1
72
2
10
5.7940
20
6.2280
40
1.5500
50
0
51
360
73
1
97
0
75
0
76
1
98
0
0
CIRCLE
5
254
100
AcDbEntity
8
top_copper
6
ByLayer
62
256
370
0
100
AcDbCircle
10
19.8200
20
17.5300
40
1.3970
0
HATCH
5
255
100
AcDbEntity
8
top_copper
6
ByLayer
62
256
370
0
100
AcDbHatch
10
0
20
0
30
0
210
0
220
0
230
1
2
SOLID
70
1
71
0
91
1
92
0
93
1
72
2
10
19.8200
20
17.5300
40
1.3970
50
0
51
360
73
1
97
0
75
0
76
1
98
0
0
CIRCLE
5
256
100
AcDbEntity
8
top_copper
6
ByLayer
62
256
370
0
100
AcDbCircle
10
23.7940
20
7.0280
40
1.6000
0
HATCH
5
257
100
AcDbEntity
8
top_copper
6
ByLayer
62
256
370
0
100
AcDbHatch
10
0
20
0
30
0
210
0
220
0
230
1
2
SOLID
70
1
71
0
91
1
92
0
93
1
72
2
10
23.7940
20
7.0280
40
1.6000
50
0
51
360
73
1
97
0
75
0
76
1
98
0
0
CIRCLE
5
258
100
AcDbEntity
8
top_copper
6
ByLayer
62
256
370
0
100
AcDbCircle
10
7.1801
20
19.7763
40
0.4318
0
HATCH
5
259
100
AcDbEntity
8
top_copper
6
ByLayer
62
256
370
0
100
AcDbHatch
10
0
20
0
30
0
210
0
220
0
230
1
2
SOLID
70
1
71
0
91
1
92
0
93
1
72
2
10
7.1801
20
19.7763
40
0.4318
50
0
51
360
73
1
97
0
75
0
76
1
98
0
0
CIRCLE
5
260
100
AcDbEntity
8
top_copper
6
ByLayer
62
256
370
0
100
AcDbCircle
10
41.7940
20
6.2280
40
1.5500
0
HATCH
5
261
100
AcDbEntity
8
top_copper
6
ByLayer
62
256
370
0
100
AcDbHatch
10
0
20
0
30
0
210
0
220
0
230
1
2
SOLID
70
1
71
0
91
1
92
0
93
1
72
2
10
41.7940
20
6.2280
40
1.5500
50
0
51
360
73
1
97
0
75
0
76
1
98
0
0
CIRCLE
5
262
100
AcDbEntity
8
top_copper
6
ByLayer
62
256
370
0
100
AcDbCircle
10
32.2940
20
24.2280
40
0.4318
0
HATCH
5
263
100
AcDbEntity
8
top_copper
6
ByLayer
62
256
370
0
100
AcDbHatch
10
0
20
0
30
0
210
0
220
0
230
1
2
SOLID
70
1
71
0
91
1
92
0
93
1
72
2
10
32.2940
20
24.2280
40
0.4318
50
0
51
360
73
1
97
0
75
0
76
1
98
0
0
CIRCLE
5
264
100
AcDbEntity
8
top_copper
6
ByLayer
62
256
370
0
100
AcDbCircle
10
40.9940
20
24.2280
40
1.1176
0
HATCH
5
265
100
AcDbEntity
8
top_copper
6
ByLayer
62
256
370
0
100
AcDbHatch
10
0
20
0
30
0
210
0
220
0
230
1
2
SOLID
70
1
71
0
91
1
92
0
93
1
72
2
10
40.9940
20
24.2280
40
1.1176
50
0
51
360
73
1
97
0
75
0
76
1
98
0
0
CIRCLE
5
266
100
AcDbEntity
8
top_copper
6
ByLayer
62
256
370
0
100
AcDbCircle
10
32.3940
20
9.3280
40
1.1176
0
HATCH
5
267
100
AcDbEntity
8
top_copper
6
ByLayer
62
256
370
0
100
AcDbHatch
10
0
20
0
30
0
210
0
220
0
230
1
2
SOLID
70
1
71
0
91
1
92
0
93
1
72
2
10
32.3940
20
9.3280
40
1.1176
50
0
51
360
73
1
97
0
75
0
76
1
98
0
0
CIRCLE
5
268
100
AcDbEntity
8
top_copper
6
ByLayer
62
256
370
0
100
AcDbCircle
10
35.9574
20
12.0615
40
0.4318
0
HATCH
5
269
100
AcDbEntity
8
top_copper
6
ByLayer
62
256
370
0
100
AcDbHatch
10
0
20
0
30
0
210
0
220
0
230
1
2
SOLID
70
1
71
0
91
1
92
0
93
1
72
2
10
35.9574
20
12.0615
40
0.4318
50
0
51
360
73
1
97
0
75
0
76
1
98
0
0
CIRCLE
5
270
100
AcDbEntity
8
top_copper
6
ByLayer
62
256
370
0
100
AcDbCircle
10
29.7940
20
30.2280
40
0.4318
0
HATCH
5
271
100
AcDbEntity
8
top_copper
6
ByLayer
62
256
370
0
100
AcDbHatch
10
0
20
0
30
0
210
0
220
0
230
1
2
SOLID
70
1
71
0
91
1
92
0
93
1
72
2
10
29.7940
20
30.2280
40
0.4318
50
0
51
360
73
1
97
0
75
0
76
1
98
0
0
CIRCLE
5
272
100
AcDbEntity
8
top_copper
6
ByLayer
62
256
370
0
100
AcDbCircle
10
19.8200
20
31.0300
40
1.3970
0
HATCH
5
273
100
AcDbEntity
8
top_copper
6
ByLayer
62
256
370
0
100
AcDbHatch
10
0
20
0
30
0
210
0
220
0
230
1
2
SOLID
70
1
71
0
91
1
92
0
93
1
72
2
10
19.8200
20
31.0300
40
1.3970
50
0
51
360
73
1
97
0
75
0
76
1
98
0
0
CIRCLE
5
274
100
AcDbEntity
8
top_copper
6
ByLayer
62
256
370
0
100
AcDbCircle
10
29.7940
20
18.2280
40
0.4318
0
HATCH
5
275
100
AcDbEntity
8
top_copper
6
ByLayer
62
256
370
0
100
AcDbHatch
10
0
20
0
30
0
210
0
220
0
230
1
2
SOLID
70
1
71
0
91
1
92
0
93
1
72
2
10
29.7940
20
18.2280
40
0.4318
50
0
51
360
73
1
97
0
75
0
76
1
98
0
0
CIRCLE
5
276
100
AcDbEntity
8
top_copper
6
ByLayer
62
256
370
0
100
AcDbCircle
10
26.5700
20
24.2800
40
1.3970
0
HATCH
5
277
100
AcDbEntity
8
top_copper
6
ByLayer
62
256
370
0
100
AcDbHatch
10
0
20
0
30
0
210
0
220
0
230
1
2
SOLID
70
1
71
0
91
1
92
0
93
1
72
2
10
26.5700
20
24.2800
40
1.3970
50
0
51
360
73
1
97
0
75
0
76
1
98
0
0
CIRCLE
5
278
100
AcDbEntity
8
top_copper
6
ByLayer
62
256
370
0
100
AcDbCircle
10
5.7940
20
42.2280
40
1.5500
0
HATCH
5
279
100
AcDbEntity
8
top_copper
6
ByLayer
62
256
370
0
100
AcDbHatch
10
0
20
0
30
0
210
0
220
0
230
1
2
SOLID
70
1
71
0
91
1
92
0
93
1
72
2
10
5.7940
20
42.2280
40
1.5500
50
0
51
360
73
1
97
0
75
0
76
1
98
0
0
CIRCLE
5
280
100
AcDbEntity
8
top_copper
6
ByLayer
62
256
370
0
100
AcDbCircle
10
8.8984
20
32.8280
40
1.6000
0
HATCH
5
281
100
AcDbEntity
8
top_copper
6
ByLayer
62
256
370
0
100
AcDbHatch
10
0
20
0
30
0
210
0
220
0
230
1
2
SOLID
70
1
71
0
91
1
92
0
93
1
72
2
10
8.8984
20
32.8280
40
1.6000
50
0
51
360
73
1
97
0
75
0
76
1
98
0
0
CIRCLE
5
282
100
AcDbEntity
8
top_copper
6
ByLayer
62
256
370
0
100
AcDbCircle
10
41.7940
20
42.2280
40
1.5500
0
HATCH
5
283
100
AcDbEntity
8
top_copper
6
ByLayer
62
256
370
0
100
AcDbHatch
10
0
20
0
30
0
210
0
220
0
230
1
2
SOLID
70
1
71
0
91
1
92
0
93
1
72
2
10
41.7940
20
42.2280
40
1.5500
50
0
51
360
73
1
97
0
75
0
76
1
98
0
0
CIRCLE
5
284
100
AcDbEntity
8
top_copper
6
ByLayer
62
256
370
0
100
AcDbCircle
10
32.3940
20
39.1280
40
1.1176
0
HATCH
5
285
100
AcDbEntity
8
top_copper
6
ByLayer
62
256
370
0
100
AcDbHatch
10
0
20
0
30
0
210
0
220
0
230
1
2
SOLID
70
1
71
0
91
1
92
0
93
1
72
2
10
32.3940
20
39.1280
40
1.1176
50
0
51
360
73
1
97
0
75
0
76
1
98
0
0
CIRCLE
5
286
100
AcDbEntity
8
top_copper
6
ByLayer
62
256
370
0
100
AcDbCircle
10
38.6896
20
32.8280
40
1.6000
0
HATCH
5
287
100
AcDbEntity
8
top_copper
6
ByLayer
62
256
370
0
100
AcDbHatch
10
0
20
0
30
0
210
0
220
0
230
1
2
SOLID
70
1
71
0
91
1
92
0
93
1
72
2
10
38.6896
20
32.8280
40
1.6000
50
0
51
360
73
1
97
0
75
0
76
1
98
0
0
CIRCLE
5
288
100
AcDbEntity
8
top_copper
6
ByLayer
62
256
370
0
100
AcDbCircle
10
40.4079
20
28.6797
40
0.4318
0
HATCH
5
289
100
AcDbEntity
8
top_copper
6
ByLayer
62
256
370
0
100
AcDbHatch
10
0
20
0
30
0
210
0
220
0
230
1
2
SOLID
70
1
71
0
91
1
92
0
93
1
72
2
10
40.4079
20
28.6797
40
0.4318
50
0
51
360
73
1
97
0
75
0
76
1
98
0
0
CIRCLE
5
290
100
AcDbEntity
8
top_copper
6
ByLayer
62
256
370
0
100
AcDbCircle
10
28.2446
20
40.8461
40
0.4318
0
HATCH
5
291
100
AcDbEntity
8
top_copper
6
ByLayer
62
256
370
0
100
AcDbHatch
10
0
20
0
30
0
210
0
220
0
230
1
2
SOLID
70
1
71
0
91
1
92
0
93
1
72
2
10
28.2446
20
40.8461
40
0.4318
50
0
51
360
73
1
97
0
75
0
76
1
98
0
0
LINE
5
292
100
AcDbEntity
8
top_silk
6
ByLayer
62
256
370
25
100
AcDbLine
10
23.2940
20
24.2280
11
24.2940
21
24.2280
0
LINE
5
293
100
AcDbEntity
8
top_silk
6
ByLayer
62
256
370
25
100
AcDbLine
10
19.3200
20
24.2800
11
20.3200
21
24.2800
0
LINE
5
294
100
AcDbEntity
8
top_silk
6
ByLayer
62
256
370
25
100
AcDbLine
10
1.7940
20
2.2280
11
1.7940
21
46.2280
0
LINE
5
295
100
AcDbEntity
8
top_silk
6
ByLayer
62
256
370
25
100
AcDbLine
10
1.7940
20
46.2280
11
45.7940
21
46.2280
0
LINE
5
296
100
AcDbEntity
8
top_silk
6
ByLayer
62
256
370
25
100
AcDbLine
10
33.1080
20
43.4444
11
32.7450
21
42.7315
0
LINE
5
297
100
AcDbEntity
8
top_silk
6
ByLayer
62
256
370
25
100
AcDbLine
10
35.7083
20
41.7937
11
33.1080
21
43.4444
0
LINE
5
298
100
AcDbEntity
8
top_silk
6
ByLayer
62
256
370
25
100
AcDbLine
10
23.3110
20
24.0986
11
24.2770
21
24.3574
0
LINE
5
299
100
AcDbEntity
8
top_silk
6
ByLayer
62
256
370
25
100
AcDbLine
10
23.6646
20
24.7110
11
23.9234
21
23.7450
0
LINE
5
300
100
AcDbEntity
8
top_silk
6
ByLayer
62
256
370
25
100
AcDbLine
10
23.7940
20
24.7280
11
23.7940
21
23.7280
0
LINE
5
301
100
AcDbEntity
8
top_silk
6
ByLayer
62
256
370
25
100
AcDbLine
10
45.0460
20
25.7676
11
45.0460
21
22.6884
0
LINE
5
302
100
AcDbEntity
8
top_silk
6
ByLayer
62
256
370
25
100
AcDbLine
10
35.7825
20
6.5480
11
35.3430
21
7.2245
0
LINE
5
303
100
AcDbEntity
8
top_silk
6
ByLayer
62
256
370
25
100
AcDbLine
10
33.1080
20
5.0116
11
35.7825
21
6.5480
0
LINE
5
304
100
AcDbEntity
8
top_silk
6
ByLayer
62
256
370
25
100
AcDbLine
10
23.2940
20
24.2280
11
24.2940
21
24.2280
0
LINE
5
305
100
AcDbEntity
8
top_silk
6
ByLayer
62
256
370
25
100
AcDbLine
10
33.1080
20
5.0116
11
32.7450
21
5.7245
0
LINE
5
306
100
AcDbEntity
8
top_silk
6
ByLayer
62
256
370
25
100
AcDbLine
10
45.0460
20
25.7676
11
44.2940
21
25.7280
0
LINE
5
307
100
AcDbEntity
8
top_silk
6
ByLayer
62
256
370
25
100
AcDbLine
10
35.7083
20
41.7937
11
35.3430
21
41.2315
0
LINE
5
308
100
AcDbEntity
8
top_silk
6
ByLayer
62
256
370
25
100
AcDbLine
10
23.7940
20
24.7280
11
23.7940
21
23.7280
0
LINE
5
309
100
AcDbEntity
8
top_silk
6
ByLayer
62
256
370
25
100
AcDbLine
10
45.0460
20
22.6884
11
44.2940
21
22.7280
0
LINE
5
310
100
AcDbEntity
8
top_silk
6
ByLayer
62
256
370
25
100
AcDbLine
10
45.7940
20
2.2280
11
1.7940
21
2.2280
0
LINE
5
311
100
AcDbEntity
8
top_silk
6
ByLayer
62
256
370
25
100
AcDbLine
10
45.7940
20
46.2280
11
45.7940
21
2.2280
0
LINE
5
312
100
AcDbEntity
8
top_silk
6
ByLayer
62
256
370
25
100
AcDbLine
10
19.8200
20
24.7800
11
19.8200
21
23.7800
0
ARC
5
313
100
AcDbEntity
8
top_silk
6
ByLayer
62
256
370
25
100
AcDbCircle
10
5.7940
20
42.2280
40
3.0000
100
AcDbArc
50
90.000000
51
90.000000
0
ARC
5
314
100
AcDbEntity
8
top_silk
6
ByLayer
62
256
370
25
100
AcDbCircle
10
41.7940
20
42.2280
40
3.0000
100
AcDbArc
50
90.000000
51
90.000000
0
ARC
5
315
100
AcDbEntity
8
top_silk
6
ByLayer
62
256
370
25
100
AcDbCircle
10
19.8200
20
24.2800
40
10.2000
100
AcDbArc
50
90.000000
51
90.000000
0
ARC
5
316
100
AcDbEntity
8
top_silk
6
ByLayer
62
256
370
25
100
AcDbCircle
10
5.7940
20
6.2280
40
3.0000
100
AcDbArc
50
90.000000
51
90.000000
0
ARC
5
317
100
AcDbEntity
8
top_silk
6
ByLayer
62
256
370
25
100
AcDbCircle
10
41.7940
20
6.2280
40
3.0000
100
AcDbArc
50
90.000000
51
90.000000
0
ARC
5
318
100
AcDbEntity
8
top_silk
6
ByLayer
62
256
370
25
100
AcDbCircle
10
23.7940
20
24.2280
40
16.0000
100
AcDbArc
50
90.000000
51
90.000000
0
ARC
5
319
100
AcDbEntity
8
top_silk
6
ByLayer
62
256
370
25
100
AcDbCircle
10
23.7940
20
24.2280
40
20.5000
100
AcDbArc
50
90.000000
51
90.000000
0
LINE
5
320
100
AcDbEntity
8
top_silk
6
ByLayer
62
256
370
19
100
AcDbLine
10
32.1223
20
29.4244
11
32.7430
21
29.4244
0
LINE
5
321
100
AcDbEntity
8
top_silk
6
ByLayer
62
256
370
19
100
AcDbLine
10
31.7880
20
29.7587
11
32.1223
21
29.4244
0
LINE
5
322
100
AcDbEntity
8
top_silk
6
ByLayer
62
256
370
19
100
AcDbLine
10
31.7880
20
31.0002
11
31.7880
21
29.7587
0
LINE
5
323
100
AcDbEntity
8
top_silk
6
ByLayer
62
256
370
19
100
AcDbLine
10
31.7880
20
31.0002
11
32.1223
21
31.3345
0
LINE
5
324
100
AcDbEntity
8
top_silk
6
ByLayer
62
256
370
19
100
AcDbLine
10
32.1223
20
31.3345
11
32.7430
21
31.3345
0
LINE
5
325
100
AcDbEntity
8
top_silk
6
ByLayer
62
256
370
18
100
AcDbLine
10
24.5920
20
41.5840
11
24.5920
21
40.6950
0
LINE
5
326
100
AcDbEntity
8
top_silk
6
ByLayer
62
256
370
18
100
AcDbLine
10
24.5920
20
40.6950
11
24.7190
21
40.5680
0
LINE
5
327
100
AcDbEntity
8
top_silk
6
ByLayer
62
256
370
18
100
AcDbLine
10
24.7190
20
40.5680
11
24.9730
21
40.5680
0
LINE
5
328
100
AcDbEntity
8
top_silk
6
ByLayer
62
256
370
18
100
AcDbLine
10
24.9730
20
40.5680
11
25.1000
21
40.6950
0
LINE
5
329
100
AcDbEntity
8
top_silk
6
ByLayer
62
256
370
18
100
AcDbLine
10
25.1000
20
41.5840
11
25.1000
21
40.6950
0
LINE
5
330
100
AcDbEntity
8
top_silk
6
ByLayer
62
256
370
18
100
AcDbLine
10
25.4048
20
41.4570
11
25.5318
21
41.5840
0
LINE
5
331
100
AcDbEntity
8
top_silk
6
ByLayer
62
256
370
18
100
AcDbLine
10
25.5318
20
41.5840
11
25.7858
21
41.5840
0
LINE
5
332
100
AcDbEntity
8
top_silk
6
ByLayer
62
256
370
18
100
AcDbLine
10
25.7858
20
41.5840
11
25.9128
21
41.4570
0
LINE
5
333
100
AcDbEntity
8
top_silk
6
ByLayer
62
256
370
18
100
AcDbLine
10
25.7858
20
40.5680
11
25.9128
21
40.6950
0
LINE
5
334
100
AcDbEntity
8
top_silk
6
ByLayer
62
256
370
18
100
AcDbLine
10
25.5318
20
40.5680
11
25.7858
21
40.5680
0
LINE
5
335
100
AcDbEntity
8
top_silk
6
ByLayer
62
256
370
18
100
AcDbLine
10
25.4048
20
40.6950
11
25.5318
21
40.5680
0
LINE
5
336
100
AcDbEntity
8
top_silk
6
ByLayer
62
256
370
18
100
AcDbLine
10
25.5318
20
41.1268
11
25.7858
21
41.1268
0
LINE
5
337
100
AcDbEntity
8
top_silk
6
ByLayer
62
256
370
18
100
AcDbLine
10
25.9128
20
41.4570
11
25.9128
21
41.2538
0
LINE
5
338
100
AcDbEntity
8
top_silk
6
ByLayer
62
256
370
18
100
AcDbLine
10
25.9128
20
40.9998
11
25.9128
21
40.6950
0
LINE
5
339
100
AcDbEntity
8
top_silk
6
ByLayer
62
256
370
18
100
AcDbLine
10
25.9128
20
40.9998
11
25.7858
21
41.1268
0
LINE
5
340
100
AcDbEntity
8
top_silk
6
ByLayer
62
256
370
18
100
AcDbLine
10
25.9128
20
41.2538
11
25.7858
21
41.1268
0
LINE
5
341
100
AcDbEntity
8
top_silk
6
ByLayer
62
256
370
18
100
AcDbLine
10
22.4920
20
35.5740
11
22.4920
21
34.6850
0
LINE
5
342
100
AcDbEntity
8
top_silk
6
ByLayer
62
256
370
18
100
AcDbLine
10
22.4920
20
34.6850
11
22.6190
21
34.5580
0
LINE
5
343
100
AcDbEntity
8
top_silk
6
ByLayer
62
256
370
18
100
AcDbLine
10
22.6190
20
34.5580
11
22.8730
21
34.5580
0
LINE
5
344
100
AcDbEntity
8
top_silk
6
ByLayer
62
256
370
18
100
AcDbLine
10
22.8730
20
34.5580
11
23.0000
21
34.6850
0
LINE
5
345
100
AcDbEntity
8
top_silk
6
ByLayer
62
256
370
18
100
AcDbLine
10
23.0000
20
35.5740
11
23.0000
21
34.6850
0
LINE
5
346
100
AcDbEntity
8
top_silk
6
ByLayer
62
256
370
18
100
AcDbLine
10
23.3048
20
35.4470
11
23.4318
21
35.5740
0
LINE
5
347
100
AcDbEntity
8
top_silk
6
ByLayer
62
256
370
18
100
AcDbLine
10
23.4318
20
35.5740
11
23.8128
21
35.5740
0
LINE
5
348
100
AcDbEntity
8
top_silk
6
ByLayer
62
256
370
18
100
AcDbLine
10
23.8128
20
35.5740
11
23.9398
21
35.4470
0
LINE
5
349
100
AcDbEntity
8
top_silk
6
ByLayer
62
256
370
18
100
AcDbLine
10
23.9398
20
35.4470
11
23.9398
21
35.1930
0
LINE
5
350
100
AcDbEntity
8
top_silk
6
ByLayer
62
256
370
18
100
AcDbLine
10
23.3048
20
34.5580
11
23.9398
21
35.1930
0
LINE
5
351
100
AcDbEntity
8
top_silk
6
ByLayer
62
256
370
18
100
AcDbLine
10
23.3048
20
34.5580
11
23.9398
21
34.5580
0
LINE
5
352
100
AcDbEntity
8
top_silk
6
ByLayer
62
256
370
18
100
AcDbLine
10
28.6700
20
45.7360
11
28.6700
21
44.8470
0
LINE
5
353
100
AcDbEntity
8
top_silk
6
ByLayer
62
256
370
18
100
AcDbLine
10
28.6700
20
44.8470
11
28.7970
21
44.7200
0
LINE
5
354
100
AcDbEntity
8
top_silk
6
ByLayer
62
256
370
18
100
AcDbLine
10
28.7970
20
44.7200
11
29.0510
21
44.7200
0
LINE
5
355
100
AcDbEntity
8
top_silk
6
ByLayer
62
256
370
18
100
AcDbLine
10
29.0510
20
44.7200
11
29.1780
21
44.8470
0
LINE
5
356
100
AcDbEntity
8
top_silk
6
ByLayer
62
256
370
18
100
AcDbLine
10
29.1780
20
45.7360
11
29.1780
21
44.8470
0
LINE
5
357
100
AcDbEntity
8
top_silk
6
ByLayer
62
256
370
18
100
AcDbLine
10
29.4828
20
45.7360
11
29.9908
21
45.7360
0
LINE
5
358
100
AcDbEntity
8
top_silk
6
ByLayer
62
256
370
18
100
AcDbLine
10
29.4828
20
45.7360
11
29.4828
21
45.2280
0
LINE
5
359
100
AcDbEntity
8
top_silk
6
ByLayer
62
256
370
18
100
AcDbLine
10
29.4828
20
45.2280
11
29.6098
21
45.3550
0
LINE
5
360
100
AcDbEntity
8
top_silk
6
ByLayer
62
256
370
18
100
AcDbLine
10
29.6098
20
45.3550
11
29.8638
21
45.3550
0
LINE
5
361
100
AcDbEntity
8
top_silk
6
ByLayer
62
256
370
18
100
AcDbLine
10
29.8638
20
45.3550
11
29.9908
21
45.2280
0
LINE
5
362
100
AcDbEntity
8
top_silk
6
ByLayer
62
256
370
18
100
AcDbLine
10
29.9908
20
45.2280
11
29.9908
21
44.8470
0
LINE
5
363
100
AcDbEntity
8
top_silk
6
ByLayer
62
256
370
18
100
AcDbLine
10
29.8638
20
44.7200
11
29.9908
21
44.8470
0
LINE
5
364
100
AcDbEntity
8
top_silk
6
ByLayer
62
256
370
18
100
AcDbLine
10
29.6098
20
44.7200
11
29.8638
21
44.7200
0
LINE
5
365
100
AcDbEntity
8
top_silk
6
ByLayer
62
256
370
18
100
AcDbLine
10
29.4828
20
44.8470
11
29.6098
21
44.7200
0
LINE
5
366
100
AcDbEntity
8
top_silk
6
ByLayer
62
256
370
18
100
AcDbLine
10
9.9680
20
3.3728
11
10.3490
21
3.3728
0
LINE
5
367
100
AcDbEntity
8
top_silk
6
ByLayer
62
256
370
18
100
AcDbLine
10
9.9680
20
2.8140
11
10.4760
21
2.8140
0
LINE
5
368
100
AcDbEntity
8
top_silk
6
ByLayer
62
256
370
18
100
AcDbLine
10
9.9680
20
3.8300
11
9.9680
21
2.8140
0
LINE
5
369
100
AcDbEntity
8
top_silk
6
ByLayer
62
256
370
18
100
AcDbLine
10
9.9680
20
3.8300
11
10.4760
21
3.8300
0
LINE
5
370
100
AcDbEntity
8
top_silk
6
ByLayer
62
256
370
18
100
AcDbLine
10
10.9586
20
2.8140
11
11.2888
21
2.8140
0
LINE
5
371
100
AcDbEntity
8
top_silk
6
ByLayer
62
256
370
18
100
AcDbLine
10
10.7808
20
2.9918
11
10.9586
21
2.8140
0
LINE
5
372
100
AcDbEntity
8
top_silk
6
ByLayer
62
256
370
18
100
AcDbLine
10
10.7808
20
3.6522
11
10.7808
21
2.9918
0
LINE
5
373
100
AcDbEntity
8
top_silk
6
ByLayer
62
256
370
18
100
AcDbLine
10
10.7808
20
3.6522
11
10.9586
21
3.8300
0
LINE
5
374
100
AcDbEntity
8
top_silk
6
ByLayer
62
256
370
18
100
AcDbLine
10
10.9586
20
3.8300
11
11.2888
21
3.8300
0
LINE
5
375
100
AcDbEntity
8
top_silk
6
ByLayer
62
256
370
18
100
AcDbLine
10
11.5936
20
2.8140
11
12.1016
21
2.8140
0
LINE
5
376
100
AcDbEntity
8
top_silk
6
ByLayer
62
256
370
18
100
AcDbLine
10
12.4064
20
3.8300
11
12.9144
21
3.8300
0
LINE
5
377
100
AcDbEntity
8
top_silk
6
ByLayer
62
256
370
18
100
AcDbLine
10
12.6604
20
3.8300
11
12.6604
21
2.8140
0
LINE
5
378
100
AcDbEntity
8
top_silk
6
ByLayer
62
256
370
18
100
AcDbLine
10
13.2192
20
3.3728
11
13.6002
21
3.3728
0
LINE
5
379
100
AcDbEntity
8
top_silk
6
ByLayer
62
256
370
18
100
AcDbLine
10
13.2192
20
2.8140
11
13.7272
21
2.8140
0
LINE
5
380
100
AcDbEntity
8
top_silk
6
ByLayer
62
256
370
18
100
AcDbLine
10
13.2192
20
3.8300
11
13.2192
21
2.8140
0
LINE
5
381
100
AcDbEntity
8
top_silk
6
ByLayer
62
256
370
18
100
AcDbLine
10
13.2192
20
3.8300
11
13.7272
21
3.8300
0
LINE
5
382
100
AcDbEntity
8
top_silk
6
ByLayer
62
256
370
18
100
AcDbLine
10
14.5400
20
3.8300
11
14.6670
21
3.7030
0
LINE
5
383
100
AcDbEntity
8
top_silk
6
ByLayer
62
256
370
18
100
AcDbLine
10
14.1590
20
3.8300
11
14.5400
21
3.8300
0
LINE
5
384
100
AcDbEntity
8
top_silk
6
ByLayer
62
256
370
18
100
AcDbLine
10
14.0320
20
3.7030
11
14.1590
21
3.8300
0
LINE
5
385
100
AcDbEntity
8
top_silk
6
ByLayer
62
256
370
18
100
AcDbLine
10
14.0320
20
3.7030
11
14.0320
21
3.4490
0
LINE
5
386
100
AcDbEntity
8
top_silk
6
ByLayer
62
256
370
18
100
AcDbLine
10
14.0320
20
3.4490
11
14.1590
21
3.3220
0
LINE
5
387
100
AcDbEntity
8
top_silk
6
ByLayer
62
256
370
18
100
AcDbLine
10
14.1590
20
3.3220
11
14.5400
21
3.3220
0
LINE
5
388
100
AcDbEntity
8
top_silk
6
ByLayer
62
256
370
18
100
AcDbLine
10
14.5400
20
3.3220
11
14.6670
21
3.1950
0
LINE
5
389
100
AcDbEntity
8
top_silk
6
ByLayer
62
256
370
18
100
AcDbLine
10
14.6670
20
3.1950
11
14.6670
21
2.9410
0
LINE
5
390
100
AcDbEntity
8
top_silk
6
ByLayer
62
256
370
18
100
AcDbLine
10
14.5400
20
2.8140
11
14.6670
21
2.9410
0
LINE
5
391
100
AcDbEntity
8
top_silk
6
ByLayer
62
256
370
18
100
AcDbLine
10
14.1590
20
2.8140
11
14.5400
21
2.8140
0
LINE
5
392
100
AcDbEntity
8
top_silk
6
ByLayer
62
256
370
18
100
AcDbLine
10
14.0320
20
2.9410
11
14.1590
21
2.8140
0
LINE
5
393
100
AcDbEntity
8
top_silk
6
ByLayer
62
256
370
18
100
AcDbLine
10
14.9718
20
3.8300
11
15.4798
21
3.8300
0
LINE
5
394
100
AcDbEntity
8
top_silk
6
ByLayer
62
256
370
18
100
AcDbLine
10
15.2258
20
3.8300
11
15.2258
21
2.8140
0
LINE
5
395
100
AcDbEntity
8
top_silk
6
ByLayer
62
256
370
18
100
AcDbLine
10
15.7846
20
2.8140
11
16.2926
21
2.8140
0
LINE
5
396
100
AcDbEntity
8
top_silk
6
ByLayer
62
256
370
18
100
AcDbLine
10
16.5974
20
3.8300
11
16.8514
21
2.8140
0
LINE
5
397
100
AcDbEntity
8
top_silk
6
ByLayer
62
256
370
18
100
AcDbLine
10
16.8514
20
2.8140
11
17.1054
21
3.8300
0
LINE
5
398
100
AcDbEntity
8
top_silk
6
ByLayer
62
256
370
18
100
AcDbLine
10
17.4102
20
2.9410
11
17.5372
21
2.8140
0
LINE
5
399
100
AcDbEntity
8
top_silk
6
ByLayer
62
256
370
18
100
AcDbLine
10
17.4102
20
3.7030
11
17.4102
21
2.9410
0
LINE
5
400
100
AcDbEntity
8
top_silk
6
ByLayer
62
256
370
18
100
AcDbLine
10
17.4102
20
3.7030
11
17.5372
21
3.8300
0
LINE
5
401
100
AcDbEntity
8
top_silk
6
ByLayer
62
256
370
18
100
AcDbLine
10
17.5372
20
3.8300
11
17.7912
21
3.8300
0
LINE
5
402
100
AcDbEntity
8
top_silk
6
ByLayer
62
256
370
18
100
AcDbLine
10
17.7912
20
3.8300
11
17.9182
21
3.7030
0
LINE
5
403
100
AcDbEntity
8
top_silk
6
ByLayer
62
256
370
18
100
AcDbLine
10
17.9182
20
3.7030
11
17.9182
21
2.9410
0
LINE
5
404
100
AcDbEntity
8
top_silk
6
ByLayer
62
256
370
18
100
AcDbLine
10
17.7912
20
2.8140
11
17.9182
21
2.9410
0
LINE
5
405
100
AcDbEntity
8
top_silk
6
ByLayer
62
256
370
18
100
AcDbLine
10
17.5372
20
2.8140
11
17.7912
21
2.8140
0
LINE
5
406
100
AcDbEntity
8
top_silk
6
ByLayer
62
256
370
18
100
AcDbLine
10
17.4102
20
3.0680
11
17.9182
21
3.5760
0
LINE
5
407
100
AcDbEntity
8
top_silk
6
ByLayer
62
256
370
18
100
AcDbLine
10
18.2230
20
2.8140
11
18.7310
21
2.8140
0
LINE
5
408
100
AcDbEntity
8
top_silk
6
ByLayer
62
256
370
18
100
AcDbLine
10
19.0358
20
2.9410
11
19.1628
21
2.8140
0
LINE
5
409
100
AcDbEntity
8
top_silk
6
ByLayer
62
256
370
18
100
AcDbLine
10
19.0358
20
3.7030
11
19.0358
21
2.9410
0
LINE
5
410
100
AcDbEntity
8
top_silk
6
ByLayer
62
256
370
18
100
AcDbLine
10
19.0358
20
3.7030
11
19.1628
21
3.8300
0
LINE
5
411
100
AcDbEntity
8
top_silk
6
ByLayer
62
256
370
18
100
AcDbLine
10
19.1628
20
3.8300
11
19.4168
21
3.8300
0
LINE
5
412
100
AcDbEntity
8
top_silk
6
ByLayer
62
256
370
18
100
AcDbLine
10
19.4168
20
3.8300
11
19.5438
21
3.7030
0
LINE
5
413
100
AcDbEntity
8
top_silk
6
ByLayer
62
256
370
18
100
AcDbLine
10
19.5438
20
3.7030
11
19.5438
21
2.9410
0
LINE
5
414
100
AcDbEntity
8
top_silk
6
ByLayer
62
256
370
18
100
AcDbLine
10
19.4168
20
2.8140
11
19.5438
21
2.9410
0
LINE
5
415
100
AcDbEntity
8
top_silk
6
ByLayer
62
256
370
18
100
AcDbLine
10
19.1628
20
2.8140
11
19.4168
21
2.8140
0
LINE
5
416
100
AcDbEntity
8
top_silk
6
ByLayer
62
256
370
18
100
AcDbLine
10
19.0358
20
3.0680
11
19.5438
21
3.5760
0
LINE
5
417
100
AcDbEntity
8
top_silk
6
ByLayer
62
256
370
19
100
AcDbLine
10
31.5340
20
18.6345
11
32.4890
21
18.6345
0
LINE
5
418
100
AcDbEntity
8
top_silk
6
ByLayer
62
256
370
19
100
AcDbLine
10
32.4890
20
18.6345
11
32.7278
21
18.3957
0
LINE
5
419
100
AcDbEntity
8
top_silk
6
ByLayer
62
256
370
19
100
AcDbLine
10
32.7278
20
18.3957
11
32.7278
21
17.9182
0
LINE
5
420
100
AcDbEntity
8
top_silk
6
ByLayer
62
256
370
19
100
AcDbLine
10
32.4890
20
17.6794
11
32.7278
21
17.9182
0
LINE
5
421
100
AcDbEntity
8
top_silk
6
ByLayer
62
256
370
19
100
AcDbLine
10
31.7728
20
17.6794
11
32.4890
21
17.6794
0
LINE
5
422
100
AcDbEntity
8
top_silk
6
ByLayer
62
256
370
19
100
AcDbLine
10
31.7728
20
18.6345
11
31.7728
21
16.7244
0
LINE
5
423
100
AcDbEntity
8
top_silk
6
ByLayer
62
256
370
19
100
AcDbLine
10
32.1548
20
17.6794
11
32.7278
21
16.7244
0
LINE
5
424
100
AcDbEntity
8
top_silk
6
ByLayer
62
256
370
18
100
AcDbLine
10
34.0740
20
25.2944
11
34.0740
21
24.4511
0
LINE
5
425
100
AcDbEntity
8
top_silk
6
ByLayer
62
256
370
18
100
AcDbLine
10
34.0740
20
24.4511
11
34.2848
21
23.6078
0
LINE
5
426
100
AcDbEntity
8
top_silk
6
ByLayer
62
256
370
18
100
AcDbLine
10
34.2848
20
23.6078
11
34.7065
21
24.4511
0
LINE
5
427
100
AcDbEntity
8
top_silk
6
ByLayer
62
256
370
18
100
AcDbLine
10
34.7065
20
24.4511
11
35.1281
21
23.6078
0
LINE
5
428
100
AcDbEntity
8
top_silk
6
ByLayer
62
256
370
18
100
AcDbLine
10
35.1281
20
23.6078
11
35.3389
21
24.4511
0
LINE
5
429
100
AcDbEntity
8
top_silk
6
ByLayer
62
256
370
18
100
AcDbLine
10
35.3389
20
24.4511
11
35.3389
21
25.2944
0
LINE
5
430
100
AcDbEntity
8
top_silk
6
ByLayer
62
256
370
18
100
AcDbLine
10
23.7940
20
23.4660
11
24.0480
21
23.7200
0
LINE
5
431
100
AcDbEntity
8
top_silk
6
ByLayer
62
256
370
18
100
AcDbLine
10
23.7940
20
23.4660
11
24.0480
21
23.2120
0
LINE
5
432
100
AcDbEntity
8
top_silk
6
ByLayer
62
256
370
18
100
AcDbLine
10
24.6068
20
23.4660
11
24.6068
21
23.3390
0
LINE
5
433
100
AcDbEntity
8
top_silk
6
ByLayer
62
256
370
18
100
AcDbLine
10
24.6068
20
23.0850
11
24.6068
21
22.9580
0
LINE
5
434
100
AcDbEntity
8
top_silk
6
ByLayer
62
256
370
18
100
AcDbLine
10
24.3528
20
23.8470
11
24.3528
21
23.7200
0
LINE
5
435
100
AcDbEntity
8
top_silk
6
ByLayer
62
256
370
18
100
AcDbLine
10
24.3528
20
23.8470
11
24.4798
21
23.9740
0
LINE
5
436
100
AcDbEntity
8
top_silk
6
ByLayer
62
256
370
18
100
AcDbLine
10
24.4798
20
23.9740
11
24.7338
21
23.9740
0
LINE
5
437
100
AcDbEntity
8
top_silk
6
ByLayer
62
256
370
18
100
AcDbLine
10
24.7338
20
23.9740
11
24.8608
21
23.8470
0
LINE
5
438
100
AcDbEntity
8
top_silk
6
ByLayer
62
256
370
18
100
AcDbLine
10
24.8608
20
23.8470
11
24.8608
21
23.7200
0
LINE
5
439
100
AcDbEntity
8
top_silk
6
ByLayer
62
256
370
18
100
AcDbLine
10
24.6068
20
23.4660
11
24.8608
21
23.7200
0
LINE
5
440
100
AcDbEntity
8
top_silk
6
ByLayer
62
256
370
18
100
AcDbLine
10
25.1656
20
23.7200
11
25.4196
21
23.4660
0
LINE
5
441
100
AcDbEntity
8
top_silk
6
ByLayer
62
256
370
18
100
AcDbLine
10
25.1656
20
23.2120
11
25.4196
21
23.4660
0
CIRCLE
5
442
100
AcDbEntity
8
drill_plated
6
ByLayer
62
256
370
0
100
AcDbCircle
10
6.5940
20
24.2280
40
1.1176
0
HATCH
5
443
100
AcDbEntity
8
drill_plated
6
ByLayer
62
256
370
0
100
AcDbHatch
10
0
20
0
30
0
210
0
220
0
230
1
2
SOLID
70
1
71
0
91
1
92
0
93
1
72
2
10
6.5940
20
24.2280
40
1.1176
50
0
51
360
73
1
97
0
75
0
76
1
98
0
0
CIRCLE
5
444
100
AcDbEntity
8
drill_plated
6
ByLayer
62
256
370
0
100
AcDbCircle
10
19.8200
20
24.2800
40
0.2540
0
HATCH
5
445
100
AcDbEntity
8
drill_plated
6
ByLayer
62
256
370
0
100
AcDbHatch
10
0
20
0
30
0
210
0
220
0
230
1
2
SOLID
70
1
71
0
91
1
92
0
93
1
72
2
10
19.8200
20
24.2800
40
0.2540
50
0
51
360
73
1
97
0
75
0
76
1
98
0
0
CIRCLE
5
446
100
AcDbEntity
8
drill_plated
6
ByLayer
62
256
370
0
100
AcDbCircle
10
15.2940
20
24.2280
40
0.4318
0
HATCH
5
447
100
AcDbEntity
8
drill_plated
6
ByLayer
62
256
370
0
100
AcDbHatch
10
0
20
0
30
0
210
0
220
0
230
1
2
SOLID
70
1
71
0
91
1
92
0
93
1
72
2
10
15.2940
20
24.2280
40
0.4318
50
0
51
360
73
1
97
0
75
0
76
1
98
0
0
CIRCLE
5
448
100
AcDbEntity
8
drill_plated
6
ByLayer
62
256
370
0
100
AcDbCircle
10
6.5940
20
24.2280
40
1.1176
0
HATCH
5
449
100
AcDbEntity
8
drill_plated
6
ByLayer
62
256
370
0
100
AcDbHatch
10
0
20
0
30
0
210
0
220
0
230
1
2
SOLID
70
1
71
0
91
1
92
0
93
1
72
2
10
6.5940
20
24.2280
40
1.1176
50
0
51
360
73
1
97
0
75
0
76
1
98
0
0
CIRCLE
5
450
100
AcDbEntity
8
drill_plated
6
ByLayer
62
256
370
0
100
AcDbCircle
10
23.7940
20
24.2280
40
0.2540
0
HATCH
5
451
100
AcDbEntity
8
drill_plated
6
ByLayer
62
256
370
0
100
AcDbHatch
10
0
20
0
30
0
210
0
220
0
230
1
2
SOLID
70
1
71
0
91
1
92
0
93
1
72
2
10
23.7940
20
24.2280
40
0.2540
50
0
51
360
73
1
97
0
75
0
76
1
98
0
0
CIRCLE
5
452
100
AcDbEntity
8
drill_plated
6
ByLayer
62
256
370
0
100
AcDbCircle
10
5.7940
20
6.2280
40
1.5500
0
HATCH
5
453
100
AcDbEntity
8
drill_plated
6
ByLayer
62
256
370
0
100
AcDbHatch
10
0
20
0
30
0
210
0
220
0
230
1
2
SOLID
70
1
71
0
91
1
92
0
93
1
72
2
10
5.7940
20
6.2280
40
1.5500
50
0
51
360
73
1
97
0
75
0
76
1
98
0
0
CIRCLE
5
454
100
AcDbEntity
8
drill_plated
6
ByLayer
62
256
370
0
100
AcDbCircle
10
19.8200
20
17.5300
40
1.3970
0
HATCH
5
455
100
AcDbEntity
8
drill_plated
6
ByLayer
62
256
370
0
100
AcDbHatch
10
0
20
0
30
0
210
0
220
0
230
1
2
SOLID
70
1
71
0
91
1
92
0
93
1
72
2
10
19.8200
20
17.5300
40
1.3970
50
0
51
360
73
1
97
0
75
0
76
1
98
0
0
CIRCLE
5
456
100
AcDbEntity
8
drill_plated
6
ByLayer
62
256
370
0
100
AcDbCircle
10
23.7940
20
7.0280
40
1.6000
0
HATCH
5
457
100
AcDbEntity
8
drill_plated
6
ByLayer
62
256
370
0
100
AcDbHatch
10
0
20
0
30
0
210
0
220
0
230
1
2
SOLID
70
1
71
0
91
1
92
0
93
1
72
2
10
23.7940
20
7.0280
40
1.6000
50
0
51
360
73
1
97
0
75
0
76
1
98
0
0
CIRCLE
5
458
100
AcDbEntity
8
drill_plated
6
ByLayer
62
256
370
0
100
AcDbCircle
10
7.1801
20
19.7763
40
0.4318
0
HATCH
5
459
100
AcDbEntity
8
drill_plated
6
ByLayer
62
256
370
0
100
AcDbHatch
10
0
20
0
30
0
210
0
220
0
230
1
2
SOLID
70
1
71
0
91
1
92
0
93
1
72
2
10
7.1801
20
19.7763
40
0.4318
50
0
51
360
73
1
97
0
75
0
76
1
98
0
0
CIRCLE
5
460
100
AcDbEntity
8
drill_plated
6
ByLayer
62
256
370
0
100
AcDbCircle
10
41.7940
20
6.2280
40
1.5500
0
HATCH
5
461
100
AcDbEntity
8
drill_plated
6
ByLayer
62
256
370
0
100
AcDbHatch
10
0
20
0
30
0
210
0
220
0
230
1
2
SOLID
70
1
71
0
91
1
92
0
93
1
72
2
10
41.7940
20
6.2280
40
1.5500
50
0
51
360
73
1
97
0
75
0
76
1
98
0
0
CIRCLE
5
462
100
AcDbEntity
8
drill_plated
6
ByLayer
62
256
370
0
100
AcDbCircle
10
32.2940
20
24.2280
40
0.4318
0
HATCH
5
463
100
AcDbEntity
8
drill_plated
6
ByLayer
62
256
370
0
100
AcDbHatch
10
0
20
0
30
0
210
0
220
0
230
1
2
SOLID
70
1
71
0
91
1
92
0
93
1
72
2
10
32.2940
20
24.2280
40
0.4318
50
0
51
360
73
1
97
0
75
0
76
1
98
0
0
CIRCLE
5
464
100
AcDbEntity
8
drill_plated
6
ByLayer
62
256
370
0
100
AcDbCircle
10
40.9940
20
24.2280
40
1.1176
0
HATCH
5
465
100
AcDbEntity
8
drill_plated
6
ByLayer
62
256
370
0
100
AcDbHatch
10
0
20
0
30
0
210
0
220
0
230
1
2
SOLID
70
1
71
0
91
1
92
0
93
1
72
2
10
40.9940
20
24.2280
40
1.1176
50
0
51
360
73
1
97
0
75
0
76
1
98
0
0
CIRCLE
5
466
100
AcDbEntity
8
drill_plated
6
ByLayer
62
256
370
0
100
AcDbCircle
10
32.3940
20
9.3280
40
1.1176
0
HATCH
5
467
100
AcDbEntity
8
drill_plated
6
ByLayer
62
256
370
0
100
AcDbHatch
10
0
20
0
30
0
210
0
220
0
230
1
2
SOLID
70
1
71
0
91
1
92
0
93
1
72
2
10
32.3940
20
9.3280
40
1.1176
50
0
51
360
73
1
97
0
75
0
76
1
98
0
0
CIRCLE
5
468
100
AcDbEntity
8
drill_plated
6
ByLayer
62
256
370
0
100
AcDbCircle
10
35.9574
20
12.0615
40
0.4318
0
HATCH
5
469
100
AcDbEntity
8
drill_plated
6
ByLayer
62
256
370
0
100
AcDbHatch
10
0
20
0
30
0
210
0
220
0
230
1
2
SOLID
70
1
71
0
91
1
92
0
93
1
72
2
10
35.9574
20
12.0615
40
0.4318
50
0
51
360
73
1
97
0
75
0
76
1
98
0
0
CIRCLE
5
470
100
AcDbEntity
8
drill_plated
6
ByLayer
62
256
370
0
100
AcDbCircle
10
29.7940
20
30.2280
40
0.4318
0
HATCH
5
471
100
AcDbEntity
8
drill_plated
6
ByLayer
62
256
370
0
100
AcDbHatch
10
0
20
0
30
0
210
0
220
0
230
1
2
SOLID
70
1
71
0
91
1
92
0
93
1
72
2
10
29.7940
20
30.2280
40
0.4318
50
0
51
360
73
1
97
0
75
0
76
1
98
0
0
CIRCLE
5
472
100
AcDbEntity
8
drill_plated
6
ByLayer
62
256
370
0
100
AcDbCircle
10
19.8200
20
31.0300
40
1.3970
0
HATCH
5
473
100
AcDbEntity
8
drill_plated
6
ByLayer
62
256
370
0
100
AcDbHatch
10
0
20
0
30
0
210
0
220
0
230
1
2
SOLID
70
1
71
0
91
1
92
0
93
1
72
2
10
19.8200
20
31.0300
40
1.3970
50
0
51
360
73
1
97
0
75
0
76
1
98
0
0
CIRCLE
5
474
100
AcDbEntity
8
drill_plated
6
ByLayer
62
256
370
0
100
AcDbCircle
10
29.7940
20
18.2280
40
0.4318
0
HATCH
5
475
100
AcDbEntity
8
drill_plated
6
ByLayer
62
256
370
0
100
AcDbHatch
10
0
20
0
30
0
210
0
220
0
230
1
2
SOLID
70
1
71
0
91
1
92
0
93
1
72
2
10
29.7940
20
18.2280
40
0.4318
50
0
51
360
73
1
97
0
75
0
76
1
98
0
0
CIRCLE
5
476
100
AcDbEntity
8
drill_plated
6
ByLayer
62
256
370
0
100
AcDbCircle
10
26.5700
20
24.2800
40
1.3970
0
HATCH
5
477
100
AcDbEntity
8
drill_plated
6
ByLayer
62
256
370
0
100
AcDbHatch
10
0
20
0
30
0
210
0
220
0
230
1
2
SOLID
70
1
71
0
91
1
92
0
93
1
72
2
10
26.5700
20
24.2800
40
1.3970
50
0
51
360
73
1
97
0
75
0
76
1
98
0
0
CIRCLE
5
478
100
AcDbEntity
8
drill_plated
6
ByLayer
62
256
370
0
100
AcDbCircle
10
5.7940
20
42.2280
40
1.5500
0
HATCH
5
479
100
AcDbEntity
8
drill_plated
6
ByLayer
62
256
370
0
100
AcDbHatch
10
0
20
0
30
0
210
0
220
0
230
1
2
SOLID
70
1
71
0
91
1
92
0
93
1
72
2
10
5.7940
20
42.2280
40
1.5500
50
0
51
360
73
1
97
0
75
0
76
1
98
0
0
CIRCLE
5
480
100
AcDbEntity
8
drill_plated
6
ByLayer
62
256
370
0
100
AcDbCircle
10
8.8984
20
32.8280
40
1.6000
0
HATCH
5
481
100
AcDbEntity
8
drill_plated
6
ByLayer
62
256
370
0
100
AcDbHatch
10
0
20
0
30
0
210
0
220
0
230
1
2
SOLID
70
1
71
0
91
1
92
0
93
1
72
2
10
8.8984
20
32.8280
40
1.6000
50
0
51
360
73
1
97
0
75
0
76
1
98
0
0
CIRCLE
5
482
100
AcDbEntity
8
drill_plated
6
ByLayer
62
256
370
0
100
AcDbCircle
10
41.7940
20
42.2280
40
1.5500
0
HATCH
5
483
100
AcDbEntity
8
drill_plated
6
ByLayer
62
256
370
0
100
AcDbHatch
10
0
20
0
30
0
210
0
220
0
230
1
2
SOLID
70
1
71
0
91
1
92
0
93
1
72
2
10
41.7940
20
42.2280
40
1.5500
50
0
51
360
73
1
97
0
75
0
76
1
98
0
0
CIRCLE
5
484
100
AcDbEntity
8
drill_plated
6
ByLayer
62
256
370
0
100
AcDbCircle
10
32.3940
20
39.1280
40
1.1176
0
HATCH
5
485
100
AcDbEntity
8
drill_plated
6
ByLayer
62
256
370
0
100
AcDbHatch
10
0
20
0
30
0
210
0
220
0
230
1
2
SOLID
70
1
71
0
91
1
92
0
93
1
72
2
10
32.3940
20
39.1280
40
1.1176
50
0
51
360
73
1
97
0
75
0
76
1
98
0
0
CIRCLE
5
486
100
AcDbEntity
8
drill_plated
6
ByLayer
62
256
370
0
100
AcDbCircle
10
38.6896
20
32.8280
40
1.6000
0
HATCH
5
487
100
AcDbEntity
8
drill_plated
6
ByLayer
62
256
370
0
100
AcDbHatch
10
0
20
0
30
0
210
0
220
0
230
1
2
SOLID
70
1
71
0
91
1
92
0
93
1
72
2
10
38.6896
20
32.8280
40
1.6000
50
0
51
360
73
1
97
0
75
0
76
1
98
0
0
CIRCLE
5
488
100
AcDbEntity
8
drill_plated
6
ByLayer
62
256
370
0
100
AcDbCircle
10
40.4079
20
28.6797
40
0.4318
0
HATCH
5
489
100
AcDbEntity
8
drill_plated
6
ByLayer
62
256
370
0
100
AcDbHatch
10
0
20
0
30
0
210
0
220
0
230
1
2
SOLID
70
1
71
0
91
1
92
0
93
1
72
2
10
40.4079
20
28.6797
40
0.4318
50
0
51
360
73
1
97
0
75
0
76
1
98
0
0
CIRCLE
5
490
100
AcDbEntity
8
drill_plated
6
ByLayer
62
256
370
0
100
AcDbCircle
10
28.2446
20
40.8461
40
0.4318
0
HATCH
5
491
100
AcDbEntity
8
drill_plated
6
ByLayer
62
256
370
0
100
AcDbHatch
10
0
20
0
30
0
210
0
220
0
230
1
2
SOLID
70
1
71
0
91
1
92
0
93
1
72
2
10
28.2446
20
40.8461
40
0.4318
50
0
51
360
73
1
97
0
75
0
76
1
98
0
0
LINE
5
492
100
AcDbEntity
8
outline
6
ByLayer
62
256
370
25
100
AcDbLine
10
1.7940
20
2.2280
11
1.7940
21
46.2280
0
LINE
5
493
100
AcDbEntity
8
outline
6
ByLayer
62
256
370
25
100
AcDbLine
10
45.7940
20
2.2280
11
1.7940
21
2.2280
0
LINE
5
494
100
AcDbEntity
8
outline
6
ByLayer
62
256
370
25
100
AcDbLine
10
45.7940
20
46.2280
11
45.7940
21
2.2280
0
LINE
5
495
100
AcDbEntity
8
outline
6
ByLayer
62
256
370
25
100
AcDbLine
10
1.7940
20
46.2280
11
45.7940
21
46.2280
0
ENDSEC
0
SECTION
2
OBJECTS
0
DICTIONARY
5
C
330
0
100
AcDbDictionary
281
1
3
ACAD_GROUP
350
D
0
DICTIONARY
5
D
330
C
100
AcDbDictionary
281
1
0
ENDSEC
0
EOF
