999
dxfrw 0.5.11
0
SECTION
2
HEADER
9
$ACADVER
1
AC1021
9
$HANDSEED
5
20000
9
$DWGCODEPAGE
3
ANSI_1252
9
$INSBASE
10
0
20
0
30
0
9
$EXTMIN
10
0
20
0
30
0
9
$EXTMAX
10
38.0000
20
0
30
29.0000
9
$LIMMIN
10
0
20
0
9
$LIMMAX
10
420
20
297
9
$ORTHOMODE
70
0
9
$LTSCALE
40
1
9
$TEXTSTYLE
7
STANDARD
9
$CLAYER
8
0
9
$DIMASZ
40
2.5
9
$DIMLFAC
40
1
9
$DIMSCALE
40
1
9
$DIMEXO
40
0.625
9
$DIMEXE
40
1.25
9
$DIMTXT
40
2.5
9
$DIMTSZ
40
0
9
$DIMAUNIT
70
0
9
$DIMADEC
70
0
9
$DIMLUNIT
70
2
9
$DIMSTYLE
2
STANDARD
9
$DIMGAP
40
0.625
9
$DIMTIH
70
0
9
$LUNITS
70
2
9
$LUPREC
70
4
9
$AUNITS
70
0
9
$AUPREC
70
2
9
$SPLINESEGS
70
8
9
$SNAPSTYLE
70
0
9
$PINSBASE
10
0
20
0
30
0
9
$PLIMMIN
10
0
20
0
9
$PLIMMAX
10
210
20
297
9
$INSUNITS
70
4
9
$PSVPSCALE
40
1
0
ENDSEC
0
SECTION
2
CLASSES
0
ENDSEC
0
SECTION
2
TABLES
0
TABLE
2
VPORT
5
8
330
0
100
AcDbSymbolTable
70
1
0
VPORT
5
31
330
2
100
AcDbSymbolTableRecord
100
AcDbViewportTableRecord
2
*ACTIVE
70
0
10
0
20
0
11
1
21
1
12
73.375
22
51.875
13
0
23
0
14
10
24
10
15
10
25
10
16
0
26
0
36
1
17
0
27
0
37
0
40
116.25
41
1.36989247312
42
50
43
0
44
0
50
0
51
0
71
0
72
100
73
1
74
3
75
0
76
1
77
0
78
0
281
0
65
1
110
0
120
0
130
0
111
1
121
0
131
0
112
0
122
1
132
0
79
0
146
0
348
10020
60
7
61
5
292
1
282
1
141
0
142
0
63
250
421
3358443
0
ENDTAB
0
TABLE
2
LTYPE
5
5
330
0
100
AcDbSymbolTable
70
4
0
LTYPE
5
14
330
5
100
AcDbSymbolTableRecord
100
AcDbLinetypeTableRecord
2
ByBlock
70
0
3

72
65
73
0
40
0
0
LTYPE
5
15
330
5
100
AcDbSymbolTableRecord
100
AcDbLinetypeTableRecord
2
ByLayer
70
0
3

72
65
73
0
40
0
0
LTYPE
5
16
330
5
100
AcDbSymbolTableRecord
100
AcDbLinetypeTableRecord
2
Continuous
70
0
3
Solid line
72
65
73
0
40
0
0
LTYPE
5
32
330
5
100
AcDbSymbolTableRecord
100
AcDbLinetypeTableRecord
2
DOT
70
0
3
Dot . . . . . . . . . . . . . . . . . . . . . .
72
65
73
2
40
6.35
49
0
74
0
49
-6.35
74
0
0
LTYPE
5
33
330
5
100
AcDbSymbolTableRecord
100
AcDbLinetypeTableRecord
2
DOT2
70
0
3
Dot (.5x) .....................................
72
65
73
2
40
3.175
49
0
74
0
49
-3.175
74
0
0
LTYPE
5
34
330
5
100
AcDbSymbolTableRecord
100
AcDbLinetypeTableRecord
2
DOTX2
70
0
3
Dot (2x) .  .  .  .  .  .  .  .  .  .  .  .  .
72
65
73
2
40
12.7
49
0
74
0
49
-12.7
74
0
0
LTYPE
5
35
330
5
100
AcDbSymbolTableRecord
100
AcDbLinetypeTableRecord
2
DASHED
70
0
3
Dot . . . . . . . . . . . . . . . . . . . . . .
72
65
73
2
40
19.05
49
12.7
74
0
49
-6.35
74
0
0
LTYPE
5
36
330
5
100
AcDbSymbolTableRecord
100
AcDbLinetypeTableRecord
2
DASHED2
70
0
3
Dashed (.5x) _ _ _ _ _ _ _ _ _ _ _ _ _ _ _ _ _
72
65
73
2
40
9.525
49
6.35
74
0
49
-3.175
74
0
0
LTYPE
5
37
330
5
100
AcDbSymbolTableRecord
100
AcDbLinetypeTableRecord
2
DASHEDX2
70
0
3
Dashed (2x) ____  ____  ____  ____  ____  ___
72
65
73
2
40
38.1
49
25.4
74
0
49
-12.7
74
0
0
LTYPE
5
38
330
5
100
AcDbSymbolTableRecord
100
AcDbLinetypeTableRecord
2
DASHDOT
70
0
3
Dash dot __ . __ . __ . __ . __ . __ . __ . __
72
65
73
4
40
25.4
49
12.7
74
0
49
-6.35
74
0
49
0
74
0
49
-6.35
74
0
0
LTYPE
5
39
330
5
100
AcDbSymbolTableRecord
100
AcDbLinetypeTableRecord
2
DASHDOT2
70
0
3
Dash dot (.5x) _._._._._._._._._._._._._._._.
72
65
73
4
40
12.7
49
6.35
74
0
49
-3.175
74
0
49
0
74
0
49
-3.175
74
0
0
LTYPE
5
3A
330
5
100
AcDbSymbolTableRecord
100
AcDbLinetypeTableRecord
2
DASHDOTX2
70
0
3
Dash dot (2x) ____  .  ____  .  ____  .  ___
72
65
73
4
40
50.8
49
25.4
74
0
49
-12.7
74
0
49
0
74
0
49
-12.7
74
0
0
LTYPE
5
3B
330
5
100
AcDbSymbolTableRecord
100
AcDbLinetypeTableRecord
2
DIVIDE
70
0
3
Divide ____ . . ____ . . ____ . . ____ . . ____
72
65
73
6
40
31.75
49
12.7
74
0
49
-6.35
74
0
49
0
74
0
49
-6.35
74
0
49
0
74
0
49
-6.35
74
0
0
LTYPE
5
3C
330
5
100
AcDbSymbolTableRecord
100
AcDbLinetypeTableRecord
2
DIVIDE2
70
0
3
Divide (.5x) __..__..__..__..__..__..__..__.._
72
65
73
6
40
15.875
49
6.35
74
0
49
-3.175
74
0
49
0
74
0
49
-3.175
74
0
49
0
74
0
49
-3.175
74
0
0
LTYPE
5
3D
330
5
100
AcDbSymbolTableRecord
100
AcDbLinetypeTableRecord
2
DIVIDEX2
70
0
3
Divide (2x) ________  .  .  ________  .  .  _
72
65
73
6
40
63.5
49
25.4
74
0
49
-12.7
74
0
49
0
74
0
49
-12.7
74
0
49
0
74
0
49
-12.7
74
0
0
LTYPE
5
3E
330
5
100
AcDbSymbolTableRecord
100
AcDbLinetypeTableRecord
2
BORDER
70
0
3
Border __ __ . __ __ . __ __ . __ __ . __ __ .
72
65
73
6
40
44.45
49
12.7
74
0
49
-6.35
74
0
49
12.7
74
0
49
-6.35
74
0
49
0
74
0
49
-6.35
74
0
0
LTYPE
5
3F
330
5
100
AcDbSymbolTableRecord
100
AcDbLinetypeTableRecord
2
BORDER2
70
0
3
Border (.5x) __.__.__.__.__.__.__.__.__.__.__.
72
65
73
6
40
22.225
49
6.35
74
0
49
-3.175
74
0
49
6.35
74
0
49
-3.175
74
0
49
0
74
0
49
-3.175
74
0
0
LTYPE
5
40
330
5
100
AcDbSymbolTableRecord
100
AcDbLinetypeTableRecord
2
BORDERX2
70
0
3
Border (2x) ____  ____  .  ____  ____  .  ___
72
65
73
6
40
88.9
49
25.4
74
0
49
-12.7
74
0
49
25.4
74
0
49
-12.7
74
0
49
0
74
0
49
-12.7
74
0
0
LTYPE
5
41
330
5
100
AcDbSymbolTableRecord
100
AcDbLinetypeTableRecord
2
CENTER
70
0
3
Center ____ _ ____ _ ____ _ ____ _ ____ _ ____
72
65
73
4
40
50.8
49
31.75
74
0
49
-6.35
74
0
49
6.35
74
0
49
-6.35
74
0
0
LTYPE
5
42
330
5
100
AcDbSymbolTableRecord
100
AcDbLinetypeTableRecord
2
CENTER2
70
0
3
Center (.5x) ___ _ ___ _ ___ _ ___ _ ___ _ ___
72
65
73
4
40
28.575
49
19.05
74
0
49
-3.175
74
0
49
3.175
74
0
49
-3.175
74
0
0
LTYPE
5
43
330
5
100
AcDbSymbolTableRecord
100
AcDbLinetypeTableRecord
2
CENTERX2
70
0
3
Center (2x) ________  __  ________  __  _____
72
65
73
4
40
101.6
49
63.5
74
0
49
-12.7
74
0
49
12.7
74
0
49
-12.7
74
0
0
ENDTAB
0
TABLE
2
LAYER
5
2
330
0
100
AcDbSymbolTable
70
1
0
LAYER
5
10
330
2
100
AcDbSymbolTableRecord
100
AcDbLayerTableRecord
2
0
70
0
62
7
6
CONTINUOUS
370
0
390
F
0
LAYER
5
101
330
2
100
AcDbSymbolTableRecord
100
AcDbLayerTableRecord
2
outline
70
0
62
7
6
CONTINUOUS
370
15
390
F
0
LAYER
5
102
330
2
100
AcDbSymbolTableRecord
100
AcDbLayerTableRecord
2
bottom_copper
70
0
62
7
6
CONTINUOUS
370
15
390
F
0
LAYER
5
103
330
2
100
AcDbSymbolTableRecord
100
AcDbLayerTableRecord
2
top_copper
70
0
62
7
6
CONTINUOUS
370
15
390
F
0
LAYER
5
104
330
2
100
AcDbSymbolTableRecord
100
AcDbLayerTableRecord
2
bottom_silk
70
0
62
7
6
CONTINUOUS
370
15
390
F
0
LAYER
5
105
330
2
100
AcDbSymbolTableRecord
100
AcDbLayerTableRecord
2
top_silk
70
0
62
7
6
CONTINUOUS
370
15
390
F
0
LAYER
5
106
330
2
100
AcDbSymbolTableRecord
100
AcDbLayerTableRecord
2
drill_plated
70
0
62
7
6
CONTINUOUS
370
15
390
F
0
LAYER
5
107
330
2
100
AcDbSymbolTableRecord
100
AcDbLayerTableRecord
2
drill_unplated
70
0
62
7
6
CONTINUOUS
370
15
390
F
0
ENDTAB
0
TABLE
2
STYLE
5
3
330
0
100
AcDbSymbolTable
70
3
0
STYLE
5
44
330
2
100
AcDbSymbolTableRecord
100
AcDbTextStyleTableRecord
2
Standard
70
0
40
0
41
1
50
0
71
0
42
1
3
txt
4

0
ENDTAB
0
TABLE
2
VIEW
5
6
330
0
100
AcDbSymbolTable
70
0
0
ENDTAB
0
TABLE
2
UCS
5
7
330
0
100
AcDbSymbolTable
70
0
0
ENDTAB
0
TABLE
2
APPID
5
9
330
0
100
AcDbSymbolTable
70
1
0
APPID
5
12
330
9
100
AcDbSymbolTableRecord
100
AcDbRegAppTableRecord
2
ACAD
70
0
0
ENDTAB
0
TABLE
2
DIMSTYLE
5
A
330
0
100
AcDbSymbolTable
70
1
100
AcDbDimStyleTable
71
1
0
DIMSTYLE
105
45
330
A
100
AcDbSymbolTableRecord
100
AcDbDimStyleTableRecord
2
Standard
70
0
40
1
41
2.5
42
0.625
43
0.38
44
1.25
45
0
46
0
47
0
48
0
140
2.5
141
0.09
142
0
143
25.4
144
1
145
0
146
1
147
0.625
148
0
71
0
72
0
73
0
74
1
75
0
76
0
77
0
78
0
79
0
170
0
171
2
172
0
173
0
174
0
175
0
176
0
177
0
178
0
179
0
271
4
272
4
273
2
274
2
275
0
276
0
277
2
278
46
279
0
280
0
281
0
282
0
283
1
284
0
285
0
286
0
288
0
289
3
340
Standard
341

371
-2
372
-2
0
ENDTAB
0
TABLE
2
BLOCK_RECORD
5
1
330
0
100
AcDbSymbolTable
70
2
0
BLOCK_RECORD
5
1F
330
1
100
AcDbSymbolTableRecord
100
AcDbBlockTableRecord
2
*Model_Space
70
0
280
1
281
0
0
BLOCK_RECORD
5
1E
330
1
100
AcDbSymbolTableRecord
100
AcDbBlockTableRecord
2
*Paper_Space
70
0
280
1
281
0
0
ENDTAB
0
ENDSEC
0
SECTION
2
BLOCKS
0
BLOCK
5
20
330
1F
100
AcDbEntity
8
0
100
AcDbBlockBegin
2
*Model_Space
70
0
10
0
20
0
30
0
3
*Model_Space
1

0
ENDBLK
5
21
330
1F
100
AcDbEntity
8
0
100
AcDbBlockEnd
0
BLOCK
5
1C
330
1B
100
AcDbEntity
8
0
100
AcDbBlockBegin
2
*Paper_Space
70
0
10
0
20
0
30
0
3
*Paper_Space
1

0
ENDBLK
5
1D
330
1F
100
AcDbEntity
8
0
100
AcDbBlockEnd
0
ENDSEC
0
SECTION
2
ENTITIES
0
HATCH
5
108
100
AcDbEntity
8
bottom_silk
6
ByLayer
62
256
370
0
100
AcDbHatch
10
0
20
0
30
0
210
0
220
0
230
1
2
SOLID
70
1
71
0
91
1
92
0
93
4
72
1
10
13.5720
20
8.8140
11
33.5720
21
8.8140
72
1
10
33.5720
20
8.8140
11
33.5720
21
3.8140
72
1
10
33.5720
20
3.8140
11
13.5720
21
3.8140
72
1
10
13.5720
20
3.8140
11
13.5720
21
8.8140
97
0
75
0
76
1
98
0
0
LINE
5
109
100
AcDbEntity
8
bottom_silk
6
ByLayer
62
256
370
0
100
AcDbLine
10
13.5720
20
8.8140
11
33.5720
21
8.8140
0
LINE
5
110
100
AcDbEntity
8
bottom_silk
6
ByLayer
62
256
370
0
100
AcDbLine
10
33.5720
20
8.8140
11
33.5720
21
3.8140
0
LINE
5
111
100
AcDbEntity
8
bottom_silk
6
ByLayer
62
256
370
0
100
AcDbLine
10
33.5720
20
3.8140
11
13.5720
21
3.8140
0
LINE
5
112
100
AcDbEntity
8
bottom_silk
6
ByLayer
62
256
370
0
100
AcDbLine
10
13.5720
20
3.8140
11
13.5720
21
8.8140
0
HATCH
5
113
100
AcDbEntity
8
bottom_silk
6
ByLayer
62
256
370
0
100
AcDbHatch
10
0
20
0
30
0
210
0
220
0
230
1
2
SOLID
70
1
71
0
91
1
92
0
93
4
72
1
10
13.5720
20
14.8140
11
33.5720
21
14.8140
72
1
10
33.5720
20
14.8140
11
33.5720
21
9.8140
72
1
10
33.5720
20
9.8140
11
13.5720
21
9.8140
72
1
10
13.5720
20
9.8140
11
13.5720
21
14.8140
97
0
75
0
76
1
98
0
0
LINE
5
114
100
AcDbEntity
8
bottom_silk
6
ByLayer
62
256
370
0
100
AcDbLine
10
13.5720
20
14.8140
11
33.5720
21
14.8140
0
LINE
5
115
100
AcDbEntity
8
bottom_silk
6
ByLayer
62
256
370
0
100
AcDbLine
10
33.5720
20
14.8140
11
33.5720
21
9.8140
0
LINE
5
116
100
AcDbEntity
8
bottom_silk
6
ByLayer
62
256
370
0
100
AcDbLine
10
33.5720
20
9.8140
11
13.5720
21
9.8140
0
LINE
5
117
100
AcDbEntity
8
bottom_silk
6
ByLayer
62
256
370
0
100
AcDbLine
10
13.5720
20
9.8140
11
13.5720
21
14.8140
0
HATCH
5
118
100
AcDbEntity
8
bottom_silk
6
ByLayer
62
256
370
0
100
AcDbHatch
10
0
20
0
30
0
210
0
220
0
230
1
2
SOLID
70
1
71
0
91
1
92
0
93
4
72
1
10
13.5720
20
20.8140
11
33.5720
21
20.8140
72
1
10
33.5720
20
20.8140
11
33.5720
21
15.8140
72
1
10
33.5720
20
15.8140
11
13.5720
21
15.8140
72
1
10
13.5720
20
15.8140
11
13.5720
21
20.8140
97
0
75
0
76
1
98
0
0
LINE
5
119
100
AcDbEntity
8
bottom_silk
6
ByLayer
62
256
370
0
100
AcDbLine
10
13.5720
20
20.8140
11
33.5720
21
20.8140
0
LINE
5
120
100
AcDbEntity
8
bottom_silk
6
ByLayer
62
256
370
0
100
AcDbLine
10
33.5720
20
20.8140
11
33.5720
21
15.8140
0
LINE
5
121
100
AcDbEntity
8
bottom_silk
6
ByLayer
62
256
370
0
100
AcDbLine
10
33.5720
20
15.8140
11
13.5720
21
15.8140
0
LINE
5
122
100
AcDbEntity
8
bottom_silk
6
ByLayer
62
256
370
0
100
AcDbLine
10
13.5720
20
15.8140
11
13.5720
21
20.8140
0
HATCH
5
123
100
AcDbEntity
8
bottom_silk
6
ByLayer
62
256
370
0
100
AcDbHatch
10
0
20
0
30
0
210
0
220
0
230
1
2
SOLID
70
1
71
0
91
1
92
0
93
4
72
1
10
13.5720
20
25.8140
11
33.5720
21
25.8140
72
1
10
33.5720
20
25.8140
11
33.5720
21
21.8140
72
1
10
33.5720
20
21.8140
11
13.5720
21
21.8140
72
1
10
13.5720
20
21.8140
11
13.5720
21
25.8140
97
0
75
0
76
1
98
0
0
LINE
5
124
100
AcDbEntity
8
bottom_silk
6
ByLayer
62
256
370
0
100
AcDbLine
10
13.5720
20
25.8140
11
33.5720
21
25.8140
0
LINE
5
125
100
AcDbEntity
8
bottom_silk
6
ByLayer
62
256
370
0
100
AcDbLine
10
33.5720
20
25.8140
11
33.5720
21
21.8140
0
LINE
5
126
100
AcDbEntity
8
bottom_silk
6
ByLayer
62
256
370
0
100
AcDbLine
10
33.5720
20
21.8140
11
13.5720
21
21.8140
0
LINE
5
127
100
AcDbEntity
8
bottom_silk
6
ByLayer
62
256
370
0
100
AcDbLine
10
13.5720
20
21.8140
11
13.5720
21
25.8140
0
LINE
5
128
100
AcDbEntity
8
bottom_silk
6
ByLayer
62
256
370
25
100
AcDbLine
10
2.5720
20
26.8140
11
35.5720
21
26.8140
0
LINE
5
129
100
AcDbEntity
8
bottom_silk
6
ByLayer
62
256
370
25
100
AcDbLine
10
35.5720
20
26.8140
11
35.5720
21
1.8140
0
LINE
5
130
100
AcDbEntity
8
bottom_silk
6
ByLayer
62
256
370
25
100
AcDbLine
10
35.5720
20
1.8140
11
2.5720
21
1.8140
0
LINE
5
131
100
AcDbEntity
8
bottom_silk
6
ByLayer
62
256
370
25
100
AcDbLine
10
2.5720
20
1.8140
11
2.5720
21
26.8140
0
LINE
5
132
100
AcDbEntity
8
bottom_silk
6
ByLayer
62
256
370
27
100
AcDbLine
10
11.2650
20
24.0702
11
12.5960
21
22.4065
0
LINE
5
133
100
AcDbEntity
8
bottom_silk
6
ByLayer
62
256
370
27
100
AcDbLine
10
11.2650
20
24.0702
11
12.9287
21
24.0702
0
LINE
5
134
100
AcDbEntity
8
bottom_silk
6
ByLayer
62
256
370
27
100
AcDbLine
10
12.5960
20
22.4065
11
12.5960
21
25.0684
0
LINE
5
135
100
AcDbEntity
8
bottom_silk
6
ByLayer
62
256
370
27
100
AcDbLine
10
11.5110
20
17.1592
11
11.8437
21
16.8265
0
LINE
5
136
100
AcDbEntity
8
bottom_silk
6
ByLayer
62
256
370
27
100
AcDbLine
10
11.8437
20
16.8265
11
12.5092
21
16.8265
0
LINE
5
137
100
AcDbEntity
8
bottom_silk
6
ByLayer
62
256
370
27
100
AcDbLine
10
12.5092
20
16.8265
11
12.8420
21
17.1592
0
LINE
5
138
100
AcDbEntity
8
bottom_silk
6
ByLayer
62
256
370
27
100
AcDbLine
10
12.5092
20
19.4884
11
12.8420
21
19.1557
0
LINE
5
139
100
AcDbEntity
8
bottom_silk
6
ByLayer
62
256
370
27
100
AcDbLine
10
11.8437
20
19.4884
11
12.5092
21
19.4884
0
LINE
5
140
100
AcDbEntity
8
bottom_silk
6
ByLayer
62
256
370
27
100
AcDbLine
10
11.5110
20
19.1557
11
11.8437
21
19.4884
0
LINE
5
141
100
AcDbEntity
8
bottom_silk
6
ByLayer
62
256
370
27
100
AcDbLine
10
11.8437
20
18.0243
11
12.5092
21
18.0243
0
LINE
5
142
100
AcDbEntity
8
bottom_silk
6
ByLayer
62
256
370
27
100
AcDbLine
10
12.8420
20
17.1592
11
12.8420
21
17.6916
0
LINE
5
143
100
AcDbEntity
8
bottom_silk
6
ByLayer
62
256
370
27
100
AcDbLine
10
12.8420
20
18.3571
11
12.8420
21
19.1557
0
LINE
5
144
100
AcDbEntity
8
bottom_silk
6
ByLayer
62
256
370
27
100
AcDbLine
10
12.8420
20
18.3571
11
12.5092
21
18.0243
0
LINE
5
145
100
AcDbEntity
8
bottom_silk
6
ByLayer
62
256
370
27
100
AcDbLine
10
12.8420
20
17.6916
11
12.5092
21
18.0243
0
LINE
5
146
100
AcDbEntity
8
bottom_silk
6
ByLayer
62
256
370
27
100
AcDbLine
10
11.2570
20
11.3092
11
11.5897
21
10.9765
0
LINE
5
147
100
AcDbEntity
8
bottom_silk
6
ByLayer
62
256
370
27
100
AcDbLine
10
11.5897
20
10.9765
11
12.5880
21
10.9765
0
LINE
5
148
100
AcDbEntity
8
bottom_silk
6
ByLayer
62
256
370
27
100
AcDbLine
10
12.5880
20
10.9765
11
12.9207
21
11.3092
0
LINE
5
149
100
AcDbEntity
8
bottom_silk
6
ByLayer
62
256
370
27
100
AcDbLine
10
12.9207
20
11.3092
11
12.9207
21
11.9747
0
LINE
5
150
100
AcDbEntity
8
bottom_silk
6
ByLayer
62
256
370
27
100
AcDbLine
10
11.2570
20
13.6384
11
12.9207
21
11.9747
0
LINE
5
151
100
AcDbEntity
8
bottom_silk
6
ByLayer
62
256
370
27
100
AcDbLine
10
11.2570
20
13.6384
11
12.9207
21
13.6384
0
LINE
5
152
100
AcDbEntity
8
bottom_silk
6
ByLayer
62
256
370
27
100
AcDbLine
10
11.5720
20
5.0119
11
12.1044
21
4.4795
0
LINE
5
153
100
AcDbEntity
8
bottom_silk
6
ByLayer
62
256
370
27
100
AcDbLine
10
12.1044
20
4.4795
11
12.1044
21
7.1414
0
LINE
5
154
100
AcDbEntity
8
bottom_silk
6
ByLayer
62
256
370
27
100
AcDbLine
10
11.5720
20
7.1414
11
12.5702
21
7.1414
0
LINE
5
155
100
AcDbEntity
8
bottom_silk
6
ByLayer
62
256
370
20
100
AcDbLine
10
5.0320
20
22.6696
11
5.0320
21
23.3300
0
LINE
5
156
100
AcDbEntity
8
bottom_silk
6
ByLayer
62
256
370
20
100
AcDbLine
10
5.3876
20
22.3140
11
5.0320
21
22.6696
0
LINE
5
157
100
AcDbEntity
8
bottom_silk
6
ByLayer
62
256
370
20
100
AcDbLine
10
6.7084
20
22.3140
11
5.3876
21
22.3140
0
LINE
5
158
100
AcDbEntity
8
bottom_silk
6
ByLayer
62
256
370
20
100
AcDbLine
10
6.7084
20
22.3140
11
7.0640
21
22.6696
0
LINE
5
159
100
AcDbEntity
8
bottom_silk
6
ByLayer
62
256
370
20
100
AcDbLine
10
7.0640
20
22.6696
11
7.0640
21
23.3300
0
LINE
5
160
100
AcDbEntity
8
bottom_silk
6
ByLayer
62
256
370
20
100
AcDbLine
10
7.0640
20
23.9396
11
5.0320
21
23.9396
0
LINE
5
161
100
AcDbEntity
8
bottom_silk
6
ByLayer
62
256
370
20
100
AcDbLine
10
7.0640
20
25.2096
11
5.0320
21
25.2096
0
LINE
5
162
100
AcDbEntity
8
bottom_silk
6
ByLayer
62
256
370
20
100
AcDbLine
10
6.0480
20
23.9396
11
6.0480
21
25.2096
0
LINE
5
163
100
AcDbEntity
8
bottom_silk
6
ByLayer
62
256
370
20
100
AcDbLine
10
5.0320
20
27.0892
11
5.0320
21
27.7496
0
LINE
5
164
100
AcDbEntity
8
bottom_silk
6
ByLayer
62
256
370
20
100
AcDbLine
10
5.3876
20
26.7336
11
5.0320
21
27.0892
0
LINE
5
165
100
AcDbEntity
8
bottom_silk
6
ByLayer
62
256
370
20
100
AcDbLine
10
6.7084
20
26.7336
11
5.3876
21
26.7336
0
LINE
5
166
100
AcDbEntity
8
bottom_silk
6
ByLayer
62
256
370
20
100
AcDbLine
10
6.7084
20
26.7336
11
7.0640
21
27.0892
0
LINE
5
167
100
AcDbEntity
8
bottom_silk
6
ByLayer
62
256
370
20
100
AcDbLine
10
7.0640
20
27.0892
11
7.0640
21
27.7496
0
LINE
5
168
100
AcDbEntity
8
bottom_silk
6
ByLayer
62
256
370
20
100
AcDbLine
10
7.0640
20
28.3592
11
5.2860
21
28.3592
0
LINE
5
169
100
AcDbEntity
8
bottom_silk
6
ByLayer
62
256
370
20
100
AcDbLine
10
5.2860
20
28.3592
11
5.0320
21
28.6132
0
LINE
5
170
100
AcDbEntity
8
bottom_silk
6
ByLayer
62
256
370
20
100
AcDbLine
10
5.0320
20
28.6132
11
5.0320
21
29.1212
0
LINE
5
171
100
AcDbEntity
8
bottom_silk
6
ByLayer
62
256
370
20
100
AcDbLine
10
5.0320
20
29.1212
11
5.2860
21
29.3752
0
LINE
5
172
100
AcDbEntity
8
bottom_silk
6
ByLayer
62
256
370
20
100
AcDbLine
10
7.0640
20
29.3752
11
5.2860
21
29.3752
0
LINE
5
173
100
AcDbEntity
8
bottom_silk
6
ByLayer
62
256
370
20
100
AcDbLine
10
7.0640
20
29.9848
11
7.0640
21
31.0008
0
LINE
5
174
100
AcDbEntity
8
bottom_silk
6
ByLayer
62
256
370
20
100
AcDbLine
10
7.0640
20
31.0008
11
6.8100
21
31.2548
0
LINE
5
175
100
AcDbEntity
8
bottom_silk
6
ByLayer
62
256
370
20
100
AcDbLine
10
6.8100
20
31.2548
11
6.3020
21
31.2548
0
LINE
5
176
100
AcDbEntity
8
bottom_silk
6
ByLayer
62
256
370
20
100
AcDbLine
10
6.0480
20
31.0008
11
6.3020
21
31.2548
0
LINE
5
177
100
AcDbEntity
8
bottom_silk
6
ByLayer
62
256
370
20
100
AcDbLine
10
6.0480
20
30.2388
11
6.0480
21
31.0008
0
LINE
5
178
100
AcDbEntity
8
bottom_silk
6
ByLayer
62
256
370
20
100
AcDbLine
10
7.0640
20
30.2388
11
5.0320
21
30.2388
0
LINE
5
179
100
AcDbEntity
8
bottom_silk
6
ByLayer
62
256
370
20
100
AcDbLine
10
6.0480
20
30.6452
11
5.0320
21
31.2548
0
LINE
5
180
100
AcDbEntity
8
bottom_silk
6
ByLayer
62
256
370
20
100
AcDbLine
10
7.0640
20
31.8644
11
7.0640
21
32.8804
0
LINE
5
181
100
AcDbEntity
8
bottom_silk
6
ByLayer
62
256
370
20
100
AcDbLine
10
7.0640
20
32.8804
11
6.8100
21
33.1344
0
LINE
5
182
100
AcDbEntity
8
bottom_silk
6
ByLayer
62
256
370
20
100
AcDbLine
10
6.8100
20
33.1344
11
6.3020
21
33.1344
0
LINE
5
183
100
AcDbEntity
8
bottom_silk
6
ByLayer
62
256
370
20
100
AcDbLine
10
6.0480
20
32.8804
11
6.3020
21
33.1344
0
LINE
5
184
100
AcDbEntity
8
bottom_silk
6
ByLayer
62
256
370
20
100
AcDbLine
10
6.0480
20
32.1184
11
6.0480
21
32.8804
0
LINE
5
185
100
AcDbEntity
8
bottom_silk
6
ByLayer
62
256
370
20
100
AcDbLine
10
7.0640
20
32.1184
11
5.0320
21
32.1184
0
LINE
5
186
100
AcDbEntity
8
bottom_silk
6
ByLayer
62
256
370
20
100
AcDbLine
10
6.0480
20
32.5248
11
5.0320
21
33.1344
0
LINE
5
187
100
AcDbEntity
8
bottom_silk
6
ByLayer
62
256
370
20
100
AcDbLine
10
5.2860
20
34.6584
11
5.0320
21
34.9124
0
LINE
5
188
100
AcDbEntity
8
bottom_silk
6
ByLayer
62
256
370
20
100
AcDbLine
10
6.8100
20
34.6584
11
7.0640
21
34.9124
0
LINE
5
189
100
AcDbEntity
8
bottom_silk
6
ByLayer
62
256
370
20
100
AcDbLine
10
6.8100
20
34.6584
11
5.2860
21
34.6584
0
LINE
5
190
100
AcDbEntity
8
bottom_silk
6
ByLayer
62
256
370
20
100
AcDbLine
10
5.7940
20
35.7760
11
5.0320
21
35.7760
0
LINE
5
191
100
AcDbEntity
8
bottom_silk
6
ByLayer
62
256
370
20
100
AcDbLine
10
5.7940
20
35.7760
11
6.0480
21
36.0300
0
LINE
5
192
100
AcDbEntity
8
bottom_silk
6
ByLayer
62
256
370
20
100
AcDbLine
10
6.0480
20
36.0300
11
6.0480
21
36.2840
0
LINE
5
193
100
AcDbEntity
8
bottom_silk
6
ByLayer
62
256
370
20
100
AcDbLine
10
6.0480
20
36.2840
11
5.7940
21
36.5380
0
LINE
5
194
100
AcDbEntity
8
bottom_silk
6
ByLayer
62
256
370
20
100
AcDbLine
10
5.7940
20
36.5380
11
5.0320
21
36.5380
0
LINE
5
195
100
AcDbEntity
8
bottom_silk
6
ByLayer
62
256
370
20
100
AcDbLine
10
6.0480
20
35.5220
11
5.7940
21
35.7760
0
LINE
5
196
100
AcDbEntity
8
bottom_silk
6
ByLayer
62
256
370
20
100
AcDbLine
10
6.5560
20
37.1476
11
5.0320
21
37.1476
0
LINE
5
197
100
AcDbEntity
8
bottom_silk
6
ByLayer
62
256
370
20
100
AcDbLine
10
6.5560
20
37.1476
11
7.0640
21
37.5032
0
LINE
5
198
100
AcDbEntity
8
bottom_silk
6
ByLayer
62
256
370
20
100
AcDbLine
10
7.0640
20
37.5032
11
7.0640
21
38.0620
0
LINE
5
199
100
AcDbEntity
8
bottom_silk
6
ByLayer
62
256
370
20
100
AcDbLine
10
7.0640
20
38.0620
11
6.5560
21
38.4176
0
LINE
5
200
100
AcDbEntity
8
bottom_silk
6
ByLayer
62
256
370
20
100
AcDbLine
10
6.5560
20
38.4176
11
5.0320
21
38.4176
0
LINE
5
201
100
AcDbEntity
8
bottom_silk
6
ByLayer
62
256
370
20
100
AcDbLine
10
6.0480
20
37.1476
11
6.0480
21
38.4176
0
LINE
5
202
100
AcDbEntity
8
bottom_silk
6
ByLayer
62
256
370
20
100
AcDbLine
10
7.0640
20
39.0272
11
6.8100
21
39.2812
0
LINE
5
203
100
AcDbEntity
8
bottom_silk
6
ByLayer
62
256
370
20
100
AcDbLine
10
6.8100
20
39.2812
11
5.2860
21
39.2812
0
LINE
5
204
100
AcDbEntity
8
bottom_silk
6
ByLayer
62
256
370
20
100
AcDbLine
10
5.0320
20
39.0272
11
5.2860
21
39.2812
0
LINE
5
205
100
AcDbEntity
8
bottom_silk
6
ByLayer
62
256
370
18
100
AcDbLine
10
5.2367
20
22.3140
11
3.8956
21
22.6493
0
LINE
5
206
100
AcDbEntity
8
bottom_silk
6
ByLayer
62
256
370
18
100
AcDbLine
10
3.8956
20
22.6493
11
5.2367
21
22.9846
0
LINE
5
207
100
AcDbEntity
8
bottom_silk
6
ByLayer
62
256
370
18
100
AcDbLine
10
5.2367
20
24.0575
11
5.0691
21
24.2251
0
LINE
5
208
100
AcDbEntity
8
bottom_silk
6
ByLayer
62
256
370
18
100
AcDbLine
10
5.2367
20
23.5545
11
5.2367
21
24.0575
0
LINE
5
209
100
AcDbEntity
8
bottom_silk
6
ByLayer
62
256
370
18
100
AcDbLine
10
5.0691
20
23.3869
11
5.2367
21
23.5545
0
LINE
5
210
100
AcDbEntity
8
bottom_silk
6
ByLayer
62
256
370
18
100
AcDbLine
10
5.0691
20
23.3869
11
4.0632
21
23.3869
0
LINE
5
211
100
AcDbEntity
8
bottom_silk
6
ByLayer
62
256
370
18
100
AcDbLine
10
4.0632
20
23.3869
11
3.8956
21
23.5545
0
LINE
5
212
100
AcDbEntity
8
bottom_silk
6
ByLayer
62
256
370
18
100
AcDbLine
10
3.8956
20
23.5545
11
3.8956
21
24.0575
0
LINE
5
213
100
AcDbEntity
8
bottom_silk
6
ByLayer
62
256
370
18
100
AcDbLine
10
3.8956
20
24.0575
11
4.0632
21
24.2251
0
LINE
5
214
100
AcDbEntity
8
bottom_silk
6
ByLayer
62
256
370
18
100
AcDbLine
10
4.3985
20
24.2251
11
4.0632
21
24.2251
0
LINE
5
215
100
AcDbEntity
8
bottom_silk
6
ByLayer
62
256
370
18
100
AcDbLine
10
4.5662
20
24.0575
11
4.3985
21
24.2251
0
LINE
5
216
100
AcDbEntity
8
bottom_silk
6
ByLayer
62
256
370
18
100
AcDbLine
10
4.5662
20
23.7222
11
4.5662
21
24.0575
0
LINE
5
217
100
AcDbEntity
8
bottom_silk
6
ByLayer
62
256
370
18
100
AcDbLine
10
5.2367
20
25.2980
11
5.0691
21
25.4656
0
LINE
5
218
100
AcDbEntity
8
bottom_silk
6
ByLayer
62
256
370
18
100
AcDbLine
10
5.2367
20
24.7951
11
5.2367
21
25.2980
0
LINE
5
219
100
AcDbEntity
8
bottom_silk
6
ByLayer
62
256
370
18
100
AcDbLine
10
5.0691
20
24.6274
11
5.2367
21
24.7951
0
LINE
5
220
100
AcDbEntity
8
bottom_silk
6
ByLayer
62
256
370
18
100
AcDbLine
10
5.0691
20
24.6274
11
4.7338
21
24.6274
0
LINE
5
221
100
AcDbEntity
8
bottom_silk
6
ByLayer
62
256
370
18
100
AcDbLine
10
4.7338
20
24.6274
11
4.5662
21
24.7951
0
LINE
5
222
100
AcDbEntity
8
bottom_silk
6
ByLayer
62
256
370
18
100
AcDbLine
10
4.5662
20
24.7951
11
4.5662
21
25.2980
0
LINE
5
223
100
AcDbEntity
8
bottom_silk
6
ByLayer
62
256
370
18
100
AcDbLine
10
4.5662
20
25.2980
11
4.3985
21
25.4656
0
LINE
5
224
100
AcDbEntity
8
bottom_silk
6
ByLayer
62
256
370
18
100
AcDbLine
10
4.3985
20
25.4656
11
4.0632
21
25.4656
0
LINE
5
225
100
AcDbEntity
8
bottom_silk
6
ByLayer
62
256
370
18
100
AcDbLine
10
3.8956
20
25.2980
11
4.0632
21
25.4656
0
LINE
5
226
100
AcDbEntity
8
bottom_silk
6
ByLayer
62
256
370
18
100
AcDbLine
10
3.8956
20
24.7951
11
3.8956
21
25.2980
0
LINE
5
227
100
AcDbEntity
8
bottom_silk
6
ByLayer
62
256
370
18
100
AcDbLine
10
4.0632
20
24.6274
11
3.8956
21
24.7951
0
LINE
5
228
100
AcDbEntity
8
bottom_silk
6
ByLayer
62
256
370
18
100
AcDbLine
10
4.7338
20
25.8680
11
4.7338
21
26.5385
0
LINE
5
229
100
AcDbEntity
8
bottom_silk
6
ByLayer
62
256
370
18
100
AcDbLine
10
4.3985
20
25.8680
11
4.3985
21
26.5385
0
LINE
5
230
100
AcDbEntity
8
bottom_silk
6
ByLayer
62
256
370
18
100
AcDbLine
10
5.2367
20
26.9409
11
3.8956
21
27.2761
0
LINE
5
231
100
AcDbEntity
8
bottom_silk
6
ByLayer
62
256
370
18
100
AcDbLine
10
3.8956
20
27.2761
11
5.2367
21
27.6114
0
LINE
5
232
100
AcDbEntity
8
bottom_silk
6
ByLayer
62
256
370
18
100
AcDbLine
10
5.2367
20
28.1814
11
3.8956
21
28.1814
0
LINE
5
233
100
AcDbEntity
8
bottom_silk
6
ByLayer
62
256
370
18
100
AcDbLine
10
5.2367
20
28.6173
11
5.0020
21
28.8520
0
LINE
5
234
100
AcDbEntity
8
bottom_silk
6
ByLayer
62
256
370
18
100
AcDbLine
10
5.0020
20
28.8520
11
4.1303
21
28.8520
0
LINE
5
235
100
AcDbEntity
8
bottom_silk
6
ByLayer
62
256
370
18
100
AcDbLine
10
3.8956
20
28.6173
11
4.1303
21
28.8520
0
LINE
5
236
100
AcDbEntity
8
bottom_silk
6
ByLayer
62
256
370
18
100
AcDbLine
10
3.8956
20
28.0138
11
3.8956
21
28.6173
0
LINE
5
237
100
AcDbEntity
8
bottom_silk
6
ByLayer
62
256
370
18
100
AcDbLine
10
5.2367
20
28.0138
11
5.2367
21
28.6173
0
LINE
5
238
100
AcDbEntity
8
bottom_silk
6
ByLayer
62
256
370
18
100
AcDbLine
10
5.2367
20
29.9249
11
5.0691
21
30.0925
0
LINE
5
239
100
AcDbEntity
8
bottom_silk
6
ByLayer
62
256
370
18
100
AcDbLine
10
5.2367
20
29.4219
11
5.2367
21
29.9249
0
LINE
5
240
100
AcDbEntity
8
bottom_silk
6
ByLayer
62
256
370
18
100
AcDbLine
10
5.0691
20
29.2543
11
5.2367
21
29.4219
0
LINE
5
241
100
AcDbEntity
8
bottom_silk
6
ByLayer
62
256
370
18
100
AcDbLine
10
5.0691
20
29.2543
11
4.7338
21
29.2543
0
LINE
5
242
100
AcDbEntity
8
bottom_silk
6
ByLayer
62
256
370
18
100
AcDbLine
10
4.7338
20
29.2543
11
4.5662
21
29.4219
0
LINE
5
243
100
AcDbEntity
8
bottom_silk
6
ByLayer
62
256
370
18
100
AcDbLine
10
4.5662
20
29.4219
11
4.5662
21
29.9249
0
LINE
5
244
100
AcDbEntity
8
bottom_silk
6
ByLayer
62
256
370
18
100
AcDbLine
10
4.5662
20
29.9249
11
4.3985
21
30.0925
0
LINE
5
245
100
AcDbEntity
8
bottom_silk
6
ByLayer
62
256
370
18
100
AcDbLine
10
4.3985
20
30.0925
11
4.0632
21
30.0925
0
LINE
5
246
100
AcDbEntity
8
bottom_silk
6
ByLayer
62
256
370
18
100
AcDbLine
10
3.8956
20
29.9249
11
4.0632
21
30.0925
0
LINE
5
247
100
AcDbEntity
8
bottom_silk
6
ByLayer
62
256
370
18
100
AcDbLine
10
3.8956
20
29.4219
11
3.8956
21
29.9249
0
LINE
5
248
100
AcDbEntity
8
bottom_silk
6
ByLayer
62
256
370
18
100
AcDbLine
10
4.0632
20
29.2543
11
3.8956
21
29.4219
0
LINE
5
249
100
AcDbEntity
8
bottom_silk
6
ByLayer
62
256
370
18
100
AcDbLine
10
4.7338
20
30.4948
11
4.7338
21
31.1654
0
LINE
5
250
100
AcDbEntity
8
bottom_silk
6
ByLayer
62
256
370
18
100
AcDbLine
10
4.3985
20
30.4948
11
4.3985
21
31.1654
0
LINE
5
251
100
AcDbEntity
8
bottom_silk
6
ByLayer
62
256
370
18
100
AcDbLine
10
4.5662
20
32.1712
11
4.5662
21
32.8418
0
LINE
5
252
100
AcDbEntity
8
bottom_silk
6
ByLayer
62
256
370
18
100
AcDbLine
10
4.3985
20
33.2441
11
5.2367
21
33.9147
0
LINE
5
253
100
AcDbEntity
8
bottom_silk
6
ByLayer
62
256
370
18
100
AcDbLine
10
4.3985
20
33.2441
11
4.3985
21
34.0823
0
LINE
5
254
100
AcDbEntity
8
bottom_silk
6
ByLayer
62
256
370
18
100
AcDbLine
10
5.2367
20
33.9147
11
3.8956
21
33.9147
0
LINE
5
255
100
AcDbEntity
8
bottom_silk
6
ByLayer
62
256
370
18
100
AcDbLine
10
5.2367
20
34.4847
11
3.8956
21
34.8200
0
LINE
5
256
100
AcDbEntity
8
bottom_silk
6
ByLayer
62
256
370
18
100
AcDbLine
10
3.8956
20
34.8200
11
5.2367
21
35.1552
0
HATCH
5
257
100
AcDbEntity
8
bottom_copper
6
ByLayer
62
256
370
0
100
AcDbHatch
10
0
20
0
30
0
210
0
220
0
230
1
2
SOLID
70
1
71
0
91
1
92
0
93
65
72
1
10
34.6170
20
26.0190
11
34.6170
21
2.5240
72
1
10
34.6170
20
2.5240
11
3.5020
21
2.5240
72
1
10
3.5020
20
2.5240
11
3.5020
21
7.5080
72
1
10
3.5020
20
7.5080
11
3.5079
21
7.5055
72
1
10
3.5079
20
7.5055
11
3.5662
21
7.4915
72
1
10
3.5662
20
7.4915
11
3.6260
21
7.4868
72
1
10
3.6260
20
7.4868
11
3.6409
21
7.4880
72
1
10
3.6409
20
7.4880
11
5.3891
21
7.4880
72
1
10
5.3891
20
7.4880
11
5.4040
21
7.4868
72
1
10
5.4040
20
7.4868
11
5.4637
21
7.4915
72
1
10
5.4637
20
7.4915
11
5.4638
21
7.4915
72
1
10
5.4638
20
7.4915
11
5.5221
21
7.5055
72
1
10
5.5221
20
7.5055
11
5.5775
21
7.5285
72
1
10
5.5775
20
7.5285
11
5.6286
21
7.5598
72
1
10
5.6286
20
7.5598
11
5.6742
21
7.5988
72
1
10
5.6742
20
7.5988
11
5.7132
21
7.6444
72
1
10
5.7132
20
7.6444
11
5.7445
21
7.6955
72
1
10
5.7445
20
7.6955
11
5.7675
21
7.7509
72
1
10
5.7675
20
7.7509
11
5.7815
21
7.8092
72
1
10
5.7815
20
7.8092
11
5.7862
21
7.8690
72
1
10
5.7862
20
7.8690
11
5.7850
21
7.8839
72
1
10
5.7850
20
7.8839
11
5.7850
21
8.8596
72
1
10
5.7850
20
8.8596
11
6.1406
21
8.8596
72
1
10
6.1406
20
8.8596
11
6.1884
21
8.8624
72
1
10
6.1884
20
8.8624
11
6.2351
21
8.8736
72
1
10
6.2351
20
8.8736
11
6.2794
21
8.8920
72
1
10
6.2794
20
8.8920
11
6.3203
21
8.9170
72
1
10
6.3203
20
8.9170
11
6.3568
21
8.9482
72
1
10
6.3568
20
8.9482
11
6.3880
21
8.9847
72
1
10
6.3880
20
8.9847
11
6.4130
21
9.0256
72
1
10
6.4130
20
9.0256
11
6.4314
21
9.0699
72
1
10
6.4314
20
9.0699
11
6.4426
21
9.1166
72
1
10
6.4426
20
9.1166
11
6.4454
21
9.1644
72
1
10
6.4454
20
9.1644
11
6.4454
21
9.6216
72
1
10
6.4454
20
9.6216
11
6.4426
21
9.6694
72
1
10
6.4426
20
9.6694
11
6.4314
21
9.7161
72
1
10
6.4314
20
9.7161
11
6.4130
21
9.7604
72
1
10
6.4130
20
9.7604
11
6.3880
21
9.8013
72
1
10
6.3880
20
9.8013
11
6.3568
21
9.8378
72
1
10
6.3568
20
9.8378
11
6.3203
21
9.8689
72
1
10
6.3203
20
9.8689
11
6.2794
21
9.8940
72
1
10
6.2794
20
9.8940
11
6.2351
21
9.9124
72
1
10
6.2351
20
9.9124
11
6.1884
21
9.9236
72
1
10
6.1884
20
9.9236
11
6.1406
21
9.9264
72
1
10
6.1406
20
9.9264
11
5.7850
21
9.9264
72
1
10
5.7850
20
9.9264
11
5.7850
21
10.9021
72
1
10
5.7850
20
10.9021
11
5.7862
21
10.9170
72
1
10
5.7862
20
10.9170
11
5.7815
21
10.9768
72
1
10
5.7815
20
10.9768
11
5.7675
21
11.0351
72
1
10
5.7675
20
11.0351
11
5.7445
21
11.0905
72
1
10
5.7445
20
11.0905
11
5.7132
21
11.1416
72
1
10
5.7132
20
11.1416
11
5.6742
21
11.1872
72
1
10
5.6742
20
11.1872
11
5.6286
21
11.2262
72
1
10
5.6286
20
11.2262
11
5.5775
21
11.2575
72
1
10
5.5775
20
11.2575
11
5.5221
21
11.2805
72
1
10
5.5221
20
11.2805
11
5.4638
21
11.2945
72
1
10
5.4638
20
11.2945
11
5.4040
21
11.2992
72
1
10
5.4040
20
11.2992
11
5.3891
21
11.2980
72
1
10
5.3891
20
11.2980
11
3.6409
21
11.2980
72
1
10
3.6409
20
11.2980
11
3.6260
21
11.2992
72
1
10
3.6260
20
11.2992
11
3.5662
21
11.2945
72
1
10
3.5662
20
11.2945
11
3.5079
21
11.2805
72
1
10
3.5079
20
11.2805
11
3.5020
21
11.2780
72
1
10
3.5020
20
11.2780
11
3.5020
21
26.0190
72
1
10
3.5020
20
26.0190
11
34.6170
21
26.0190
97
0
75
0
76
1
98
0
0
LINE
5
258
100
AcDbEntity
8
bottom_copper
6
ByLayer
62
256
370
0
100
AcDbLine
10
34.6170
20
26.0190
11
34.6170
21
2.5240
0
LINE
5
259
100
AcDbEntity
8
bottom_copper
6
ByLayer
62
256
370
0
100
AcDbLine
10
34.6170
20
2.5240
11
3.5020
21
2.5240
0
LINE
5
260
100
AcDbEntity
8
bottom_copper
6
ByLayer
62
256
370
0
100
AcDbLine
10
3.5020
20
2.5240
11
3.5020
21
7.5080
0
LINE
5
261
100
AcDbEntity
8
bottom_copper
6
ByLayer
62
256
370
0
100
AcDbLine
10
3.5020
20
7.5080
11
3.5079
21
7.5055
0
LINE
5
262
100
AcDbEntity
8
bottom_copper
6
ByLayer
62
256
370
0
100
AcDbLine
10
3.5079
20
7.5055
11
3.5662
21
7.4915
0
LINE
5
263
100
AcDbEntity
8
bottom_copper
6
ByLayer
62
256
370
0
100
AcDbLine
10
3.5662
20
7.4915
11
3.6260
21
7.4868
0
LINE
5
264
100
AcDbEntity
8
bottom_copper
6
ByLayer
62
256
370
0
100
AcDbLine
10
3.6260
20
7.4868
11
3.6409
21
7.4880
0
LINE
5
265
100
AcDbEntity
8
bottom_copper
6
ByLayer
62
256
370
0
100
AcDbLine
10
3.6409
20
7.4880
11
5.3891
21
7.4880
0
LINE
5
266
100
AcDbEntity
8
bottom_copper
6
ByLayer
62
256
370
0
100
AcDbLine
10
5.3891
20
7.4880
11
5.4040
21
7.4868
0
LINE
5
267
100
AcDbEntity
8
bottom_copper
6
ByLayer
62
256
370
0
100
AcDbLine
10
5.4040
20
7.4868
11
5.4637
21
7.4915
0
LINE
5
268
100
AcDbEntity
8
bottom_copper
6
ByLayer
62
256
370
0
100
AcDbLine
10
5.4637
20
7.4915
11
5.4638
21
7.4915
0
LINE
5
269
100
AcDbEntity
8
bottom_copper
6
ByLayer
62
256
370
0
100
AcDbLine
10
5.4638
20
7.4915
11
5.5221
21
7.5055
0
LINE
5
270
100
AcDbEntity
8
bottom_copper
6
ByLayer
62
256
370
0
100
AcDbLine
10
5.5221
20
7.5055
11
5.5775
21
7.5285
0
LINE
5
271
100
AcDbEntity
8
bottom_copper
6
ByLayer
62
256
370
0
100
AcDbLine
10
5.5775
20
7.5285
11
5.6286
21
7.5598
0
LINE
5
272
100
AcDbEntity
8
bottom_copper
6
ByLayer
62
256
370
0
100
AcDbLine
10
5.6286
20
7.5598
11
5.6742
21
7.5988
0
LINE
5
273
100
AcDbEntity
8
bottom_copper
6
ByLayer
62
256
370
0
100
AcDbLine
10
5.6742
20
7.5988
11
5.7132
21
7.6444
0
LINE
5
274
100
AcDbEntity
8
bottom_copper
6
ByLayer
62
256
370
0
100
AcDbLine
10
5.7132
20
7.6444
11
5.7445
21
7.6955
0
LINE
5
275
100
AcDbEntity
8
bottom_copper
6
ByLayer
62
256
370
0
100
AcDbLine
10
5.7445
20
7.6955
11
5.7675
21
7.7509
0
LINE
5
276
100
AcDbEntity
8
bottom_copper
6
ByLayer
62
256
370
0
100
AcDbLine
10
5.7675
20
7.7509
11
5.7815
21
7.8092
0
LINE
5
277
100
AcDbEntity
8
bottom_copper
6
ByLayer
62
256
370
0
100
AcDbLine
10
5.7815
20
7.8092
11
5.7862
21
7.8690
0
LINE
5
278
100
AcDbEntity
8
bottom_copper
6
ByLayer
62
256
370
0
100
AcDbLine
10
5.7862
20
7.8690
11
5.7850
21
7.8839
0
LINE
5
279
100
AcDbEntity
8
bottom_copper
6
ByLayer
62
256
370
0
100
AcDbLine
10
5.7850
20
7.8839
11
5.7850
21
8.8596
0
LINE
5
280
100
AcDbEntity
8
bottom_copper
6
ByLayer
62
256
370
0
100
AcDbLine
10
5.7850
20
8.8596
11
6.1406
21
8.8596
0
LINE
5
281
100
AcDbEntity
8
bottom_copper
6
ByLayer
62
256
370
0
100
AcDbLine
10
6.1406
20
8.8596
11
6.1884
21
8.8624
0
LINE
5
282
100
AcDbEntity
8
bottom_copper
6
ByLayer
62
256
370
0
100
AcDbLine
10
6.1884
20
8.8624
11
6.2351
21
8.8736
0
LINE
5
283
100
AcDbEntity
8
bottom_copper
6
ByLayer
62
256
370
0
100
AcDbLine
10
6.2351
20
8.8736
11
6.2794
21
8.8920
0
LINE
5
284
100
AcDbEntity
8
bottom_copper
6
ByLayer
62
256
370
0
100
AcDbLine
10
6.2794
20
8.8920
11
6.3203
21
8.9170
0
LINE
5
285
100
AcDbEntity
8
bottom_copper
6
ByLayer
62
256
370
0
100
AcDbLine
10
6.3203
20
8.9170
11
6.3568
21
8.9482
0
LINE
5
286
100
AcDbEntity
8
bottom_copper
6
ByLayer
62
256
370
0
100
AcDbLine
10
6.3568
20
8.9482
11
6.3880
21
8.9847
0
LINE
5
287
100
AcDbEntity
8
bottom_copper
6
ByLayer
62
256
370
0
100
AcDbLine
10
6.3880
20
8.9847
11
6.4130
21
9.0256
0
LINE
5
288
100
AcDbEntity
8
bottom_copper
6
ByLayer
62
256
370
0
100
AcDbLine
10
6.4130
20
9.0256
11
6.4314
21
9.0699
0
LINE
5
289
100
AcDbEntity
8
bottom_copper
6
ByLayer
62
256
370
0
100
AcDbLine
10
6.4314
20
9.0699
11
6.4426
21
9.1166
0
LINE
5
290
100
AcDbEntity
8
bottom_copper
6
ByLayer
62
256
370
0
100
AcDbLine
10
6.4426
20
9.1166
11
6.4454
21
9.1644
0
LINE
5
291
100
AcDbEntity
8
bottom_copper
6
ByLayer
62
256
370
0
100
AcDbLine
10
6.4454
20
9.1644
11
6.4454
21
9.6216
0
LINE
5
292
100
AcDbEntity
8
bottom_copper
6
ByLayer
62
256
370
0
100
AcDbLine
10
6.4454
20
9.6216
11
6.4426
21
9.6694
0
LINE
5
293
100
AcDbEntity
8
bottom_copper
6
ByLayer
62
256
370
0
100
AcDbLine
10
6.4426
20
9.6694
11
6.4314
21
9.7161
0
LINE
5
294
100
AcDbEntity
8
bottom_copper
6
ByLayer
62
256
370
0
100
AcDbLine
10
6.4314
20
9.7161
11
6.4130
21
9.7604
0
LINE
5
295
100
AcDbEntity
8
bottom_copper
6
ByLayer
62
256
370
0
100
AcDbLine
10
6.4130
20
9.7604
11
6.3880
21
9.8013
0
LINE
5
296
100
AcDbEntity
8
bottom_copper
6
ByLayer
62
256
370
0
100
AcDbLine
10
6.3880
20
9.8013
11
6.3568
21
9.8378
0
LINE
5
297
100
AcDbEntity
8
bottom_copper
6
ByLayer
62
256
370
0
100
AcDbLine
10
6.3568
20
9.8378
11
6.3203
21
9.8689
0
LINE
5
298
100
AcDbEntity
8
bottom_copper
6
ByLayer
62
256
370
0
100
AcDbLine
10
6.3203
20
9.8689
11
6.2794
21
9.8940
0
LINE
5
299
100
AcDbEntity
8
bottom_copper
6
ByLayer
62
256
370
0
100
AcDbLine
10
6.2794
20
9.8940
11
6.2351
21
9.9124
0
LINE
5
300
100
AcDbEntity
8
bottom_copper
6
ByLayer
62
256
370
0
100
AcDbLine
10
6.2351
20
9.9124
11
6.1884
21
9.9236
0
LINE
5
301
100
AcDbEntity
8
bottom_copper
6
ByLayer
62
256
370
0
100
AcDbLine
10
6.1884
20
9.9236
11
6.1406
21
9.9264
0
LINE
5
302
100
AcDbEntity
8
bottom_copper
6
ByLayer
62
256
370
0
100
AcDbLine
10
6.1406
20
9.9264
11
5.7850
21
9.9264
0
LINE
5
303
100
AcDbEntity
8
bottom_copper
6
ByLayer
62
256
370
0
100
AcDbLine
10
5.7850
20
9.9264
11
5.7850
21
10.9021
0
LINE
5
304
100
AcDbEntity
8
bottom_copper
6
ByLayer
62
256
370
0
100
AcDbLine
10
5.7850
20
10.9021
11
5.7862
21
10.9170
0
LINE
5
305
100
AcDbEntity
8
bottom_copper
6
ByLayer
62
256
370
0
100
AcDbLine
10
5.7862
20
10.9170
11
5.7815
21
10.9768
0
LINE
5
306
100
AcDbEntity
8
bottom_copper
6
ByLayer
62
256
370
0
100
AcDbLine
10
5.7815
20
10.9768
11
5.7675
21
11.0351
0
LINE
5
307
100
AcDbEntity
8
bottom_copper
6
ByLayer
62
256
370
0
100
AcDbLine
10
5.7675
20
11.0351
11
5.7445
21
11.0905
0
LINE
5
308
100
AcDbEntity
8
bottom_copper
6
ByLayer
62
256
370
0
100
AcDbLine
10
5.7445
20
11.0905
11
5.7132
21
11.1416
0
LINE
5
309
100
AcDbEntity
8
bottom_copper
6
ByLayer
62
256
370
0
100
AcDbLine
10
5.7132
20
11.1416
11
5.6742
21
11.1872
0
LINE
5
310
100
AcDbEntity
8
bottom_copper
6
ByLayer
62
256
370
0
100
AcDbLine
10
5.6742
20
11.1872
11
5.6286
21
11.2262
0
LINE
5
311
100
AcDbEntity
8
bottom_copper
6
ByLayer
62
256
370
0
100
AcDbLine
10
5.6286
20
11.2262
11
5.5775
21
11.2575
0
LINE
5
312
100
AcDbEntity
8
bottom_copper
6
ByLayer
62
256
370
0
100
AcDbLine
10
5.5775
20
11.2575
11
5.5221
21
11.2805
0
LINE
5
313
100
AcDbEntity
8
bottom_copper
6
ByLayer
62
256
370
0
100
AcDbLine
10
5.5221
20
11.2805
11
5.4638
21
11.2945
0
LINE
5
314
100
AcDbEntity
8
bottom_copper
6
ByLayer
62
256
370
0
100
AcDbLine
10
5.4638
20
11.2945
11
5.4040
21
11.2992
0
LINE
5
315
100
AcDbEntity
8
bottom_copper
6
ByLayer
62
256
370
0
100
AcDbLine
10
5.4040
20
11.2992
11
5.3891
21
11.2980
0
LINE
5
316
100
AcDbEntity
8
bottom_copper
6
ByLayer
62
256
370
0
100
AcDbLine
10
5.3891
20
11.2980
11
3.6409
21
11.2980
0
LINE
5
317
100
AcDbEntity
8
bottom_copper
6
ByLayer
62
256
370
0
100
AcDbLine
10
3.6409
20
11.2980
11
3.6260
21
11.2992
0
LINE
5
318
100
AcDbEntity
8
bottom_copper
6
ByLayer
62
256
370
0
100
AcDbLine
10
3.6260
20
11.2992
11
3.5662
21
11.2945
0
LINE
5
319
100
AcDbEntity
8
bottom_copper
6
ByLayer
62
256
370
0
100
AcDbLine
10
3.5662
20
11.2945
11
3.5079
21
11.2805
0
LINE
5
320
100
AcDbEntity
8
bottom_copper
6
ByLayer
62
256
370
0
100
AcDbLine
10
3.5079
20
11.2805
11
3.5020
21
11.2780
0
LINE
5
321
100
AcDbEntity
8
bottom_copper
6
ByLayer
62
256
370
0
100
AcDbLine
10
3.5020
20
11.2780
11
3.5020
21
26.0190
0
LINE
5
322
100
AcDbEntity
8
bottom_copper
6
ByLayer
62
256
370
0
100
AcDbLine
10
3.5020
20
26.0190
11
34.6170
21
26.0190
0
LINE
5
323
100
AcDbEntity
8
bottom_copper
6
ByLayer
62
256
370
25
100
AcDbLine
10
3.6260
20
7.8690
11
5.4040
21
7.8690
0
LINE
5
324
100
AcDbEntity
8
bottom_copper
6
ByLayer
62
256
370
25
100
AcDbLine
10
3.6260
20
10.9170
11
3.6260
21
7.8690
0
LINE
5
325
100
AcDbEntity
8
bottom_copper
6
ByLayer
62
256
370
25
100
AcDbLine
10
3.6260
20
10.9170
11
5.4040
21
10.9170
0
LINE
5
326
100
AcDbEntity
8
bottom_copper
6
ByLayer
62
256
370
25
100
AcDbLine
10
5.4040
20
10.9170
11
5.4040
21
7.8690
0
LINE
5
327
100
AcDbEntity
8
bottom_copper
6
ByLayer
62
256
370
25
100
AcDbLine
10
5.4548
20
9.6470
11
5.3532
21
9.5454
0
LINE
5
328
100
AcDbEntity
8
bottom_copper
6
ByLayer
62
256
370
25
100
AcDbLine
10
5.3532
20
9.5454
11
5.3532
21
9.2406
0
LINE
5
329
100
AcDbEntity
8
bottom_copper
6
ByLayer
62
256
370
25
100
AcDbLine
10
5.3532
20
9.2406
11
5.4548
21
9.1390
0
LINE
5
330
100
AcDbEntity
8
bottom_copper
6
ByLayer
62
256
370
25
100
AcDbLine
10
5.4548
20
9.1390
11
5.6580
21
9.1390
0
LINE
5
331
100
AcDbEntity
8
bottom_copper
6
ByLayer
62
256
370
25
100
AcDbLine
10
6.1660
20
9.6470
11
5.6580
21
9.1390
0
LINE
5
332
100
AcDbEntity
8
bottom_copper
6
ByLayer
62
256
370
25
100
AcDbLine
10
6.1660
20
9.6470
11
6.1660
21
9.1390
0
CIRCLE
5
333
100
AcDbEntity
8
bottom_copper
6
ByLayer
62
256
370
0
100
AcDbCircle
10
8.4550
20
25.2570
40
0.4572
0
CIRCLE
5
334
100
AcDbEntity
8
bottom_copper
6
ByLayer
62
256
370
0
100
AcDbCircle
10
11.5030
20
25.2570
40
0.4572
0
CIRCLE
5
335
100
AcDbEntity
8
bottom_copper
6
ByLayer
62
256
370
0
100
AcDbCircle
10
8.4550
20
25.2570
40
0.2540
0
HATCH
5
336
100
AcDbEntity
8
bottom_copper
6
ByLayer
62
256
370
0
100
AcDbHatch
10
0
20
0
30
0
210
0
220
0
230
1
2
SOLID
70
1
71
0
91
1
92
0
93
1
72
2
10
8.4550
20
25.2570
40
0.2540
50
0
51
360
73
1
97
0
75
0
76
1
98
0
0
CIRCLE
5
337
100
AcDbEntity
8
bottom_copper
6
ByLayer
62
256
370
0
100
AcDbCircle
10
11.5030
20
25.2570
40
0.2540
0
HATCH
5
338
100
AcDbEntity
8
bottom_copper
6
ByLayer
62
256
370
0
100
AcDbHatch
10
0
20
0
30
0
210
0
220
0
230
1
2
SOLID
70
1
71
0
91
1
92
0
93
1
72
2
10
11.5030
20
25.2570
40
0.2540
50
0
51
360
73
1
97
0
75
0
76
1
98
0
0
LINE
5
339
100
AcDbEntity
8
top_copper
6
ByLayer
62
256
370
25
100
AcDbLine
10
11.4268
20
22.8948
11
12.2650
21
23.7330
0
LINE
5
340
100
AcDbEntity
8
top_copper
6
ByLayer
62
256
370
25
100
AcDbLine
10
12.2650
20
23.7330
11
12.2650
21
24.2410
0
LINE
5
341
100
AcDbEntity
8
top_copper
6
ByLayer
62
256
370
25
100
AcDbLine
10
12.2650
20
24.2410
11
13.0270
21
25.0030
0
LINE
5
342
100
AcDbEntity
8
top_copper
6
ByLayer
62
256
370
25
100
AcDbLine
10
14.4240
20
23.9870
11
17.3450
21
23.9870
0
LINE
5
343
100
AcDbEntity
8
top_copper
6
ByLayer
62
256
370
25
100
AcDbLine
10
17.3450
20
23.9870
11
18.1070
21
23.2250
0
LINE
5
344
100
AcDbEntity
8
top_copper
6
ByLayer
62
256
370
25
100
AcDbLine
10
18.1070
20
23.2250
11
19.3552
21
23.2250
0
LINE
5
345
100
AcDbEntity
8
top_copper
6
ByLayer
62
256
370
25
100
AcDbLine
10
13.0270
20
25.0030
11
16.4814
21
25.0030
0
LINE
5
346
100
AcDbEntity
8
top_copper
6
ByLayer
62
256
370
25
100
AcDbLine
10
16.4814
20
25.0030
11
16.5068
21
24.9776
0
LINE
5
347
100
AcDbEntity
8
top_copper
6
ByLayer
62
256
370
64
100
AcDbLine
10
8.4550
20
25.2570
11
9.3440
21
25.2570
0
LINE
5
348
100
AcDbEntity
8
top_copper
6
ByLayer
62
256
370
64
100
AcDbLine
10
9.3440
20
25.2570
11
9.9790
21
24.6220
0
LINE
5
349
100
AcDbEntity
8
top_copper
6
ByLayer
62
256
370
64
100
AcDbLine
10
11.5030
20
25.2570
11
10.6140
21
25.2570
0
LINE
5
350
100
AcDbEntity
8
top_copper
6
ByLayer
62
256
370
64
100
AcDbLine
10
10.6140
20
25.2570
11
9.9790
21
24.6220
0
LINE
5
351
100
AcDbEntity
8
top_copper
6
ByLayer
62
256
370
25
100
AcDbLine
10
19.3552
20
23.2250
11
19.3770
21
23.2032
0
LINE
5
352
100
AcDbEntity
8
top_copper
6
ByLayer
62
256
370
25
100
AcDbLine
10
19.3770
20
25.0030
11
22.0440
21
25.0030
0
LINE
5
353
100
AcDbEntity
8
top_copper
6
ByLayer
62
256
370
25
100
AcDbLine
10
22.0440
20
23.2032
11
24.4570
21
23.2032
0
LINE
5
354
100
AcDbEntity
8
top_copper
6
ByLayer
62
256
370
25
100
AcDbLine
10
24.4570
20
25.0030
11
26.1080
21
25.0030
0
LINE
5
355
100
AcDbEntity
8
top_copper
6
ByLayer
62
256
370
25
100
AcDbLine
10
26.1080
20
25.0030
11
27.1240
21
23.9870
0
LINE
5
356
100
AcDbEntity
8
top_copper
6
ByLayer
62
256
370
25
100
AcDbLine
10
32.8390
20
23.9870
11
32.8390
21
21.9550
0
LINE
5
357
100
AcDbEntity
8
top_copper
6
ByLayer
62
256
370
25
100
AcDbLine
10
32.8390
20
21.9550
11
31.8230
21
20.9390
0
LINE
5
358
100
AcDbEntity
8
top_copper
6
ByLayer
62
256
370
25
100
AcDbLine
10
32.8390
20
18.0180
11
32.8390
21
15.9860
0
LINE
5
359
100
AcDbEntity
8
top_copper
6
ByLayer
62
256
370
25
100
AcDbLine
10
32.8390
20
15.9860
11
31.8230
21
14.9700
0
LINE
5
360
100
AcDbEntity
8
top_copper
6
ByLayer
62
256
370
25
100
AcDbLine
10
32.8390
20
12.0490
11
32.8390
21
10.0170
0
LINE
5
361
100
AcDbEntity
8
top_copper
6
ByLayer
62
256
370
25
100
AcDbLine
10
32.8390
20
10.0170
11
31.8230
21
9.0010
0
LINE
5
362
100
AcDbEntity
8
top_copper
6
ByLayer
62
256
370
25
100
AcDbLine
10
32.8390
20
5.9530
11
32.8390
21
3.9210
0
LINE
5
363
100
AcDbEntity
8
top_copper
6
ByLayer
62
256
370
25
100
AcDbLine
10
32.8390
20
3.9210
11
31.8230
21
2.9050
0
LINE
5
364
100
AcDbEntity
8
top_copper
6
ByLayer
62
256
370
25
100
AcDbLine
10
16.3290
20
21.7010
11
11.7570
21
21.7010
0
LINE
5
365
100
AcDbEntity
8
top_copper
6
ByLayer
62
256
370
25
100
AcDbLine
10
12.0110
20
19.1610
11
12.0110
21
20.1770
0
LINE
5
366
100
AcDbEntity
8
top_copper
6
ByLayer
62
256
370
25
100
AcDbLine
10
12.0110
20
20.1770
11
12.7730
21
20.9390
0
LINE
5
367
100
AcDbEntity
8
top_copper
6
ByLayer
62
256
370
25
100
AcDbLine
10
13.7890
20
19.1610
11
16.3544
21
19.1610
0
LINE
5
368
100
AcDbEntity
8
top_copper
6
ByLayer
62
256
370
25
100
AcDbLine
10
16.3290
20
21.7010
11
16.5830
21
21.9550
0
LINE
5
369
100
AcDbEntity
8
top_copper
6
ByLayer
62
256
370
25
100
AcDbLine
10
14.4240
20
18.0180
11
17.3450
21
18.0180
0
LINE
5
370
100
AcDbEntity
8
top_copper
6
ByLayer
62
256
370
25
100
AcDbLine
10
17.3450
20
18.0180
11
18.1070
21
17.2560
0
LINE
5
371
100
AcDbEntity
8
top_copper
6
ByLayer
62
256
370
25
100
AcDbLine
10
16.3544
20
19.1610
11
16.5068
21
19.0086
0
LINE
5
372
100
AcDbEntity
8
top_copper
6
ByLayer
62
256
370
25
100
AcDbLine
10
18.1070
20
17.2560
11
19.3552
21
17.2560
0
LINE
5
373
100
AcDbEntity
8
top_copper
6
ByLayer
62
256
370
25
100
AcDbLine
10
19.3552
20
17.2560
11
19.3770
21
17.2342
0
LINE
5
374
100
AcDbEntity
8
top_copper
6
ByLayer
62
256
370
25
100
AcDbLine
10
19.3770
20
19.0340
11
22.0440
21
19.0340
0
LINE
5
375
100
AcDbEntity
8
top_copper
6
ByLayer
62
256
370
25
100
AcDbLine
10
13.6620
20
14.9700
11
13.5350
21
14.8430
0
LINE
5
376
100
AcDbEntity
8
top_copper
6
ByLayer
62
256
370
25
100
AcDbLine
10
22.0440
20
17.2342
11
24.4570
21
17.2342
0
LINE
5
377
100
AcDbEntity
8
top_copper
6
ByLayer
62
256
370
25
100
AcDbLine
10
31.8230
20
14.9700
11
13.6620
21
14.9700
0
LINE
5
378
100
AcDbEntity
8
top_copper
6
ByLayer
62
256
370
25
100
AcDbLine
10
31.8230
20
9.0010
11
12.7730
21
9.0010
0
LINE
5
379
100
AcDbEntity
8
top_copper
6
ByLayer
62
256
370
25
100
AcDbLine
10
15.7324
20
13.8140
11
16.5068
21
13.0396
0
LINE
5
380
100
AcDbEntity
8
top_copper
6
ByLayer
62
256
370
25
100
AcDbLine
10
12.7730
20
9.0010
11
11.5030
21
10.2710
0
LINE
5
381
100
AcDbEntity
8
top_copper
6
ByLayer
62
256
370
25
100
AcDbLine
10
11.5030
20
10.2710
11
11.5030
21
11.2870
0
LINE
5
382
100
AcDbEntity
8
top_copper
6
ByLayer
62
256
370
25
100
AcDbLine
10
11.5030
20
11.2870
11
10.9950
21
11.7950
0
LINE
5
383
100
AcDbEntity
8
top_copper
6
ByLayer
62
256
370
25
100
AcDbLine
10
10.7410
20
10.0170
11
10.7410
21
10.5250
0
LINE
5
384
100
AcDbEntity
8
top_copper
6
ByLayer
62
256
370
25
100
AcDbLine
10
10.7410
20
10.5250
11
10.4870
21
10.7790
0
LINE
5
385
100
AcDbEntity
8
top_copper
6
ByLayer
62
256
370
25
100
AcDbLine
10
24.4570
20
19.0340
11
26.1080
21
19.0340
0
LINE
5
386
100
AcDbEntity
8
top_copper
6
ByLayer
62
256
370
25
100
AcDbLine
10
31.8230
20
20.9390
11
12.7730
21
20.9390
0
LINE
5
387
100
AcDbEntity
8
top_copper
6
ByLayer
62
256
370
25
100
AcDbLine
10
26.1080
20
19.0340
11
27.1240
21
18.0180
0
LINE
5
388
100
AcDbEntity
8
top_copper
6
ByLayer
62
256
370
25
100
AcDbLine
10
9.0220
20
18.8140
11
10.3940
21
18.8140
0
LINE
5
389
100
AcDbEntity
8
top_copper
6
ByLayer
62
256
370
25
100
AcDbLine
10
7.6930
20
20.6850
11
9.2170
21
20.6850
0
LINE
5
390
100
AcDbEntity
8
top_copper
6
ByLayer
62
256
370
25
100
AcDbLine
10
8.7090
20
20.6850
11
8.7090
21
20.1270
0
LINE
5
391
100
AcDbEntity
8
top_copper
6
ByLayer
62
256
370
25
100
AcDbLine
10
8.7090
20
20.1270
11
9.0220
21
19.8140
0
LINE
5
392
100
AcDbEntity
8
top_copper
6
ByLayer
62
256
370
25
100
AcDbLine
10
9.0220
20
17.8140
11
10.6640
21
17.8140
0
LINE
5
393
100
AcDbEntity
8
top_copper
6
ByLayer
62
256
370
25
100
AcDbLine
10
9.0670
20
15.8590
11
9.0220
21
15.8140
0
LINE
5
394
100
AcDbEntity
8
top_copper
6
ByLayer
62
256
370
25
100
AcDbLine
10
9.0220
20
16.8140
11
6.7380
21
16.8140
0
LINE
5
395
100
AcDbEntity
8
top_copper
6
ByLayer
62
256
370
25
100
AcDbLine
10
9.2170
20
16.8140
11
11.4420
21
16.8140
0
LINE
5
396
100
AcDbEntity
8
top_copper
6
ByLayer
62
256
370
25
100
AcDbLine
10
11.4420
20
16.8140
11
13.7890
21
19.1610
0
LINE
5
397
100
AcDbEntity
8
top_copper
6
ByLayer
62
256
370
25
100
AcDbLine
10
13.7890
20
15.8590
11
9.0670
21
15.8590
0
LINE
5
398
100
AcDbEntity
8
top_copper
6
ByLayer
62
256
370
25
100
AcDbLine
10
13.5350
20
14.8430
11
9.0510
21
14.8430
0
LINE
5
399
100
AcDbEntity
8
top_copper
6
ByLayer
62
256
370
25
100
AcDbLine
10
9.0510
20
14.8430
11
9.0220
21
14.8140
0
LINE
5
400
100
AcDbEntity
8
top_copper
6
ByLayer
62
256
370
25
100
AcDbLine
10
11.7570
20
12.8110
11
9.0250
21
12.8110
0
LINE
5
401
100
AcDbEntity
8
top_copper
6
ByLayer
62
256
370
25
100
AcDbLine
10
9.0250
20
12.8110
11
9.0220
21
12.8140
0
LINE
5
402
100
AcDbEntity
8
top_copper
6
ByLayer
62
256
370
25
100
AcDbLine
10
6.6900
20
13.8140
11
15.7324
21
13.8140
0
LINE
5
403
100
AcDbEntity
8
top_copper
6
ByLayer
62
256
370
25
100
AcDbLine
10
10.9950
20
11.7950
11
9.0410
21
11.7950
0
LINE
5
404
100
AcDbEntity
8
top_copper
6
ByLayer
62
256
370
25
100
AcDbLine
10
9.0410
20
11.7950
11
9.0220
21
11.8140
0
LINE
5
405
100
AcDbEntity
8
top_copper
6
ByLayer
62
256
370
25
100
AcDbLine
10
9.0220
20
10.8140
11
7.4040
21
10.8140
0
LINE
5
406
100
AcDbEntity
8
top_copper
6
ByLayer
62
256
370
25
100
AcDbLine
10
9.0570
20
10.7790
11
9.0220
21
10.8140
0
LINE
5
407
100
AcDbEntity
8
top_copper
6
ByLayer
62
256
370
25
100
AcDbLine
10
9.0730
20
9.7630
11
9.0220
21
9.8140
0
LINE
5
408
100
AcDbEntity
8
top_copper
6
ByLayer
62
256
370
25
100
AcDbLine
10
10.4870
20
10.7790
11
9.0570
21
10.7790
0
LINE
5
409
100
AcDbEntity
8
top_copper
6
ByLayer
62
256
370
25
100
AcDbLine
10
10.2330
20
9.7630
11
9.0730
21
9.7630
0
LINE
5
410
100
AcDbEntity
8
top_copper
6
ByLayer
62
256
370
25
100
AcDbLine
10
10.2330
20
8.7470
11
9.0890
21
8.7470
0
LINE
5
411
100
AcDbEntity
8
top_copper
6
ByLayer
62
256
370
25
100
AcDbLine
10
9.0890
20
8.7470
11
9.0220
21
8.8140
0
LINE
5
412
100
AcDbEntity
8
top_copper
6
ByLayer
62
256
370
25
100
AcDbLine
10
5.4040
20
10.9170
11
5.4040
21
7.8690
0
LINE
5
413
100
AcDbEntity
8
top_copper
6
ByLayer
62
256
370
25
100
AcDbLine
10
3.6260
20
10.9170
11
5.4040
21
10.9170
0
LINE
5
414
100
AcDbEntity
8
top_copper
6
ByLayer
62
256
370
25
100
AcDbLine
10
3.6260
20
10.9170
11
3.6260
21
7.8690
0
LINE
5
415
100
AcDbEntity
8
top_copper
6
ByLayer
62
256
370
25
100
AcDbLine
10
3.6260
20
7.8690
11
5.4040
21
7.8690
0
LINE
5
416
100
AcDbEntity
8
top_copper
6
ByLayer
62
256
370
25
100
AcDbLine
10
7.4040
20
10.8140
11
6.6770
21
11.5410
0
LINE
5
417
100
AcDbEntity
8
top_copper
6
ByLayer
62
256
370
25
100
AcDbLine
10
6.6770
20
11.5410
11
6.6770
21
19.6690
0
LINE
5
418
100
AcDbEntity
8
top_copper
6
ByLayer
62
256
370
25
100
AcDbLine
10
6.6770
20
19.6690
11
7.6930
21
20.6850
0
LINE
5
419
100
AcDbEntity
8
top_copper
6
ByLayer
62
256
370
25
100
AcDbLine
10
6.6900
20
13.8140
11
6.6770
21
13.8270
0
LINE
5
420
100
AcDbEntity
8
top_copper
6
ByLayer
62
256
370
25
100
AcDbLine
10
6.7380
20
16.8140
11
6.6770
21
16.8750
0
LINE
5
421
100
AcDbEntity
8
top_copper
6
ByLayer
62
256
370
25
100
AcDbLine
10
10.3940
20
18.8140
11
11.2490
21
19.6690
0
LINE
5
422
100
AcDbEntity
8
top_copper
6
ByLayer
62
256
370
25
100
AcDbLine
10
11.2490
20
19.6690
11
11.2490
21
21.1930
0
LINE
5
423
100
AcDbEntity
8
top_copper
6
ByLayer
62
256
370
25
100
AcDbLine
10
11.2490
20
21.1930
11
11.7570
21
21.7010
0
LINE
5
424
100
AcDbEntity
8
top_copper
6
ByLayer
62
256
370
25
100
AcDbLine
10
10.6640
20
17.8140
11
12.0110
21
19.1610
0
LINE
5
425
100
AcDbEntity
8
top_copper
6
ByLayer
62
256
370
25
100
AcDbLine
10
9.2170
20
20.6850
11
9.9790
21
21.4470
0
LINE
5
426
100
AcDbEntity
8
top_copper
6
ByLayer
62
256
370
25
100
AcDbLine
10
16.5830
20
21.9550
11
16.5830
21
22.9202
0
LINE
5
427
100
AcDbEntity
8
top_copper
6
ByLayer
62
256
370
25
100
AcDbLine
10
16.5830
20
22.9202
11
16.5068
21
22.9964
0
LINE
5
428
100
AcDbEntity
8
top_copper
6
ByLayer
62
256
370
25
100
AcDbLine
10
16.5830
20
16.9512
11
16.5068
21
17.0274
0
LINE
5
429
100
AcDbEntity
8
top_copper
6
ByLayer
62
256
370
25
100
AcDbLine
10
9.9790
20
22.8948
11
9.9790
21
21.4470
0
LINE
5
430
100
AcDbEntity
8
top_copper
6
ByLayer
62
256
370
25
100
AcDbLine
10
9.9790
20
22.8948
11
11.4268
21
22.8948
0
LINE
5
431
100
AcDbEntity
8
top_copper
6
ByLayer
62
256
370
25
100
AcDbLine
10
16.3290
20
15.7320
11
16.5830
21
15.9860
0
LINE
5
432
100
AcDbEntity
8
top_copper
6
ByLayer
62
256
370
25
100
AcDbLine
10
16.5830
20
15.9860
11
16.5830
21
16.9512
0
LINE
5
433
100
AcDbEntity
8
top_copper
6
ByLayer
62
256
370
25
100
AcDbLine
10
14.4240
20
12.0490
11
17.3450
21
12.0490
0
LINE
5
434
100
AcDbEntity
8
top_copper
6
ByLayer
62
256
370
25
100
AcDbLine
10
16.3290
20
15.7320
11
13.9160
21
15.7320
0
LINE
5
435
100
AcDbEntity
8
top_copper
6
ByLayer
62
256
370
25
100
AcDbLine
10
13.9160
20
15.7320
11
13.7890
21
15.8590
0
LINE
5
436
100
AcDbEntity
8
top_copper
6
ByLayer
62
256
370
25
100
AcDbLine
10
16.5830
20
10.9822
11
16.5068
21
11.0584
0
LINE
5
437
100
AcDbEntity
8
top_copper
6
ByLayer
62
256
370
25
100
AcDbLine
10
16.3290
20
9.7630
11
13.0270
21
9.7630
0
LINE
5
438
100
AcDbEntity
8
top_copper
6
ByLayer
62
256
370
25
100
AcDbLine
10
13.0270
20
9.7630
11
12.2650
21
10.5250
0
LINE
5
439
100
AcDbEntity
8
top_copper
6
ByLayer
62
256
370
25
100
AcDbLine
10
12.2650
20
10.5250
11
12.2650
21
12.3030
0
LINE
5
440
100
AcDbEntity
8
top_copper
6
ByLayer
62
256
370
25
100
AcDbLine
10
17.3450
20
12.0490
11
18.1070
21
11.2870
0
LINE
5
441
100
AcDbEntity
8
top_copper
6
ByLayer
62
256
370
25
100
AcDbLine
10
16.3290
20
9.7630
11
16.5830
21
10.0170
0
LINE
5
442
100
AcDbEntity
8
top_copper
6
ByLayer
62
256
370
25
100
AcDbLine
10
16.5830
20
10.0170
11
16.5830
21
10.9822
0
LINE
5
443
100
AcDbEntity
8
top_copper
6
ByLayer
62
256
370
25
100
AcDbLine
10
12.2650
20
12.3030
11
11.7570
21
12.8110
0
LINE
5
444
100
AcDbEntity
8
top_copper
6
ByLayer
62
256
370
25
100
AcDbLine
10
14.4240
20
5.9530
11
17.3450
21
5.9530
0
LINE
5
445
100
AcDbEntity
8
top_copper
6
ByLayer
62
256
370
25
100
AcDbLine
10
16.0750
20
7.9850
11
12.7730
21
7.9850
0
LINE
5
446
100
AcDbEntity
8
top_copper
6
ByLayer
62
256
370
25
100
AcDbLine
10
11.7570
20
4.6830
11
11.7570
21
8.2390
0
LINE
5
447
100
AcDbEntity
8
top_copper
6
ByLayer
62
256
370
25
100
AcDbLine
10
17.3450
20
5.9530
11
18.1070
21
5.1910
0
LINE
5
448
100
AcDbEntity
8
top_copper
6
ByLayer
62
256
370
25
100
AcDbLine
10
16.3290
20
3.6670
11
16.5830
21
3.9210
0
LINE
5
449
100
AcDbEntity
8
top_copper
6
ByLayer
62
256
370
25
100
AcDbLine
10
16.3290
20
3.6670
11
12.7730
21
3.6670
0
LINE
5
450
100
AcDbEntity
8
top_copper
6
ByLayer
62
256
370
25
100
AcDbLine
10
12.7730
20
3.6670
11
11.7570
21
4.6830
0
LINE
5
451
100
AcDbEntity
8
top_copper
6
ByLayer
62
256
370
25
100
AcDbLine
10
16.5830
20
3.9210
11
16.5830
21
4.8862
0
LINE
5
452
100
AcDbEntity
8
top_copper
6
ByLayer
62
256
370
25
100
AcDbLine
10
16.5830
20
4.8862
11
16.5068
21
4.9624
0
LINE
5
453
100
AcDbEntity
8
top_copper
6
ByLayer
62
256
370
25
100
AcDbLine
10
16.5068
20
6.9436
11
16.5068
21
7.5532
0
LINE
5
454
100
AcDbEntity
8
top_copper
6
ByLayer
62
256
370
25
100
AcDbLine
10
16.5068
20
7.5532
11
16.0750
21
7.9850
0
LINE
5
455
100
AcDbEntity
8
top_copper
6
ByLayer
62
256
370
25
100
AcDbLine
10
18.1070
20
11.2870
11
19.3552
21
11.2870
0
LINE
5
456
100
AcDbEntity
8
top_copper
6
ByLayer
62
256
370
25
100
AcDbLine
10
18.1070
20
5.1910
11
19.3552
21
5.1910
0
LINE
5
457
100
AcDbEntity
8
top_copper
6
ByLayer
62
256
370
25
100
AcDbLine
10
19.3552
20
5.1910
11
19.3770
21
5.1692
0
LINE
5
458
100
AcDbEntity
8
top_copper
6
ByLayer
62
256
370
25
100
AcDbLine
10
19.3552
20
11.2870
11
19.3770
21
11.2652
0
LINE
5
459
100
AcDbEntity
8
top_copper
6
ByLayer
62
256
370
25
100
AcDbLine
10
19.3770
20
6.9690
11
22.0440
21
6.9690
0
LINE
5
460
100
AcDbEntity
8
top_copper
6
ByLayer
62
256
370
25
100
AcDbLine
10
19.3770
20
13.0650
11
22.0440
21
13.0650
0
LINE
5
461
100
AcDbEntity
8
top_copper
6
ByLayer
62
256
370
25
100
AcDbLine
10
24.4570
20
13.0650
11
26.1080
21
13.0650
0
LINE
5
462
100
AcDbEntity
8
top_copper
6
ByLayer
62
256
370
25
100
AcDbLine
10
26.1080
20
13.0650
11
27.1240
21
12.0490
0
LINE
5
463
100
AcDbEntity
8
top_copper
6
ByLayer
62
256
370
25
100
AcDbLine
10
22.0440
20
11.2652
11
24.4570
21
11.2652
0
LINE
5
464
100
AcDbEntity
8
top_copper
6
ByLayer
62
256
370
25
100
AcDbLine
10
22.0440
20
5.1692
11
24.4570
21
5.1692
0
LINE
5
465
100
AcDbEntity
8
top_copper
6
ByLayer
62
256
370
25
100
AcDbLine
10
12.2650
20
2.9050
11
10.9950
21
4.1750
0
LINE
5
466
100
AcDbEntity
8
top_copper
6
ByLayer
62
256
370
25
100
AcDbLine
10
12.7730
20
7.9850
11
10.7410
21
10.0170
0
LINE
5
467
100
AcDbEntity
8
top_copper
6
ByLayer
62
256
370
25
100
AcDbLine
10
10.9950
20
4.1750
11
10.9950
21
7.9850
0
LINE
5
468
100
AcDbEntity
8
top_copper
6
ByLayer
62
256
370
25
100
AcDbLine
10
24.4570
20
6.9690
11
26.1080
21
6.9690
0
LINE
5
469
100
AcDbEntity
8
top_copper
6
ByLayer
62
256
370
25
100
AcDbLine
10
26.1080
20
6.9690
11
27.1240
21
5.9530
0
LINE
5
470
100
AcDbEntity
8
top_copper
6
ByLayer
62
256
370
25
100
AcDbLine
10
31.8230
20
2.9050
11
12.2650
21
2.9050
0
LINE
5
471
100
AcDbEntity
8
top_copper
6
ByLayer
62
256
370
25
100
AcDbLine
10
11.7570
20
8.2390
11
10.2330
21
9.7630
0
LINE
5
472
100
AcDbEntity
8
top_copper
6
ByLayer
62
256
370
25
100
AcDbLine
10
10.9950
20
7.9850
11
10.2330
21
8.7470
0
LINE
5
473
100
AcDbEntity
8
top_copper
6
ByLayer
62
256
370
25
100
AcDbLine
10
4.2458
20
8.6310
11
4.0832
21
8.7936
0
LINE
5
474
100
AcDbEntity
8
top_copper
6
ByLayer
62
256
370
25
100
AcDbLine
10
4.0832
20
8.7936
11
4.8960
21
8.7936
0
LINE
5
475
100
AcDbEntity
8
top_copper
6
ByLayer
62
256
370
25
100
AcDbLine
10
4.8960
20
8.6310
11
4.8960
21
8.9358
0
CIRCLE
5
476
100
AcDbEntity
8
top_copper
6
ByLayer
62
256
370
0
100
AcDbCircle
10
8.4550
20
25.2570
40
0.4572
0
HATCH
5
477
100
AcDbEntity
8
top_copper
6
ByLayer
62
256
370
0
100
AcDbHatch
10
0
20
0
30
0
210
0
220
0
230
1
2
SOLID
70
1
71
0
91
1
92
0
93
4
72
1
10
4.3720
20
24.0140
11
4.3720
21
21.3140
72
1
10
4.3720
20
21.3140
11
8.0720
21
21.3140
72
1
10
8.0720
20
21.3140
11
8.0720
21
24.0140
72
1
10
8.0720
20
24.0140
11
4.3720
21
24.0140
97
0
75
0
76
1
98
0
0
LINE
5
478
100
AcDbEntity
8
top_copper
6
ByLayer
62
256
370
0
100
AcDbLine
10
4.3720
20
24.0140
11
4.3720
21
21.3140
0
LINE
5
479
100
AcDbEntity
8
top_copper
6
ByLayer
62
256
370
0
100
AcDbLine
10
4.3720
20
21.3140
11
8.0720
21
21.3140
0
LINE
5
480
100
AcDbEntity
8
top_copper
6
ByLayer
62
256
370
0
100
AcDbLine
10
8.0720
20
21.3140
11
8.0720
21
24.0140
0
LINE
5
481
100
AcDbEntity
8
top_copper
6
ByLayer
62
256
370
0
100
AcDbLine
10
8.0720
20
24.0140
11
4.3720
21
24.0140
0
CIRCLE
5
482
100
AcDbEntity
8
top_copper
6
ByLayer
62
256
370
0
100
AcDbCircle
10
9.9790
20
24.6220
40
0.7620
0
HATCH
5
483
100
AcDbEntity
8
top_copper
6
ByLayer
62
256
370
0
100
AcDbHatch
10
0
20
0
30
0
210
0
220
0
230
1
2
SOLID
70
1
71
0
91
1
92
0
93
4
72
1
10
9.2170
20
23.6568
11
9.2170
21
22.8948
72
1
10
9.2170
20
22.8948
11
10.7410
21
22.8948
72
1
10
10.7410
20
22.8948
11
10.7410
21
23.6568
72
1
10
10.7410
20
23.6568
11
9.2170
21
23.6568
97
0
75
0
76
1
98
0
0
LINE
5
484
100
AcDbEntity
8
top_copper
6
ByLayer
62
256
370
0
100
AcDbLine
10
9.2170
20
23.6568
11
9.2170
21
22.8948
0
LINE
5
485
100
AcDbEntity
8
top_copper
6
ByLayer
62
256
370
0
100
AcDbLine
10
9.2170
20
22.8948
11
10.7410
21
22.8948
0
LINE
5
486
100
AcDbEntity
8
top_copper
6
ByLayer
62
256
370
0
100
AcDbLine
10
10.7410
20
22.8948
11
10.7410
21
23.6568
0
LINE
5
487
100
AcDbEntity
8
top_copper
6
ByLayer
62
256
370
0
100
AcDbLine
10
10.7410
20
23.6568
11
9.2170
21
23.6568
0
CIRCLE
5
488
100
AcDbEntity
8
top_copper
6
ByLayer
62
256
370
0
100
AcDbCircle
10
11.5030
20
25.2570
40
0.4572
0
HATCH
5
489
100
AcDbEntity
8
top_copper
6
ByLayer
62
256
370
0
100
AcDbHatch
10
0
20
0
30
0
210
0
220
0
230
1
2
SOLID
70
1
71
0
91
1
92
0
93
4
72
1
10
8.0720
20
20.1140
11
8.0720
21
19.5140
72
1
10
8.0720
20
19.5140
11
9.9720
21
19.5140
72
1
10
9.9720
20
19.5140
11
9.9720
21
20.1140
72
1
10
9.9720
20
20.1140
11
8.0720
21
20.1140
97
0
75
0
76
1
98
0
0
LINE
5
490
100
AcDbEntity
8
top_copper
6
ByLayer
62
256
370
0
100
AcDbLine
10
8.0720
20
20.1140
11
8.0720
21
19.5140
0
LINE
5
491
100
AcDbEntity
8
top_copper
6
ByLayer
62
256
370
0
100
AcDbLine
10
8.0720
20
19.5140
11
9.9720
21
19.5140
0
LINE
5
492
100
AcDbEntity
8
top_copper
6
ByLayer
62
256
370
0
100
AcDbLine
10
9.9720
20
19.5140
11
9.9720
21
20.1140
0
LINE
5
493
100
AcDbEntity
8
top_copper
6
ByLayer
62
256
370
0
100
AcDbLine
10
9.9720
20
20.1140
11
8.0720
21
20.1140
0
HATCH
5
494
100
AcDbEntity
8
top_copper
6
ByLayer
62
256
370
0
100
AcDbHatch
10
0
20
0
30
0
210
0
220
0
230
1
2
SOLID
70
1
71
0
91
1
92
0
93
4
72
1
10
9.2170
20
24.6220
11
9.2170
21
23.8600
72
1
10
9.2170
20
23.8600
11
10.7410
21
23.8600
72
1
10
10.7410
20
23.8600
11
10.7410
21
24.6220
72
1
10
10.7410
20
24.6220
11
9.2170
21
24.6220
97
0
75
0
76
1
98
0
0
LINE
5
495
100
AcDbEntity
8
top_copper
6
ByLayer
62
256
370
0
100
AcDbLine
10
9.2170
20
24.6220
11
9.2170
21
23.8600
0
LINE
5
496
100
AcDbEntity
8
top_copper
6
ByLayer
62
256
370
0
100
AcDbLine
10
9.2170
20
23.8600
11
10.7410
21
23.8600
0
LINE
5
497
100
AcDbEntity
8
top_copper
6
ByLayer
62
256
370
0
100
AcDbLine
10
10.7410
20
23.8600
11
10.7410
21
24.6220
0
LINE
5
498
100
AcDbEntity
8
top_copper
6
ByLayer
62
256
370
0
100
AcDbLine
10
10.7410
20
24.6220
11
9.2170
21
24.6220
0
CIRCLE
5
499
100
AcDbEntity
8
top_copper
6
ByLayer
62
256
370
0
100
AcDbCircle
10
9.9790
20
22.8948
40
0.7620
0
HATCH
5
500
100
AcDbEntity
8
top_copper
6
ByLayer
62
256
370
0
100
AcDbHatch
10
0
20
0
30
0
210
0
220
0
230
1
2
SOLID
70
1
71
0
91
1
92
0
93
4
72
1
10
28.0765
20
25.6380
11
26.1715
21
25.6380
72
1
10
26.1715
20
25.6380
11
26.1715
21
22.3360
72
1
10
26.1715
20
22.3360
11
28.0765
21
22.3360
72
1
10
28.0765
20
22.3360
11
28.0765
21
25.6380
97
0
75
0
76
1
98
0
0
LINE
5
501
100
AcDbEntity
8
top_copper
6
ByLayer
62
256
370
0
100
AcDbLine
10
28.0765
20
25.6380
11
26.1715
21
25.6380
0
LINE
5
502
100
AcDbEntity
8
top_copper
6
ByLayer
62
256
370
0
100
AcDbLine
10
26.1715
20
25.6380
11
26.1715
21
22.3360
0
LINE
5
503
100
AcDbEntity
8
top_copper
6
ByLayer
62
256
370
0
100
AcDbLine
10
26.1715
20
22.3360
11
28.0765
21
22.3360
0
LINE
5
504
100
AcDbEntity
8
top_copper
6
ByLayer
62
256
370
0
100
AcDbLine
10
28.0765
20
22.3360
11
28.0765
21
25.6380
0
HATCH
5
505
100
AcDbEntity
8
top_copper
6
ByLayer
62
256
370
0
100
AcDbHatch
10
0
20
0
30
0
210
0
220
0
230
1
2
SOLID
70
1
71
0
91
1
92
0
93
4
72
1
10
33.7915
20
25.6380
11
31.8865
21
25.6380
72
1
10
31.8865
20
25.6380
11
31.8865
21
22.3360
72
1
10
31.8865
20
22.3360
11
33.7915
21
22.3360
72
1
10
33.7915
20
22.3360
11
33.7915
21
25.6380
97
0
75
0
76
1
98
0
0
LINE
5
506
100
AcDbEntity
8
top_copper
6
ByLayer
62
256
370
0
100
AcDbLine
10
33.7915
20
25.6380
11
31.8865
21
25.6380
0
LINE
5
507
100
AcDbEntity
8
top_copper
6
ByLayer
62
256
370
0
100
AcDbLine
10
31.8865
20
25.6380
11
31.8865
21
22.3360
0
LINE
5
508
100
AcDbEntity
8
top_copper
6
ByLayer
62
256
370
0
100
AcDbLine
10
31.8865
20
22.3360
11
33.7915
21
22.3360
0
LINE
5
509
100
AcDbEntity
8
top_copper
6
ByLayer
62
256
370
0
100
AcDbLine
10
33.7915
20
22.3360
11
33.7915
21
25.6380
0
HATCH
5
510
100
AcDbEntity
8
top_copper
6
ByLayer
62
256
370
0
100
AcDbHatch
10
0
20
0
30
0
210
0
220
0
230
1
2
SOLID
70
1
71
0
91
1
92
0
93
4
72
1
10
21.2942
20
25.6530
11
21.2942
21
24.3530
72
1
10
21.2942
20
24.3530
11
22.7938
21
24.3530
72
1
10
22.7938
20
24.3530
11
22.7938
21
25.6530
72
1
10
22.7938
20
25.6530
11
21.2942
21
25.6530
97
0
75
0
76
1
98
0
0
LINE
5
511
100
AcDbEntity
8
top_copper
6
ByLayer
62
256
370
0
100
AcDbLine
10
21.2942
20
25.6530
11
21.2942
21
24.3530
0
LINE
5
512
100
AcDbEntity
8
top_copper
6
ByLayer
62
256
370
0
100
AcDbLine
10
21.2942
20
24.3530
11
22.7938
21
24.3530
0
LINE
5
513
100
AcDbEntity
8
top_copper
6
ByLayer
62
256
370
0
100
AcDbLine
10
22.7938
20
24.3530
11
22.7938
21
25.6530
0
LINE
5
514
100
AcDbEntity
8
top_copper
6
ByLayer
62
256
370
0
100
AcDbLine
10
22.7938
20
25.6530
11
21.2942
21
25.6530
0
HATCH
5
515
100
AcDbEntity
8
top_copper
6
ByLayer
62
256
370
0
100
AcDbHatch
10
0
20
0
30
0
210
0
220
0
230
1
2
SOLID
70
1
71
0
91
1
92
0
93
4
72
1
10
21.2942
20
23.8532
11
21.2942
21
22.5532
72
1
10
21.2942
20
22.5532
11
22.7938
21
22.5532
72
1
10
22.7938
20
22.5532
11
22.7938
21
23.8532
72
1
10
22.7938
20
23.8532
11
21.2942
21
23.8532
97
0
75
0
76
1
98
0
0
LINE
5
516
100
AcDbEntity
8
top_copper
6
ByLayer
62
256
370
0
100
AcDbLine
10
21.2942
20
23.8532
11
21.2942
21
22.5532
0
LINE
5
517
100
AcDbEntity
8
top_copper
6
ByLayer
62
256
370
0
100
AcDbLine
10
21.2942
20
22.5532
11
22.7938
21
22.5532
0
LINE
5
518
100
AcDbEntity
8
top_copper
6
ByLayer
62
256
370
0
100
AcDbLine
10
22.7938
20
22.5532
11
22.7938
21
23.8532
0
LINE
5
519
100
AcDbEntity
8
top_copper
6
ByLayer
62
256
370
0
100
AcDbLine
10
22.7938
20
23.8532
11
21.2942
21
23.8532
0
HATCH
5
520
100
AcDbEntity
8
top_copper
6
ByLayer
62
256
370
0
100
AcDbHatch
10
0
20
0
30
0
210
0
220
0
230
1
2
SOLID
70
1
71
0
91
1
92
0
93
4
72
1
10
23.7072
20
23.8532
11
23.7072
21
22.5532
72
1
10
23.7072
20
22.5532
11
25.2068
21
22.5532
72
1
10
25.2068
20
22.5532
11
25.2068
21
23.8532
72
1
10
25.2068
20
23.8532
11
23.7072
21
23.8532
97
0
75
0
76
1
98
0
0
LINE
5
521
100
AcDbEntity
8
top_copper
6
ByLayer
62
256
370
0
100
AcDbLine
10
23.7072
20
23.8532
11
23.7072
21
22.5532
0
LINE
5
522
100
AcDbEntity
8
top_copper
6
ByLayer
62
256
370
0
100
AcDbLine
10
23.7072
20
22.5532
11
25.2068
21
22.5532
0
LINE
5
523
100
AcDbEntity
8
top_copper
6
ByLayer
62
256
370
0
100
AcDbLine
10
25.2068
20
22.5532
11
25.2068
21
23.8532
0
LINE
5
524
100
AcDbEntity
8
top_copper
6
ByLayer
62
256
370
0
100
AcDbLine
10
25.2068
20
23.8532
11
23.7072
21
23.8532
0
HATCH
5
525
100
AcDbEntity
8
top_copper
6
ByLayer
62
256
370
0
100
AcDbHatch
10
0
20
0
30
0
210
0
220
0
230
1
2
SOLID
70
1
71
0
91
1
92
0
93
4
72
1
10
23.7072
20
25.6530
11
23.7072
21
24.3530
72
1
10
23.7072
20
24.3530
11
25.2068
21
24.3530
72
1
10
25.2068
20
24.3530
11
25.2068
21
25.6530
72
1
10
25.2068
20
25.6530
11
23.7072
21
25.6530
97
0
75
0
76
1
98
0
0
LINE
5
526
100
AcDbEntity
8
top_copper
6
ByLayer
62
256
370
0
100
AcDbLine
10
23.7072
20
25.6530
11
23.7072
21
24.3530
0
LINE
5
527
100
AcDbEntity
8
top_copper
6
ByLayer
62
256
370
0
100
AcDbLine
10
23.7072
20
24.3530
11
25.2068
21
24.3530
0
LINE
5
528
100
AcDbEntity
8
top_copper
6
ByLayer
62
256
370
0
100
AcDbLine
10
25.2068
20
24.3530
11
25.2068
21
25.6530
0
LINE
5
529
100
AcDbEntity
8
top_copper
6
ByLayer
62
256
370
0
100
AcDbLine
10
25.2068
20
25.6530
11
23.7072
21
25.6530
0
HATCH
5
530
100
AcDbEntity
8
top_copper
6
ByLayer
62
256
370
0
100
AcDbHatch
10
0
20
0
30
0
210
0
220
0
230
1
2
SOLID
70
1
71
0
91
1
92
0
93
4
72
1
10
18.6272
20
23.8532
11
18.6272
21
22.5532
72
1
10
18.6272
20
22.5532
11
20.1268
21
22.5532
72
1
10
20.1268
20
22.5532
11
20.1268
21
23.8532
72
1
10
20.1268
20
23.8532
11
18.6272
21
23.8532
97
0
75
0
76
1
98
0
0
LINE
5
531
100
AcDbEntity
8
top_copper
6
ByLayer
62
256
370
0
100
AcDbLine
10
18.6272
20
23.8532
11
18.6272
21
22.5532
0
LINE
5
532
100
AcDbEntity
8
top_copper
6
ByLayer
62
256
370
0
100
AcDbLine
10
18.6272
20
22.5532
11
20.1268
21
22.5532
0
LINE
5
533
100
AcDbEntity
8
top_copper
6
ByLayer
62
256
370
0
100
AcDbLine
10
20.1268
20
22.5532
11
20.1268
21
23.8532
0
LINE
5
534
100
AcDbEntity
8
top_copper
6
ByLayer
62
256
370
0
100
AcDbLine
10
20.1268
20
23.8532
11
18.6272
21
23.8532
0
HATCH
5
535
100
AcDbEntity
8
top_copper
6
ByLayer
62
256
370
0
100
AcDbHatch
10
0
20
0
30
0
210
0
220
0
230
1
2
SOLID
70
1
71
0
91
1
92
0
93
4
72
1
10
18.6272
20
25.6530
11
18.6272
21
24.3530
72
1
10
18.6272
20
24.3530
11
20.1268
21
24.3530
72
1
10
20.1268
20
24.3530
11
20.1268
21
25.6530
72
1
10
20.1268
20
25.6530
11
18.6272
21
25.6530
97
0
75
0
76
1
98
0
0
LINE
5
536
100
AcDbEntity
8
top_copper
6
ByLayer
62
256
370
0
100
AcDbLine
10
18.6272
20
25.6530
11
18.6272
21
24.3530
0
LINE
5
537
100
AcDbEntity
8
top_copper
6
ByLayer
62
256
370
0
100
AcDbLine
10
18.6272
20
24.3530
11
20.1268
21
24.3530
0
LINE
5
538
100
AcDbEntity
8
top_copper
6
ByLayer
62
256
370
0
100
AcDbLine
10
20.1268
20
24.3530
11
20.1268
21
25.6530
0
LINE
5
539
100
AcDbEntity
8
top_copper
6
ByLayer
62
256
370
0
100
AcDbLine
10
20.1268
20
25.6530
11
18.6272
21
25.6530
0
HATCH
5
540
100
AcDbEntity
8
top_copper
6
ByLayer
62
256
370
0
100
AcDbHatch
10
0
20
0
30
0
210
0
220
0
230
1
2
SOLID
70
1
71
0
91
1
92
0
93
4
72
1
10
15.9988
20
23.4282
11
15.9988
21
22.5646
72
1
10
15.9988
20
22.5646
11
17.0148
21
22.5646
72
1
10
17.0148
20
22.5646
11
17.0148
21
23.4282
72
1
10
17.0148
20
23.4282
11
15.9988
21
23.4282
97
0
75
0
76
1
98
0
0
LINE
5
541
100
AcDbEntity
8
top_copper
6
ByLayer
62
256
370
0
100
AcDbLine
10
15.9988
20
23.4282
11
15.9988
21
22.5646
0
LINE
5
542
100
AcDbEntity
8
top_copper
6
ByLayer
62
256
370
0
100
AcDbLine
10
15.9988
20
22.5646
11
17.0148
21
22.5646
0
LINE
5
543
100
AcDbEntity
8
top_copper
6
ByLayer
62
256
370
0
100
AcDbLine
10
17.0148
20
22.5646
11
17.0148
21
23.4282
0
LINE
5
544
100
AcDbEntity
8
top_copper
6
ByLayer
62
256
370
0
100
AcDbLine
10
17.0148
20
23.4282
11
15.9988
21
23.4282
0
HATCH
5
545
100
AcDbEntity
8
top_copper
6
ByLayer
62
256
370
0
100
AcDbHatch
10
0
20
0
30
0
210
0
220
0
230
1
2
SOLID
70
1
71
0
91
1
92
0
93
4
72
1
10
13.9160
20
24.4188
11
13.9160
21
23.5552
72
1
10
13.9160
20
23.5552
11
14.9320
21
23.5552
72
1
10
14.9320
20
23.5552
11
14.9320
21
24.4188
72
1
10
14.9320
20
24.4188
11
13.9160
21
24.4188
97
0
75
0
76
1
98
0
0
LINE
5
546
100
AcDbEntity
8
top_copper
6
ByLayer
62
256
370
0
100
AcDbLine
10
13.9160
20
24.4188
11
13.9160
21
23.5552
0
LINE
5
547
100
AcDbEntity
8
top_copper
6
ByLayer
62
256
370
0
100
AcDbLine
10
13.9160
20
23.5552
11
14.9320
21
23.5552
0
LINE
5
548
100
AcDbEntity
8
top_copper
6
ByLayer
62
256
370
0
100
AcDbLine
10
14.9320
20
23.5552
11
14.9320
21
24.4188
0
LINE
5
549
100
AcDbEntity
8
top_copper
6
ByLayer
62
256
370
0
100
AcDbLine
10
14.9320
20
24.4188
11
13.9160
21
24.4188
0
HATCH
5
550
100
AcDbEntity
8
top_copper
6
ByLayer
62
256
370
0
100
AcDbHatch
10
0
20
0
30
0
210
0
220
0
230
1
2
SOLID
70
1
71
0
91
1
92
0
93
4
72
1
10
15.9988
20
25.4094
11
15.9988
21
24.5458
72
1
10
15.9988
20
24.5458
11
17.0148
21
24.5458
72
1
10
17.0148
20
24.5458
11
17.0148
21
25.4094
72
1
10
17.0148
20
25.4094
11
15.9988
21
25.4094
97
0
75
0
76
1
98
0
0
LINE
5
551
100
AcDbEntity
8
top_copper
6
ByLayer
62
256
370
0
100
AcDbLine
10
15.9988
20
25.4094
11
15.9988
21
24.5458
0
LINE
5
552
100
AcDbEntity
8
top_copper
6
ByLayer
62
256
370
0
100
AcDbLine
10
15.9988
20
24.5458
11
17.0148
21
24.5458
0
LINE
5
553
100
AcDbEntity
8
top_copper
6
ByLayer
62
256
370
0
100
AcDbLine
10
17.0148
20
24.5458
11
17.0148
21
25.4094
0
LINE
5
554
100
AcDbEntity
8
top_copper
6
ByLayer
62
256
370
0
100
AcDbLine
10
17.0148
20
25.4094
11
15.9988
21
25.4094
0
HATCH
5
555
100
AcDbEntity
8
top_copper
6
ByLayer
62
256
370
0
100
AcDbHatch
10
0
20
0
30
0
210
0
220
0
230
1
2
SOLID
70
1
71
0
91
1
92
0
93
4
72
1
10
8.0720
20
19.1140
11
8.0720
21
18.5140
72
1
10
8.0720
20
18.5140
11
9.9720
21
18.5140
72
1
10
9.9720
20
18.5140
11
9.9720
21
19.1140
72
1
10
9.9720
20
19.1140
11
8.0720
21
19.1140
97
0
75
0
76
1
98
0
0
LINE
5
556
100
AcDbEntity
8
top_copper
6
ByLayer
62
256
370
0
100
AcDbLine
10
8.0720
20
19.1140
11
8.0720
21
18.5140
0
LINE
5
557
100
AcDbEntity
8
top_copper
6
ByLayer
62
256
370
0
100
AcDbLine
10
8.0720
20
18.5140
11
9.9720
21
18.5140
0
LINE
5
558
100
AcDbEntity
8
top_copper
6
ByLayer
62
256
370
0
100
AcDbLine
10
9.9720
20
18.5140
11
9.9720
21
19.1140
0
LINE
5
559
100
AcDbEntity
8
top_copper
6
ByLayer
62
256
370
0
100
AcDbLine
10
9.9720
20
19.1140
11
8.0720
21
19.1140
0
HATCH
5
560
100
AcDbEntity
8
top_copper
6
ByLayer
62
256
370
0
100
AcDbHatch
10
0
20
0
30
0
210
0
220
0
230
1
2
SOLID
70
1
71
0
91
1
92
0
93
4
72
1
10
8.0720
20
18.1140
11
8.0720
21
17.5140
72
1
10
8.0720
20
17.5140
11
9.9720
21
17.5140
72
1
10
9.9720
20
17.5140
11
9.9720
21
18.1140
72
1
10
9.9720
20
18.1140
11
8.0720
21
18.1140
97
0
75
0
76
1
98
0
0
LINE
5
561
100
AcDbEntity
8
top_copper
6
ByLayer
62
256
370
0
100
AcDbLine
10
8.0720
20
18.1140
11
8.0720
21
17.5140
0
LINE
5
562
100
AcDbEntity
8
top_copper
6
ByLayer
62
256
370
0
100
AcDbLine
10
8.0720
20
17.5140
11
9.9720
21
17.5140
0
LINE
5
563
100
AcDbEntity
8
top_copper
6
ByLayer
62
256
370
0
100
AcDbLine
10
9.9720
20
17.5140
11
9.9720
21
18.1140
0
LINE
5
564
100
AcDbEntity
8
top_copper
6
ByLayer
62
256
370
0
100
AcDbLine
10
9.9720
20
18.1140
11
8.0720
21
18.1140
0
HATCH
5
565
100
AcDbEntity
8
top_copper
6
ByLayer
62
256
370
0
100
AcDbHatch
10
0
20
0
30
0
210
0
220
0
230
1
2
SOLID
70
1
71
0
91
1
92
0
93
4
72
1
10
8.0720
20
17.1140
11
8.0720
21
16.5140
72
1
10
8.0720
20
16.5140
11
9.9720
21
16.5140
72
1
10
9.9720
20
16.5140
11
9.9720
21
17.1140
72
1
10
9.9720
20
17.1140
11
8.0720
21
17.1140
97
0
75
0
76
1
98
0
0
LINE
5
566
100
AcDbEntity
8
top_copper
6
ByLayer
62
256
370
0
100
AcDbLine
10
8.0720
20
17.1140
11
8.0720
21
16.5140
0
LINE
5
567
100
AcDbEntity
8
top_copper
6
ByLayer
62
256
370
0
100
AcDbLine
10
8.0720
20
16.5140
11
9.9720
21
16.5140
0
LINE
5
568
100
AcDbEntity
8
top_copper
6
ByLayer
62
256
370
0
100
AcDbLine
10
9.9720
20
16.5140
11
9.9720
21
17.1140
0
LINE
5
569
100
AcDbEntity
8
top_copper
6
ByLayer
62
256
370
0
100
AcDbLine
10
9.9720
20
17.1140
11
8.0720
21
17.1140
0
HATCH
5
570
100
AcDbEntity
8
top_copper
6
ByLayer
62
256
370
0
100
AcDbHatch
10
0
20
0
30
0
210
0
220
0
230
1
2
SOLID
70
1
71
0
91
1
92
0
93
4
72
1
10
8.0720
20
16.1140
11
8.0720
21
15.5140
72
1
10
8.0720
20
15.5140
11
9.9720
21
15.5140
72
1
10
9.9720
20
15.5140
11
9.9720
21
16.1140
72
1
10
9.9720
20
16.1140
11
8.0720
21
16.1140
97
0
75
0
76
1
98
0
0
LINE
5
571
100
AcDbEntity
8
top_copper
6
ByLayer
62
256
370
0
100
AcDbLine
10
8.0720
20
16.1140
11
8.0720
21
15.5140
0
LINE
5
572
100
AcDbEntity
8
top_copper
6
ByLayer
62
256
370
0
100
AcDbLine
10
8.0720
20
15.5140
11
9.9720
21
15.5140
0
LINE
5
573
100
AcDbEntity
8
top_copper
6
ByLayer
62
256
370
0
100
AcDbLine
10
9.9720
20
15.5140
11
9.9720
21
16.1140
0
LINE
5
574
100
AcDbEntity
8
top_copper
6
ByLayer
62
256
370
0
100
AcDbLine
10
9.9720
20
16.1140
11
8.0720
21
16.1140
0
HATCH
5
575
100
AcDbEntity
8
top_copper
6
ByLayer
62
256
370
0
100
AcDbHatch
10
0
20
0
30
0
210
0
220
0
230
1
2
SOLID
70
1
71
0
91
1
92
0
93
4
72
1
10
15.9988
20
17.4592
11
15.9988
21
16.5956
72
1
10
15.9988
20
16.5956
11
17.0148
21
16.5956
72
1
10
17.0148
20
16.5956
11
17.0148
21
17.4592
72
1
10
17.0148
20
17.4592
11
15.9988
21
17.4592
97
0
75
0
76
1
98
0
0
LINE
5
576
100
AcDbEntity
8
top_copper
6
ByLayer
62
256
370
0
100
AcDbLine
10
15.9988
20
17.4592
11
15.9988
21
16.5956
0
LINE
5
577
100
AcDbEntity
8
top_copper
6
ByLayer
62
256
370
0
100
AcDbLine
10
15.9988
20
16.5956
11
17.0148
21
16.5956
0
LINE
5
578
100
AcDbEntity
8
top_copper
6
ByLayer
62
256
370
0
100
AcDbLine
10
17.0148
20
16.5956
11
17.0148
21
17.4592
0
LINE
5
579
100
AcDbEntity
8
top_copper
6
ByLayer
62
256
370
0
100
AcDbLine
10
17.0148
20
17.4592
11
15.9988
21
17.4592
0
HATCH
5
580
100
AcDbEntity
8
top_copper
6
ByLayer
62
256
370
0
100
AcDbHatch
10
0
20
0
30
0
210
0
220
0
230
1
2
SOLID
70
1
71
0
91
1
92
0
93
4
72
1
10
15.9988
20
19.4404
11
15.9988
21
18.5768
72
1
10
15.9988
20
18.5768
11
17.0148
21
18.5768
72
1
10
17.0148
20
18.5768
11
17.0148
21
19.4404
72
1
10
17.0148
20
19.4404
11
15.9988
21
19.4404
97
0
75
0
76
1
98
0
0
LINE
5
581
100
AcDbEntity
8
top_copper
6
ByLayer
62
256
370
0
100
AcDbLine
10
15.9988
20
19.4404
11
15.9988
21
18.5768
0
LINE
5
582
100
AcDbEntity
8
top_copper
6
ByLayer
62
256
370
0
100
AcDbLine
10
15.9988
20
18.5768
11
17.0148
21
18.5768
0
LINE
5
583
100
AcDbEntity
8
top_copper
6
ByLayer
62
256
370
0
100
AcDbLine
10
17.0148
20
18.5768
11
17.0148
21
19.4404
0
LINE
5
584
100
AcDbEntity
8
top_copper
6
ByLayer
62
256
370
0
100
AcDbLine
10
17.0148
20
19.4404
11
15.9988
21
19.4404
0
HATCH
5
585
100
AcDbEntity
8
top_copper
6
ByLayer
62
256
370
0
100
AcDbHatch
10
0
20
0
30
0
210
0
220
0
230
1
2
SOLID
70
1
71
0
91
1
92
0
93
4
72
1
10
13.9160
20
18.4498
11
13.9160
21
17.5862
72
1
10
13.9160
20
17.5862
11
14.9320
21
17.5862
72
1
10
14.9320
20
17.5862
11
14.9320
21
18.4498
72
1
10
14.9320
20
18.4498
11
13.9160
21
18.4498
97
0
75
0
76
1
98
0
0
LINE
5
586
100
AcDbEntity
8
top_copper
6
ByLayer
62
256
370
0
100
AcDbLine
10
13.9160
20
18.4498
11
13.9160
21
17.5862
0
LINE
5
587
100
AcDbEntity
8
top_copper
6
ByLayer
62
256
370
0
100
AcDbLine
10
13.9160
20
17.5862
11
14.9320
21
17.5862
0
LINE
5
588
100
AcDbEntity
8
top_copper
6
ByLayer
62
256
370
0
100
AcDbLine
10
14.9320
20
17.5862
11
14.9320
21
18.4498
0
LINE
5
589
100
AcDbEntity
8
top_copper
6
ByLayer
62
256
370
0
100
AcDbLine
10
14.9320
20
18.4498
11
13.9160
21
18.4498
0
HATCH
5
590
100
AcDbEntity
8
top_copper
6
ByLayer
62
256
370
0
100
AcDbHatch
10
0
20
0
30
0
210
0
220
0
230
1
2
SOLID
70
1
71
0
91
1
92
0
93
4
72
1
10
18.6054
20
17.9060
11
18.6054
21
16.6060
72
1
10
18.6054
20
16.6060
11
20.1050
21
16.6060
72
1
10
20.1050
20
16.6060
11
20.1050
21
17.9060
72
1
10
20.1050
20
17.9060
11
18.6054
21
17.9060
97
0
75
0
76
1
98
0
0
LINE
5
591
100
AcDbEntity
8
top_copper
6
ByLayer
62
256
370
0
100
AcDbLine
10
18.6054
20
17.9060
11
18.6054
21
16.6060
0
LINE
5
592
100
AcDbEntity
8
top_copper
6
ByLayer
62
256
370
0
100
AcDbLine
10
18.6054
20
16.6060
11
20.1050
21
16.6060
0
LINE
5
593
100
AcDbEntity
8
top_copper
6
ByLayer
62
256
370
0
100
AcDbLine
10
20.1050
20
16.6060
11
20.1050
21
17.9060
0
LINE
5
594
100
AcDbEntity
8
top_copper
6
ByLayer
62
256
370
0
100
AcDbLine
10
20.1050
20
17.9060
11
18.6054
21
17.9060
0
HATCH
5
595
100
AcDbEntity
8
top_copper
6
ByLayer
62
256
370
0
100
AcDbHatch
10
0
20
0
30
0
210
0
220
0
230
1
2
SOLID
70
1
71
0
91
1
92
0
93
4
72
1
10
18.6054
20
19.7058
11
18.6054
21
18.4058
72
1
10
18.6054
20
18.4058
11
20.1050
21
18.4058
72
1
10
20.1050
20
18.4058
11
20.1050
21
19.7058
72
1
10
20.1050
20
19.7058
11
18.6054
21
19.7058
97
0
75
0
76
1
98
0
0
LINE
5
596
100
AcDbEntity
8
top_copper
6
ByLayer
62
256
370
0
100
AcDbLine
10
18.6054
20
19.7058
11
18.6054
21
18.4058
0
LINE
5
597
100
AcDbEntity
8
top_copper
6
ByLayer
62
256
370
0
100
AcDbLine
10
18.6054
20
18.4058
11
20.1050
21
18.4058
0
LINE
5
598
100
AcDbEntity
8
top_copper
6
ByLayer
62
256
370
0
100
AcDbLine
10
20.1050
20
18.4058
11
20.1050
21
19.7058
0
LINE
5
599
100
AcDbEntity
8
top_copper
6
ByLayer
62
256
370
0
100
AcDbLine
10
20.1050
20
19.7058
11
18.6054
21
19.7058
0
HATCH
5
600
100
AcDbEntity
8
top_copper
6
ByLayer
62
256
370
0
100
AcDbHatch
10
0
20
0
30
0
210
0
220
0
230
1
2
SOLID
70
1
71
0
91
1
92
0
93
4
72
1
10
21.2942
20
19.6840
11
21.2942
21
18.3840
72
1
10
21.2942
20
18.3840
11
22.7938
21
18.3840
72
1
10
22.7938
20
18.3840
11
22.7938
21
19.6840
72
1
10
22.7938
20
19.6840
11
21.2942
21
19.6840
97
0
75
0
76
1
98
0
0
LINE
5
601
100
AcDbEntity
8
top_copper
6
ByLayer
62
256
370
0
100
AcDbLine
10
21.2942
20
19.6840
11
21.2942
21
18.3840
0
LINE
5
602
100
AcDbEntity
8
top_copper
6
ByLayer
62
256
370
0
100
AcDbLine
10
21.2942
20
18.3840
11
22.7938
21
18.3840
0
LINE
5
603
100
AcDbEntity
8
top_copper
6
ByLayer
62
256
370
0
100
AcDbLine
10
22.7938
20
18.3840
11
22.7938
21
19.6840
0
LINE
5
604
100
AcDbEntity
8
top_copper
6
ByLayer
62
256
370
0
100
AcDbLine
10
22.7938
20
19.6840
11
21.2942
21
19.6840
0
HATCH
5
605
100
AcDbEntity
8
top_copper
6
ByLayer
62
256
370
0
100
AcDbHatch
10
0
20
0
30
0
210
0
220
0
230
1
2
SOLID
70
1
71
0
91
1
92
0
93
4
72
1
10
23.7072
20
19.6840
11
23.7072
21
18.3840
72
1
10
23.7072
20
18.3840
11
25.2068
21
18.3840
72
1
10
25.2068
20
18.3840
11
25.2068
21
19.6840
72
1
10
25.2068
20
19.6840
11
23.7072
21
19.6840
97
0
75
0
76
1
98
0
0
LINE
5
606
100
AcDbEntity
8
top_copper
6
ByLayer
62
256
370
0
100
AcDbLine
10
23.7072
20
19.6840
11
23.7072
21
18.3840
0
LINE
5
607
100
AcDbEntity
8
top_copper
6
ByLayer
62
256
370
0
100
AcDbLine
10
23.7072
20
18.3840
11
25.2068
21
18.3840
0
LINE
5
608
100
AcDbEntity
8
top_copper
6
ByLayer
62
256
370
0
100
AcDbLine
10
25.2068
20
18.3840
11
25.2068
21
19.6840
0
LINE
5
609
100
AcDbEntity
8
top_copper
6
ByLayer
62
256
370
0
100
AcDbLine
10
25.2068
20
19.6840
11
23.7072
21
19.6840
0
HATCH
5
610
100
AcDbEntity
8
top_copper
6
ByLayer
62
256
370
0
100
AcDbHatch
10
0
20
0
30
0
210
0
220
0
230
1
2
SOLID
70
1
71
0
91
1
92
0
93
4
72
1
10
21.2942
20
17.8842
11
21.2942
21
16.5842
72
1
10
21.2942
20
16.5842
11
22.7938
21
16.5842
72
1
10
22.7938
20
16.5842
11
22.7938
21
17.8842
72
1
10
22.7938
20
17.8842
11
21.2942
21
17.8842
97
0
75
0
76
1
98
0
0
LINE
5
611
100
AcDbEntity
8
top_copper
6
ByLayer
62
256
370
0
100
AcDbLine
10
21.2942
20
17.8842
11
21.2942
21
16.5842
0
LINE
5
612
100
AcDbEntity
8
top_copper
6
ByLayer
62
256
370
0
100
AcDbLine
10
21.2942
20
16.5842
11
22.7938
21
16.5842
0
LINE
5
613
100
AcDbEntity
8
top_copper
6
ByLayer
62
256
370
0
100
AcDbLine
10
22.7938
20
16.5842
11
22.7938
21
17.8842
0
LINE
5
614
100
AcDbEntity
8
top_copper
6
ByLayer
62
256
370
0
100
AcDbLine
10
22.7938
20
17.8842
11
21.2942
21
17.8842
0
HATCH
5
615
100
AcDbEntity
8
top_copper
6
ByLayer
62
256
370
0
100
AcDbHatch
10
0
20
0
30
0
210
0
220
0
230
1
2
SOLID
70
1
71
0
91
1
92
0
93
4
72
1
10
23.7072
20
17.8842
11
23.7072
21
16.5842
72
1
10
23.7072
20
16.5842
11
25.2068
21
16.5842
72
1
10
25.2068
20
16.5842
11
25.2068
21
17.8842
72
1
10
25.2068
20
17.8842
11
23.7072
21
17.8842
97
0
75
0
76
1
98
0
0
LINE
5
616
100
AcDbEntity
8
top_copper
6
ByLayer
62
256
370
0
100
AcDbLine
10
23.7072
20
17.8842
11
23.7072
21
16.5842
0
LINE
5
617
100
AcDbEntity
8
top_copper
6
ByLayer
62
256
370
0
100
AcDbLine
10
23.7072
20
16.5842
11
25.2068
21
16.5842
0
LINE
5
618
100
AcDbEntity
8
top_copper
6
ByLayer
62
256
370
0
100
AcDbLine
10
25.2068
20
16.5842
11
25.2068
21
17.8842
0
LINE
5
619
100
AcDbEntity
8
top_copper
6
ByLayer
62
256
370
0
100
AcDbLine
10
25.2068
20
17.8842
11
23.7072
21
17.8842
0
HATCH
5
620
100
AcDbEntity
8
top_copper
6
ByLayer
62
256
370
0
100
AcDbHatch
10
0
20
0
30
0
210
0
220
0
230
1
2
SOLID
70
1
71
0
91
1
92
0
93
4
72
1
10
28.0765
20
19.6690
11
26.1715
21
19.6690
72
1
10
26.1715
20
19.6690
11
26.1715
21
16.3670
72
1
10
26.1715
20
16.3670
11
28.0765
21
16.3670
72
1
10
28.0765
20
16.3670
11
28.0765
21
19.6690
97
0
75
0
76
1
98
0
0
LINE
5
621
100
AcDbEntity
8
top_copper
6
ByLayer
62
256
370
0
100
AcDbLine
10
28.0765
20
19.6690
11
26.1715
21
19.6690
0
LINE
5
622
100
AcDbEntity
8
top_copper
6
ByLayer
62
256
370
0
100
AcDbLine
10
26.1715
20
19.6690
11
26.1715
21
16.3670
0
LINE
5
623
100
AcDbEntity
8
top_copper
6
ByLayer
62
256
370
0
100
AcDbLine
10
26.1715
20
16.3670
11
28.0765
21
16.3670
0
LINE
5
624
100
AcDbEntity
8
top_copper
6
ByLayer
62
256
370
0
100
AcDbLine
10
28.0765
20
16.3670
11
28.0765
21
19.6690
0
HATCH
5
625
100
AcDbEntity
8
top_copper
6
ByLayer
62
256
370
0
100
AcDbHatch
10
0
20
0
30
0
210
0
220
0
230
1
2
SOLID
70
1
71
0
91
1
92
0
93
4
72
1
10
33.7915
20
19.6690
11
31.8865
21
19.6690
72
1
10
31.8865
20
19.6690
11
31.8865
21
16.3670
72
1
10
31.8865
20
16.3670
11
33.7915
21
16.3670
72
1
10
33.7915
20
16.3670
11
33.7915
21
19.6690
97
0
75
0
76
1
98
0
0
LINE
5
626
100
AcDbEntity
8
top_copper
6
ByLayer
62
256
370
0
100
AcDbLine
10
33.7915
20
19.6690
11
31.8865
21
19.6690
0
LINE
5
627
100
AcDbEntity
8
top_copper
6
ByLayer
62
256
370
0
100
AcDbLine
10
31.8865
20
19.6690
11
31.8865
21
16.3670
0
LINE
5
628
100
AcDbEntity
8
top_copper
6
ByLayer
62
256
370
0
100
AcDbLine
10
31.8865
20
16.3670
11
33.7915
21
16.3670
0
LINE
5
629
100
AcDbEntity
8
top_copper
6
ByLayer
62
256
370
0
100
AcDbLine
10
33.7915
20
16.3670
11
33.7915
21
19.6690
0
HATCH
5
630
100
AcDbEntity
8
top_copper
6
ByLayer
62
256
370
0
100
AcDbHatch
10
0
20
0
30
0
210
0
220
0
230
1
2
SOLID
70
1
71
0
91
1
92
0
93
4
72
1
10
8.0720
20
15.1140
11
8.0720
21
14.5140
72
1
10
8.0720
20
14.5140
11
9.9720
21
14.5140
72
1
10
9.9720
20
14.5140
11
9.9720
21
15.1140
72
1
10
9.9720
20
15.1140
11
8.0720
21
15.1140
97
0
75
0
76
1
98
0
0
LINE
5
631
100
AcDbEntity
8
top_copper
6
ByLayer
62
256
370
0
100
AcDbLine
10
8.0720
20
15.1140
11
8.0720
21
14.5140
0
LINE
5
632
100
AcDbEntity
8
top_copper
6
ByLayer
62
256
370
0
100
AcDbLine
10
8.0720
20
14.5140
11
9.9720
21
14.5140
0
LINE
5
633
100
AcDbEntity
8
top_copper
6
ByLayer
62
256
370
0
100
AcDbLine
10
9.9720
20
14.5140
11
9.9720
21
15.1140
0
LINE
5
634
100
AcDbEntity
8
top_copper
6
ByLayer
62
256
370
0
100
AcDbLine
10
9.9720
20
15.1140
11
8.0720
21
15.1140
0
HATCH
5
635
100
AcDbEntity
8
top_copper
6
ByLayer
62
256
370
0
100
AcDbHatch
10
0
20
0
30
0
210
0
220
0
230
1
2
SOLID
70
1
71
0
91
1
92
0
93
4
72
1
10
8.0720
20
14.1140
11
8.0720
21
13.5140
72
1
10
8.0720
20
13.5140
11
9.9720
21
13.5140
72
1
10
9.9720
20
13.5140
11
9.9720
21
14.1140
72
1
10
9.9720
20
14.1140
11
8.0720
21
14.1140
97
0
75
0
76
1
98
0
0
LINE
5
636
100
AcDbEntity
8
top_copper
6
ByLayer
62
256
370
0
100
AcDbLine
10
8.0720
20
14.1140
11
8.0720
21
13.5140
0
LINE
5
637
100
AcDbEntity
8
top_copper
6
ByLayer
62
256
370
0
100
AcDbLine
10
8.0720
20
13.5140
11
9.9720
21
13.5140
0
LINE
5
638
100
AcDbEntity
8
top_copper
6
ByLayer
62
256
370
0
100
AcDbLine
10
9.9720
20
13.5140
11
9.9720
21
14.1140
0
LINE
5
639
100
AcDbEntity
8
top_copper
6
ByLayer
62
256
370
0
100
AcDbLine
10
9.9720
20
14.1140
11
8.0720
21
14.1140
0
HATCH
5
640
100
AcDbEntity
8
top_copper
6
ByLayer
62
256
370
0
100
AcDbHatch
10
0
20
0
30
0
210
0
220
0
230
1
2
SOLID
70
1
71
0
91
1
92
0
93
4
72
1
10
8.0720
20
13.1140
11
8.0720
21
12.5140
72
1
10
8.0720
20
12.5140
11
9.9720
21
12.5140
72
1
10
9.9720
20
12.5140
11
9.9720
21
13.1140
72
1
10
9.9720
20
13.1140
11
8.0720
21
13.1140
97
0
75
0
76
1
98
0
0
LINE
5
641
100
AcDbEntity
8
top_copper
6
ByLayer
62
256
370
0
100
AcDbLine
10
8.0720
20
13.1140
11
8.0720
21
12.5140
0
LINE
5
642
100
AcDbEntity
8
top_copper
6
ByLayer
62
256
370
0
100
AcDbLine
10
8.0720
20
12.5140
11
9.9720
21
12.5140
0
LINE
5
643
100
AcDbEntity
8
top_copper
6
ByLayer
62
256
370
0
100
AcDbLine
10
9.9720
20
12.5140
11
9.9720
21
13.1140
0
LINE
5
644
100
AcDbEntity
8
top_copper
6
ByLayer
62
256
370
0
100
AcDbLine
10
9.9720
20
13.1140
11
8.0720
21
13.1140
0
HATCH
5
645
100
AcDbEntity
8
top_copper
6
ByLayer
62
256
370
0
100
AcDbHatch
10
0
20
0
30
0
210
0
220
0
230
1
2
SOLID
70
1
71
0
91
1
92
0
93
4
72
1
10
15.9988
20
13.4714
11
15.9988
21
12.6078
72
1
10
15.9988
20
12.6078
11
17.0148
21
12.6078
72
1
10
17.0148
20
12.6078
11
17.0148
21
13.4714
72
1
10
17.0148
20
13.4714
11
15.9988
21
13.4714
97
0
75
0
76
1
98
0
0
LINE
5
646
100
AcDbEntity
8
top_copper
6
ByLayer
62
256
370
0
100
AcDbLine
10
15.9988
20
13.4714
11
15.9988
21
12.6078
0
LINE
5
647
100
AcDbEntity
8
top_copper
6
ByLayer
62
256
370
0
100
AcDbLine
10
15.9988
20
12.6078
11
17.0148
21
12.6078
0
LINE
5
648
100
AcDbEntity
8
top_copper
6
ByLayer
62
256
370
0
100
AcDbLine
10
17.0148
20
12.6078
11
17.0148
21
13.4714
0
LINE
5
649
100
AcDbEntity
8
top_copper
6
ByLayer
62
256
370
0
100
AcDbLine
10
17.0148
20
13.4714
11
15.9988
21
13.4714
0
HATCH
5
650
100
AcDbEntity
8
top_copper
6
ByLayer
62
256
370
0
100
AcDbHatch
10
0
20
0
30
0
210
0
220
0
230
1
2
SOLID
70
1
71
0
91
1
92
0
93
4
72
1
10
13.9160
20
12.4808
11
13.9160
21
11.6172
72
1
10
13.9160
20
11.6172
11
14.9320
21
11.6172
72
1
10
14.9320
20
11.6172
11
14.9320
21
12.4808
72
1
10
14.9320
20
12.4808
11
13.9160
21
12.4808
97
0
75
0
76
1
98
0
0
LINE
5
651
100
AcDbEntity
8
top_copper
6
ByLayer
62
256
370
0
100
AcDbLine
10
13.9160
20
12.4808
11
13.9160
21
11.6172
0
LINE
5
652
100
AcDbEntity
8
top_copper
6
ByLayer
62
256
370
0
100
AcDbLine
10
13.9160
20
11.6172
11
14.9320
21
11.6172
0
LINE
5
653
100
AcDbEntity
8
top_copper
6
ByLayer
62
256
370
0
100
AcDbLine
10
14.9320
20
11.6172
11
14.9320
21
12.4808
0
LINE
5
654
100
AcDbEntity
8
top_copper
6
ByLayer
62
256
370
0
100
AcDbLine
10
14.9320
20
12.4808
11
13.9160
21
12.4808
0
HATCH
5
655
100
AcDbEntity
8
top_copper
6
ByLayer
62
256
370
0
100
AcDbHatch
10
0
20
0
30
0
210
0
220
0
230
1
2
SOLID
70
1
71
0
91
1
92
0
93
4
72
1
10
15.9988
20
11.4902
11
15.9988
21
10.6266
72
1
10
15.9988
20
10.6266
11
17.0148
21
10.6266
72
1
10
17.0148
20
10.6266
11
17.0148
21
11.4902
72
1
10
17.0148
20
11.4902
11
15.9988
21
11.4902
97
0
75
0
76
1
98
0
0
LINE
5
656
100
AcDbEntity
8
top_copper
6
ByLayer
62
256
370
0
100
AcDbLine
10
15.9988
20
11.4902
11
15.9988
21
10.6266
0
LINE
5
657
100
AcDbEntity
8
top_copper
6
ByLayer
62
256
370
0
100
AcDbLine
10
15.9988
20
10.6266
11
17.0148
21
10.6266
0
LINE
5
658
100
AcDbEntity
8
top_copper
6
ByLayer
62
256
370
0
100
AcDbLine
10
17.0148
20
10.6266
11
17.0148
21
11.4902
0
LINE
5
659
100
AcDbEntity
8
top_copper
6
ByLayer
62
256
370
0
100
AcDbLine
10
17.0148
20
11.4902
11
15.9988
21
11.4902
0
HATCH
5
660
100
AcDbEntity
8
top_copper
6
ByLayer
62
256
370
0
100
AcDbHatch
10
0
20
0
30
0
210
0
220
0
230
1
2
SOLID
70
1
71
0
91
1
92
0
93
4
72
1
10
18.6272
20
11.9152
11
18.6272
21
10.6152
72
1
10
18.6272
20
10.6152
11
20.1268
21
10.6152
72
1
10
20.1268
20
10.6152
11
20.1268
21
11.9152
72
1
10
20.1268
20
11.9152
11
18.6272
21
11.9152
97
0
75
0
76
1
98
0
0
LINE
5
661
100
AcDbEntity
8
top_copper
6
ByLayer
62
256
370
0
100
AcDbLine
10
18.6272
20
11.9152
11
18.6272
21
10.6152
0
LINE
5
662
100
AcDbEntity
8
top_copper
6
ByLayer
62
256
370
0
100
AcDbLine
10
18.6272
20
10.6152
11
20.1268
21
10.6152
0
LINE
5
663
100
AcDbEntity
8
top_copper
6
ByLayer
62
256
370
0
100
AcDbLine
10
20.1268
20
10.6152
11
20.1268
21
11.9152
0
LINE
5
664
100
AcDbEntity
8
top_copper
6
ByLayer
62
256
370
0
100
AcDbLine
10
20.1268
20
11.9152
11
18.6272
21
11.9152
0
HATCH
5
665
100
AcDbEntity
8
top_copper
6
ByLayer
62
256
370
0
100
AcDbHatch
10
0
20
0
30
0
210
0
220
0
230
1
2
SOLID
70
1
71
0
91
1
92
0
93
4
72
1
10
18.6272
20
13.7150
11
18.6272
21
12.4150
72
1
10
18.6272
20
12.4150
11
20.1268
21
12.4150
72
1
10
20.1268
20
12.4150
11
20.1268
21
13.7150
72
1
10
20.1268
20
13.7150
11
18.6272
21
13.7150
97
0
75
0
76
1
98
0
0
LINE
5
666
100
AcDbEntity
8
top_copper
6
ByLayer
62
256
370
0
100
AcDbLine
10
18.6272
20
13.7150
11
18.6272
21
12.4150
0
LINE
5
667
100
AcDbEntity
8
top_copper
6
ByLayer
62
256
370
0
100
AcDbLine
10
18.6272
20
12.4150
11
20.1268
21
12.4150
0
LINE
5
668
100
AcDbEntity
8
top_copper
6
ByLayer
62
256
370
0
100
AcDbLine
10
20.1268
20
12.4150
11
20.1268
21
13.7150
0
LINE
5
669
100
AcDbEntity
8
top_copper
6
ByLayer
62
256
370
0
100
AcDbLine
10
20.1268
20
13.7150
11
18.6272
21
13.7150
0
HATCH
5
670
100
AcDbEntity
8
top_copper
6
ByLayer
62
256
370
0
100
AcDbHatch
10
0
20
0
30
0
210
0
220
0
230
1
2
SOLID
70
1
71
0
91
1
92
0
93
4
72
1
10
23.7072
20
11.9152
11
23.7072
21
10.6152
72
1
10
23.7072
20
10.6152
11
25.2068
21
10.6152
72
1
10
25.2068
20
10.6152
11
25.2068
21
11.9152
72
1
10
25.2068
20
11.9152
11
23.7072
21
11.9152
97
0
75
0
76
1
98
0
0
LINE
5
671
100
AcDbEntity
8
top_copper
6
ByLayer
62
256
370
0
100
AcDbLine
10
23.7072
20
11.9152
11
23.7072
21
10.6152
0
LINE
5
672
100
AcDbEntity
8
top_copper
6
ByLayer
62
256
370
0
100
AcDbLine
10
23.7072
20
10.6152
11
25.2068
21
10.6152
0
LINE
5
673
100
AcDbEntity
8
top_copper
6
ByLayer
62
256
370
0
100
AcDbLine
10
25.2068
20
10.6152
11
25.2068
21
11.9152
0
LINE
5
674
100
AcDbEntity
8
top_copper
6
ByLayer
62
256
370
0
100
AcDbLine
10
25.2068
20
11.9152
11
23.7072
21
11.9152
0
HATCH
5
675
100
AcDbEntity
8
top_copper
6
ByLayer
62
256
370
0
100
AcDbHatch
10
0
20
0
30
0
210
0
220
0
230
1
2
SOLID
70
1
71
0
91
1
92
0
93
4
72
1
10
23.7072
20
13.7150
11
23.7072
21
12.4150
72
1
10
23.7072
20
12.4150
11
25.2068
21
12.4150
72
1
10
25.2068
20
12.4150
11
25.2068
21
13.7150
72
1
10
25.2068
20
13.7150
11
23.7072
21
13.7150
97
0
75
0
76
1
98
0
0
LINE
5
676
100
AcDbEntity
8
top_copper
6
ByLayer
62
256
370
0
100
AcDbLine
10
23.7072
20
13.7150
11
23.7072
21
12.4150
0
LINE
5
677
100
AcDbEntity
8
top_copper
6
ByLayer
62
256
370
0
100
AcDbLine
10
23.7072
20
12.4150
11
25.2068
21
12.4150
0
LINE
5
678
100
AcDbEntity
8
top_copper
6
ByLayer
62
256
370
0
100
AcDbLine
10
25.2068
20
12.4150
11
25.2068
21
13.7150
0
LINE
5
679
100
AcDbEntity
8
top_copper
6
ByLayer
62
256
370
0
100
AcDbLine
10
25.2068
20
13.7150
11
23.7072
21
13.7150
0
HATCH
5
680
100
AcDbEntity
8
top_copper
6
ByLayer
62
256
370
0
100
AcDbHatch
10
0
20
0
30
0
210
0
220
0
230
1
2
SOLID
70
1
71
0
91
1
92
0
93
4
72
1
10
21.2942
20
13.7150
11
21.2942
21
12.4150
72
1
10
21.2942
20
12.4150
11
22.7938
21
12.4150
72
1
10
22.7938
20
12.4150
11
22.7938
21
13.7150
72
1
10
22.7938
20
13.7150
11
21.2942
21
13.7150
97
0
75
0
76
1
98
0
0
LINE
5
681
100
AcDbEntity
8
top_copper
6
ByLayer
62
256
370
0
100
AcDbLine
10
21.2942
20
13.7150
11
21.2942
21
12.4150
0
LINE
5
682
100
AcDbEntity
8
top_copper
6
ByLayer
62
256
370
0
100
AcDbLine
10
21.2942
20
12.4150
11
22.7938
21
12.4150
0
LINE
5
683
100
AcDbEntity
8
top_copper
6
ByLayer
62
256
370
0
100
AcDbLine
10
22.7938
20
12.4150
11
22.7938
21
13.7150
0
LINE
5
684
100
AcDbEntity
8
top_copper
6
ByLayer
62
256
370
0
100
AcDbLine
10
22.7938
20
13.7150
11
21.2942
21
13.7150
0
HATCH
5
685
100
AcDbEntity
8
top_copper
6
ByLayer
62
256
370
0
100
AcDbHatch
10
0
20
0
30
0
210
0
220
0
230
1
2
SOLID
70
1
71
0
91
1
92
0
93
4
72
1
10
21.2942
20
11.9152
11
21.2942
21
10.6152
72
1
10
21.2942
20
10.6152
11
22.7938
21
10.6152
72
1
10
22.7938
20
10.6152
11
22.7938
21
11.9152
72
1
10
22.7938
20
11.9152
11
21.2942
21
11.9152
97
0
75
0
76
1
98
0
0
LINE
5
686
100
AcDbEntity
8
top_copper
6
ByLayer
62
256
370
0
100
AcDbLine
10
21.2942
20
11.9152
11
21.2942
21
10.6152
0
LINE
5
687
100
AcDbEntity
8
top_copper
6
ByLayer
62
256
370
0
100
AcDbLine
10
21.2942
20
10.6152
11
22.7938
21
10.6152
0
LINE
5
688
100
AcDbEntity
8
top_copper
6
ByLayer
62
256
370
0
100
AcDbLine
10
22.7938
20
10.6152
11
22.7938
21
11.9152
0
LINE
5
689
100
AcDbEntity
8
top_copper
6
ByLayer
62
256
370
0
100
AcDbLine
10
22.7938
20
11.9152
11
21.2942
21
11.9152
0
HATCH
5
690
100
AcDbEntity
8
top_copper
6
ByLayer
62
256
370
0
100
AcDbHatch
10
0
20
0
30
0
210
0
220
0
230
1
2
SOLID
70
1
71
0
91
1
92
0
93
4
72
1
10
28.0765
20
13.7000
11
26.1715
21
13.7000
72
1
10
26.1715
20
13.7000
11
26.1715
21
10.3980
72
1
10
26.1715
20
10.3980
11
28.0765
21
10.3980
72
1
10
28.0765
20
10.3980
11
28.0765
21
13.7000
97
0
75
0
76
1
98
0
0
LINE
5
691
100
AcDbEntity
8
top_copper
6
ByLayer
62
256
370
0
100
AcDbLine
10
28.0765
20
13.7000
11
26.1715
21
13.7000
0
LINE
5
692
100
AcDbEntity
8
top_copper
6
ByLayer
62
256
370
0
100
AcDbLine
10
26.1715
20
13.7000
11
26.1715
21
10.3980
0
LINE
5
693
100
AcDbEntity
8
top_copper
6
ByLayer
62
256
370
0
100
AcDbLine
10
26.1715
20
10.3980
11
28.0765
21
10.3980
0
LINE
5
694
100
AcDbEntity
8
top_copper
6
ByLayer
62
256
370
0
100
AcDbLine
10
28.0765
20
10.3980
11
28.0765
21
13.7000
0
HATCH
5
695
100
AcDbEntity
8
top_copper
6
ByLayer
62
256
370
0
100
AcDbHatch
10
0
20
0
30
0
210
0
220
0
230
1
2
SOLID
70
1
71
0
91
1
92
0
93
4
72
1
10
33.7915
20
13.7000
11
31.8865
21
13.7000
72
1
10
31.8865
20
13.7000
11
31.8865
21
10.3980
72
1
10
31.8865
20
10.3980
11
33.7915
21
10.3980
72
1
10
33.7915
20
10.3980
11
33.7915
21
13.7000
97
0
75
0
76
1
98
0
0
LINE
5
696
100
AcDbEntity
8
top_copper
6
ByLayer
62
256
370
0
100
AcDbLine
10
33.7915
20
13.7000
11
31.8865
21
13.7000
0
LINE
5
697
100
AcDbEntity
8
top_copper
6
ByLayer
62
256
370
0
100
AcDbLine
10
31.8865
20
13.7000
11
31.8865
21
10.3980
0
LINE
5
698
100
AcDbEntity
8
top_copper
6
ByLayer
62
256
370
0
100
AcDbLine
10
31.8865
20
10.3980
11
33.7915
21
10.3980
0
LINE
5
699
100
AcDbEntity
8
top_copper
6
ByLayer
62
256
370
0
100
AcDbLine
10
33.7915
20
10.3980
11
33.7915
21
13.7000
0
HATCH
5
700
100
AcDbEntity
8
top_copper
6
ByLayer
62
256
370
0
100
AcDbHatch
10
0
20
0
30
0
210
0
220
0
230
1
2
SOLID
70
1
71
0
91
1
92
0
93
4
72
1
10
8.0720
20
12.1140
11
8.0720
21
11.5140
72
1
10
8.0720
20
11.5140
11
9.9720
21
11.5140
72
1
10
9.9720
20
11.5140
11
9.9720
21
12.1140
72
1
10
9.9720
20
12.1140
11
8.0720
21
12.1140
97
0
75
0
76
1
98
0
0
LINE
5
701
100
AcDbEntity
8
top_copper
6
ByLayer
62
256
370
0
100
AcDbLine
10
8.0720
20
12.1140
11
8.0720
21
11.5140
0
LINE
5
702
100
AcDbEntity
8
top_copper
6
ByLayer
62
256
370
0
100
AcDbLine
10
8.0720
20
11.5140
11
9.9720
21
11.5140
0
LINE
5
703
100
AcDbEntity
8
top_copper
6
ByLayer
62
256
370
0
100
AcDbLine
10
9.9720
20
11.5140
11
9.9720
21
12.1140
0
LINE
5
704
100
AcDbEntity
8
top_copper
6
ByLayer
62
256
370
0
100
AcDbLine
10
9.9720
20
12.1140
11
8.0720
21
12.1140
0
HATCH
5
705
100
AcDbEntity
8
top_copper
6
ByLayer
62
256
370
0
100
AcDbHatch
10
0
20
0
30
0
210
0
220
0
230
1
2
SOLID
70
1
71
0
91
1
92
0
93
4
72
1
10
8.0720
20
11.1140
11
8.0720
21
10.5140
72
1
10
8.0720
20
10.5140
11
9.9720
21
10.5140
72
1
10
9.9720
20
10.5140
11
9.9720
21
11.1140
72
1
10
9.9720
20
11.1140
11
8.0720
21
11.1140
97
0
75
0
76
1
98
0
0
LINE
5
706
100
AcDbEntity
8
top_copper
6
ByLayer
62
256
370
0
100
AcDbLine
10
8.0720
20
11.1140
11
8.0720
21
10.5140
0
LINE
5
707
100
AcDbEntity
8
top_copper
6
ByLayer
62
256
370
0
100
AcDbLine
10
8.0720
20
10.5140
11
9.9720
21
10.5140
0
LINE
5
708
100
AcDbEntity
8
top_copper
6
ByLayer
62
256
370
0
100
AcDbLine
10
9.9720
20
10.5140
11
9.9720
21
11.1140
0
LINE
5
709
100
AcDbEntity
8
top_copper
6
ByLayer
62
256
370
0
100
AcDbLine
10
9.9720
20
11.1140
11
8.0720
21
11.1140
0
HATCH
5
710
100
AcDbEntity
8
top_copper
6
ByLayer
62
256
370
0
100
AcDbHatch
10
0
20
0
30
0
210
0
220
0
230
1
2
SOLID
70
1
71
0
91
1
92
0
93
4
72
1
10
8.0720
20
10.1140
11
8.0720
21
9.5140
72
1
10
8.0720
20
9.5140
11
9.9720
21
9.5140
72
1
10
9.9720
20
9.5140
11
9.9720
21
10.1140
72
1
10
9.9720
20
10.1140
11
8.0720
21
10.1140
97
0
75
0
76
1
98
0
0
LINE
5
711
100
AcDbEntity
8
top_copper
6
ByLayer
62
256
370
0
100
AcDbLine
10
8.0720
20
10.1140
11
8.0720
21
9.5140
0
LINE
5
712
100
AcDbEntity
8
top_copper
6
ByLayer
62
256
370
0
100
AcDbLine
10
8.0720
20
9.5140
11
9.9720
21
9.5140
0
LINE
5
713
100
AcDbEntity
8
top_copper
6
ByLayer
62
256
370
0
100
AcDbLine
10
9.9720
20
9.5140
11
9.9720
21
10.1140
0
LINE
5
714
100
AcDbEntity
8
top_copper
6
ByLayer
62
256
370
0
100
AcDbLine
10
9.9720
20
10.1140
11
8.0720
21
10.1140
0
HATCH
5
715
100
AcDbEntity
8
top_copper
6
ByLayer
62
256
370
0
100
AcDbHatch
10
0
20
0
30
0
210
0
220
0
230
1
2
SOLID
70
1
71
0
91
1
92
0
93
4
72
1
10
4.3720
20
7.3140
11
4.3720
21
4.6140
72
1
10
4.3720
20
4.6140
11
8.0720
21
4.6140
72
1
10
8.0720
20
4.6140
11
8.0720
21
7.3140
72
1
10
8.0720
20
7.3140
11
4.3720
21
7.3140
97
0
75
0
76
1
98
0
0
LINE
5
716
100
AcDbEntity
8
top_copper
6
ByLayer
62
256
370
0
100
AcDbLine
10
4.3720
20
7.3140
11
4.3720
21
4.6140
0
LINE
5
717
100
AcDbEntity
8
top_copper
6
ByLayer
62
256
370
0
100
AcDbLine
10
4.3720
20
4.6140
11
8.0720
21
4.6140
0
LINE
5
718
100
AcDbEntity
8
top_copper
6
ByLayer
62
256
370
0
100
AcDbLine
10
8.0720
20
4.6140
11
8.0720
21
7.3140
0
LINE
5
719
100
AcDbEntity
8
top_copper
6
ByLayer
62
256
370
0
100
AcDbLine
10
8.0720
20
7.3140
11
4.3720
21
7.3140
0
HATCH
5
720
100
AcDbEntity
8
top_copper
6
ByLayer
62
256
370
0
100
AcDbHatch
10
0
20
0
30
0
210
0
220
0
230
1
2
SOLID
70
1
71
0
91
1
92
0
93
4
72
1
10
8.0720
20
9.1140
11
8.0720
21
8.5140
72
1
10
8.0720
20
8.5140
11
9.9720
21
8.5140
72
1
10
9.9720
20
8.5140
11
9.9720
21
9.1140
72
1
10
9.9720
20
9.1140
11
8.0720
21
9.1140
97
0
75
0
76
1
98
0
0
LINE
5
721
100
AcDbEntity
8
top_copper
6
ByLayer
62
256
370
0
100
AcDbLine
10
8.0720
20
9.1140
11
8.0720
21
8.5140
0
LINE
5
722
100
AcDbEntity
8
top_copper
6
ByLayer
62
256
370
0
100
AcDbLine
10
8.0720
20
8.5140
11
9.9720
21
8.5140
0
LINE
5
723
100
AcDbEntity
8
top_copper
6
ByLayer
62
256
370
0
100
AcDbLine
10
9.9720
20
8.5140
11
9.9720
21
9.1140
0
LINE
5
724
100
AcDbEntity
8
top_copper
6
ByLayer
62
256
370
0
100
AcDbLine
10
9.9720
20
9.1140
11
8.0720
21
9.1140
0
HATCH
5
725
100
AcDbEntity
8
top_copper
6
ByLayer
62
256
370
0
100
AcDbHatch
10
0
20
0
30
0
210
0
220
0
230
1
2
SOLID
70
1
71
0
91
1
92
0
93
4
72
1
10
15.9988
20
5.3942
11
15.9988
21
4.5306
72
1
10
15.9988
20
4.5306
11
17.0148
21
4.5306
72
1
10
17.0148
20
4.5306
11
17.0148
21
5.3942
72
1
10
17.0148
20
5.3942
11
15.9988
21
5.3942
97
0
75
0
76
1
98
0
0
LINE
5
726
100
AcDbEntity
8
top_copper
6
ByLayer
62
256
370
0
100
AcDbLine
10
15.9988
20
5.3942
11
15.9988
21
4.5306
0
LINE
5
727
100
AcDbEntity
8
top_copper
6
ByLayer
62
256
370
0
100
AcDbLine
10
15.9988
20
4.5306
11
17.0148
21
4.5306
0
LINE
5
728
100
AcDbEntity
8
top_copper
6
ByLayer
62
256
370
0
100
AcDbLine
10
17.0148
20
4.5306
11
17.0148
21
5.3942
0
LINE
5
729
100
AcDbEntity
8
top_copper
6
ByLayer
62
256
370
0
100
AcDbLine
10
17.0148
20
5.3942
11
15.9988
21
5.3942
0
HATCH
5
730
100
AcDbEntity
8
top_copper
6
ByLayer
62
256
370
0
100
AcDbHatch
10
0
20
0
30
0
210
0
220
0
230
1
2
SOLID
70
1
71
0
91
1
92
0
93
4
72
1
10
15.9988
20
7.3754
11
15.9988
21
6.5118
72
1
10
15.9988
20
6.5118
11
17.0148
21
6.5118
72
1
10
17.0148
20
6.5118
11
17.0148
21
7.3754
72
1
10
17.0148
20
7.3754
11
15.9988
21
7.3754
97
0
75
0
76
1
98
0
0
LINE
5
731
100
AcDbEntity
8
top_copper
6
ByLayer
62
256
370
0
100
AcDbLine
10
15.9988
20
7.3754
11
15.9988
21
6.5118
0
LINE
5
732
100
AcDbEntity
8
top_copper
6
ByLayer
62
256
370
0
100
AcDbLine
10
15.9988
20
6.5118
11
17.0148
21
6.5118
0
LINE
5
733
100
AcDbEntity
8
top_copper
6
ByLayer
62
256
370
0
100
AcDbLine
10
17.0148
20
6.5118
11
17.0148
21
7.3754
0
LINE
5
734
100
AcDbEntity
8
top_copper
6
ByLayer
62
256
370
0
100
AcDbLine
10
17.0148
20
7.3754
11
15.9988
21
7.3754
0
HATCH
5
735
100
AcDbEntity
8
top_copper
6
ByLayer
62
256
370
0
100
AcDbHatch
10
0
20
0
30
0
210
0
220
0
230
1
2
SOLID
70
1
71
0
91
1
92
0
93
4
72
1
10
13.9160
20
6.3848
11
13.9160
21
5.5212
72
1
10
13.9160
20
5.5212
11
14.9320
21
5.5212
72
1
10
14.9320
20
5.5212
11
14.9320
21
6.3848
72
1
10
14.9320
20
6.3848
11
13.9160
21
6.3848
97
0
75
0
76
1
98
0
0
LINE
5
736
100
AcDbEntity
8
top_copper
6
ByLayer
62
256
370
0
100
AcDbLine
10
13.9160
20
6.3848
11
13.9160
21
5.5212
0
LINE
5
737
100
AcDbEntity
8
top_copper
6
ByLayer
62
256
370
0
100
AcDbLine
10
13.9160
20
5.5212
11
14.9320
21
5.5212
0
LINE
5
738
100
AcDbEntity
8
top_copper
6
ByLayer
62
256
370
0
100
AcDbLine
10
14.9320
20
5.5212
11
14.9320
21
6.3848
0
LINE
5
739
100
AcDbEntity
8
top_copper
6
ByLayer
62
256
370
0
100
AcDbLine
10
14.9320
20
6.3848
11
13.9160
21
6.3848
0
HATCH
5
740
100
AcDbEntity
8
top_copper
6
ByLayer
62
256
370
0
100
AcDbHatch
10
0
20
0
30
0
210
0
220
0
230
1
2
SOLID
70
1
71
0
91
1
92
0
93
4
72
1
10
18.6272
20
5.8192
11
18.6272
21
4.5192
72
1
10
18.6272
20
4.5192
11
20.1268
21
4.5192
72
1
10
20.1268
20
4.5192
11
20.1268
21
5.8192
72
1
10
20.1268
20
5.8192
11
18.6272
21
5.8192
97
0
75
0
76
1
98
0
0
LINE
5
741
100
AcDbEntity
8
top_copper
6
ByLayer
62
256
370
0
100
AcDbLine
10
18.6272
20
5.8192
11
18.6272
21
4.5192
0
LINE
5
742
100
AcDbEntity
8
top_copper
6
ByLayer
62
256
370
0
100
AcDbLine
10
18.6272
20
4.5192
11
20.1268
21
4.5192
0
LINE
5
743
100
AcDbEntity
8
top_copper
6
ByLayer
62
256
370
0
100
AcDbLine
10
20.1268
20
4.5192
11
20.1268
21
5.8192
0
LINE
5
744
100
AcDbEntity
8
top_copper
6
ByLayer
62
256
370
0
100
AcDbLine
10
20.1268
20
5.8192
11
18.6272
21
5.8192
0
HATCH
5
745
100
AcDbEntity
8
top_copper
6
ByLayer
62
256
370
0
100
AcDbHatch
10
0
20
0
30
0
210
0
220
0
230
1
2
SOLID
70
1
71
0
91
1
92
0
93
4
72
1
10
18.6272
20
7.6190
11
18.6272
21
6.3190
72
1
10
18.6272
20
6.3190
11
20.1268
21
6.3190
72
1
10
20.1268
20
6.3190
11
20.1268
21
7.6190
72
1
10
20.1268
20
7.6190
11
18.6272
21
7.6190
97
0
75
0
76
1
98
0
0
LINE
5
746
100
AcDbEntity
8
top_copper
6
ByLayer
62
256
370
0
100
AcDbLine
10
18.6272
20
7.6190
11
18.6272
21
6.3190
0
LINE
5
747
100
AcDbEntity
8
top_copper
6
ByLayer
62
256
370
0
100
AcDbLine
10
18.6272
20
6.3190
11
20.1268
21
6.3190
0
LINE
5
748
100
AcDbEntity
8
top_copper
6
ByLayer
62
256
370
0
100
AcDbLine
10
20.1268
20
6.3190
11
20.1268
21
7.6190
0
LINE
5
749
100
AcDbEntity
8
top_copper
6
ByLayer
62
256
370
0
100
AcDbLine
10
20.1268
20
7.6190
11
18.6272
21
7.6190
0
HATCH
5
750
100
AcDbEntity
8
top_copper
6
ByLayer
62
256
370
0
100
AcDbHatch
10
0
20
0
30
0
210
0
220
0
230
1
2
SOLID
70
1
71
0
91
1
92
0
93
4
72
1
10
21.2942
20
7.6190
11
21.2942
21
6.3190
72
1
10
21.2942
20
6.3190
11
22.7938
21
6.3190
72
1
10
22.7938
20
6.3190
11
22.7938
21
7.6190
72
1
10
22.7938
20
7.6190
11
21.2942
21
7.6190
97
0
75
0
76
1
98
0
0
LINE
5
751
100
AcDbEntity
8
top_copper
6
ByLayer
62
256
370
0
100
AcDbLine
10
21.2942
20
7.6190
11
21.2942
21
6.3190
0
LINE
5
752
100
AcDbEntity
8
top_copper
6
ByLayer
62
256
370
0
100
AcDbLine
10
21.2942
20
6.3190
11
22.7938
21
6.3190
0
LINE
5
753
100
AcDbEntity
8
top_copper
6
ByLayer
62
256
370
0
100
AcDbLine
10
22.7938
20
6.3190
11
22.7938
21
7.6190
0
LINE
5
754
100
AcDbEntity
8
top_copper
6
ByLayer
62
256
370
0
100
AcDbLine
10
22.7938
20
7.6190
11
21.2942
21
7.6190
0
HATCH
5
755
100
AcDbEntity
8
top_copper
6
ByLayer
62
256
370
0
100
AcDbHatch
10
0
20
0
30
0
210
0
220
0
230
1
2
SOLID
70
1
71
0
91
1
92
0
93
4
72
1
10
23.7072
20
7.6190
11
23.7072
21
6.3190
72
1
10
23.7072
20
6.3190
11
25.2068
21
6.3190
72
1
10
25.2068
20
6.3190
11
25.2068
21
7.6190
72
1
10
25.2068
20
7.6190
11
23.7072
21
7.6190
97
0
75
0
76
1
98
0
0
LINE
5
756
100
AcDbEntity
8
top_copper
6
ByLayer
62
256
370
0
100
AcDbLine
10
23.7072
20
7.6190
11
23.7072
21
6.3190
0
LINE
5
757
100
AcDbEntity
8
top_copper
6
ByLayer
62
256
370
0
100
AcDbLine
10
23.7072
20
6.3190
11
25.2068
21
6.3190
0
LINE
5
758
100
AcDbEntity
8
top_copper
6
ByLayer
62
256
370
0
100
AcDbLine
10
25.2068
20
6.3190
11
25.2068
21
7.6190
0
LINE
5
759
100
AcDbEntity
8
top_copper
6
ByLayer
62
256
370
0
100
AcDbLine
10
25.2068
20
7.6190
11
23.7072
21
7.6190
0
HATCH
5
760
100
AcDbEntity
8
top_copper
6
ByLayer
62
256
370
0
100
AcDbHatch
10
0
20
0
30
0
210
0
220
0
230
1
2
SOLID
70
1
71
0
91
1
92
0
93
4
72
1
10
21.2942
20
5.8192
11
21.2942
21
4.5192
72
1
10
21.2942
20
4.5192
11
22.7938
21
4.5192
72
1
10
22.7938
20
4.5192
11
22.7938
21
5.8192
72
1
10
22.7938
20
5.8192
11
21.2942
21
5.8192
97
0
75
0
76
1
98
0
0
LINE
5
761
100
AcDbEntity
8
top_copper
6
ByLayer
62
256
370
0
100
AcDbLine
10
21.2942
20
5.8192
11
21.2942
21
4.5192
0
LINE
5
762
100
AcDbEntity
8
top_copper
6
ByLayer
62
256
370
0
100
AcDbLine
10
21.2942
20
4.5192
11
22.7938
21
4.5192
0
LINE
5
763
100
AcDbEntity
8
top_copper
6
ByLayer
62
256
370
0
100
AcDbLine
10
22.7938
20
4.5192
11
22.7938
21
5.8192
0
LINE
5
764
100
AcDbEntity
8
top_copper
6
ByLayer
62
256
370
0
100
AcDbLine
10
22.7938
20
5.8192
11
21.2942
21
5.8192
0
HATCH
5
765
100
AcDbEntity
8
top_copper
6
ByLayer
62
256
370
0
100
AcDbHatch
10
0
20
0
30
0
210
0
220
0
230
1
2
SOLID
70
1
71
0
91
1
92
0
93
4
72
1
10
23.7072
20
5.8192
11
23.7072
21
4.5192
72
1
10
23.7072
20
4.5192
11
25.2068
21
4.5192
72
1
10
25.2068
20
4.5192
11
25.2068
21
5.8192
72
1
10
25.2068
20
5.8192
11
23.7072
21
5.8192
97
0
75
0
76
1
98
0
0
LINE
5
766
100
AcDbEntity
8
top_copper
6
ByLayer
62
256
370
0
100
AcDbLine
10
23.7072
20
5.8192
11
23.7072
21
4.5192
0
LINE
5
767
100
AcDbEntity
8
top_copper
6
ByLayer
62
256
370
0
100
AcDbLine
10
23.7072
20
4.5192
11
25.2068
21
4.5192
0
LINE
5
768
100
AcDbEntity
8
top_copper
6
ByLayer
62
256
370
0
100
AcDbLine
10
25.2068
20
4.5192
11
25.2068
21
5.8192
0
LINE
5
769
100
AcDbEntity
8
top_copper
6
ByLayer
62
256
370
0
100
AcDbLine
10
25.2068
20
5.8192
11
23.7072
21
5.8192
0
HATCH
5
770
100
AcDbEntity
8
top_copper
6
ByLayer
62
256
370
0
100
AcDbHatch
10
0
20
0
30
0
210
0
220
0
230
1
2
SOLID
70
1
71
0
91
1
92
0
93
4
72
1
10
28.0765
20
7.6040
11
26.1715
21
7.6040
72
1
10
26.1715
20
7.6040
11
26.1715
21
4.3020
72
1
10
26.1715
20
4.3020
11
28.0765
21
4.3020
72
1
10
28.0765
20
4.3020
11
28.0765
21
7.6040
97
0
75
0
76
1
98
0
0
LINE
5
771
100
AcDbEntity
8
top_copper
6
ByLayer
62
256
370
0
100
AcDbLine
10
28.0765
20
7.6040
11
26.1715
21
7.6040
0
LINE
5
772
100
AcDbEntity
8
top_copper
6
ByLayer
62
256
370
0
100
AcDbLine
10
26.1715
20
7.6040
11
26.1715
21
4.3020
0
LINE
5
773
100
AcDbEntity
8
top_copper
6
ByLayer
62
256
370
0
100
AcDbLine
10
26.1715
20
4.3020
11
28.0765
21
4.3020
0
LINE
5
774
100
AcDbEntity
8
top_copper
6
ByLayer
62
256
370
0
100
AcDbLine
10
28.0765
20
4.3020
11
28.0765
21
7.6040
0
HATCH
5
775
100
AcDbEntity
8
top_copper
6
ByLayer
62
256
370
0
100
AcDbHatch
10
0
20
0
30
0
210
0
220
0
230
1
2
SOLID
70
1
71
0
91
1
92
0
93
4
72
1
10
33.7915
20
7.6040
11
31.8865
21
7.6040
72
1
10
31.8865
20
7.6040
11
31.8865
21
4.3020
72
1
10
31.8865
20
4.3020
11
33.7915
21
4.3020
72
1
10
33.7915
20
4.3020
11
33.7915
21
7.6040
97
0
75
0
76
1
98
0
0
LINE
5
776
100
AcDbEntity
8
top_copper
6
ByLayer
62
256
370
0
100
AcDbLine
10
33.7915
20
7.6040
11
31.8865
21
7.6040
0
LINE
5
777
100
AcDbEntity
8
top_copper
6
ByLayer
62
256
370
0
100
AcDbLine
10
31.8865
20
7.6040
11
31.8865
21
4.3020
0
LINE
5
778
100
AcDbEntity
8
top_copper
6
ByLayer
62
256
370
0
100
AcDbLine
10
31.8865
20
4.3020
11
33.7915
21
4.3020
0
LINE
5
779
100
AcDbEntity
8
top_copper
6
ByLayer
62
256
370
0
100
AcDbLine
10
33.7915
20
4.3020
11
33.7915
21
7.6040
0
CIRCLE
5
780
100
AcDbEntity
8
top_copper
6
ByLayer
62
256
370
0
100
AcDbCircle
10
8.4550
20
25.2570
40
0.2540
0
HATCH
5
781
100
AcDbEntity
8
top_copper
6
ByLayer
62
256
370
0
100
AcDbHatch
10
0
20
0
30
0
210
0
220
0
230
1
2
SOLID
70
1
71
0
91
1
92
0
93
1
72
2
10
8.4550
20
25.2570
40
0.2540
50
0
51
360
73
1
97
0
75
0
76
1
98
0
0
CIRCLE
5
782
100
AcDbEntity
8
top_copper
6
ByLayer
62
256
370
0
100
AcDbCircle
10
11.5030
20
25.2570
40
0.2540
0
HATCH
5
783
100
AcDbEntity
8
top_copper
6
ByLayer
62
256
370
0
100
AcDbHatch
10
0
20
0
30
0
210
0
220
0
230
1
2
SOLID
70
1
71
0
91
1
92
0
93
1
72
2
10
11.5030
20
25.2570
40
0.2540
50
0
51
360
73
1
97
0
75
0
76
1
98
0
0
LINE
5
784
100
AcDbEntity
8
top_silk
6
ByLayer
62
256
370
25
100
AcDbLine
10
2.5720
20
1.8140
11
2.5720
21
26.8140
0
LINE
5
785
100
AcDbEntity
8
top_silk
6
ByLayer
62
256
370
25
100
AcDbLine
10
8.4720
20
22.1140
11
8.6720
21
22.1140
0
LINE
5
786
100
AcDbEntity
8
top_silk
6
ByLayer
62
256
370
25
100
AcDbLine
10
3.4720
20
22.1140
11
3.8720
21
22.1140
0
LINE
5
787
100
AcDbEntity
8
top_silk
6
ByLayer
62
256
370
25
100
AcDbLine
10
3.4720
20
6.5140
11
3.8720
21
6.5140
0
LINE
5
788
100
AcDbEntity
8
top_silk
6
ByLayer
62
256
370
25
100
AcDbLine
10
2.5720
20
14.3140
11
3.0720
21
14.3140
0
LINE
5
789
100
AcDbEntity
8
top_silk
6
ByLayer
62
256
370
25
100
AcDbLine
10
8.4720
20
6.5140
11
8.6720
21
6.5140
0
LINE
5
790
100
AcDbEntity
8
top_silk
6
ByLayer
62
256
370
25
100
AcDbLine
10
3.4720
20
22.1140
11
3.4720
21
6.5140
0
LINE
5
791
100
AcDbEntity
8
top_silk
6
ByLayer
62
256
370
25
100
AcDbLine
10
8.6720
20
8.0140
11
8.6720
21
6.5140
0
LINE
5
792
100
AcDbEntity
8
top_silk
6
ByLayer
62
256
370
25
100
AcDbLine
10
8.6720
20
22.1140
11
8.6720
21
20.6140
0
LINE
5
793
100
AcDbEntity
8
top_silk
6
ByLayer
62
256
370
25
100
AcDbLine
10
10.4720
20
19.8140
11
11.0720
21
19.8140
0
LINE
5
794
100
AcDbEntity
8
top_silk
6
ByLayer
62
256
370
25
100
AcDbLine
10
13.7128
20
16.3924
11
17.2434
21
16.3924
0
LINE
5
795
100
AcDbEntity
8
top_silk
6
ByLayer
62
256
370
25
100
AcDbLine
10
13.7128
20
19.6436
11
17.2434
21
19.6436
0
LINE
5
796
100
AcDbEntity
8
top_silk
6
ByLayer
62
256
370
25
100
AcDbLine
10
13.7128
20
19.6436
11
13.7128
21
16.3924
0
LINE
5
797
100
AcDbEntity
8
top_silk
6
ByLayer
62
256
370
20
100
AcDbLine
10
18.6772
20
24.2029
11
18.6772
21
24.0033
0
LINE
5
798
100
AcDbEntity
8
top_silk
6
ByLayer
62
256
370
25
100
AcDbLine
10
13.7128
20
22.3614
11
17.2434
21
22.3614
0
LINE
5
799
100
AcDbEntity
8
top_silk
6
ByLayer
62
256
370
20
100
AcDbLine
10
18.6554
20
18.2557
11
18.6554
21
18.0561
0
LINE
5
800
100
AcDbEntity
8
top_silk
6
ByLayer
62
256
370
25
100
AcDbLine
10
2.5720
20
26.8140
11
35.5720
21
26.8140
0
LINE
5
801
100
AcDbEntity
8
top_silk
6
ByLayer
62
256
370
20
100
AcDbLine
10
21.3442
20
24.2029
11
21.3442
21
24.0033
0
LINE
5
802
100
AcDbEntity
8
top_silk
6
ByLayer
62
256
370
20
100
AcDbLine
10
20.0768
20
24.2029
11
20.0768
21
24.0033
0
LINE
5
803
100
AcDbEntity
8
top_silk
6
ByLayer
62
256
370
20
100
AcDbLine
10
23.7572
20
24.2029
11
23.7572
21
24.0033
0
LINE
5
804
100
AcDbEntity
8
top_silk
6
ByLayer
62
256
370
20
100
AcDbLine
10
25.1568
20
24.2029
11
25.1568
21
24.0033
0
LINE
5
805
100
AcDbEntity
8
top_silk
6
ByLayer
62
256
370
25
100
AcDbLine
10
13.7128
20
25.6126
11
17.2434
21
25.6126
0
LINE
5
806
100
AcDbEntity
8
top_silk
6
ByLayer
62
256
370
25
100
AcDbLine
10
17.2434
20
25.6126
11
17.2434
21
22.3614
0
LINE
5
807
100
AcDbEntity
8
top_silk
6
ByLayer
62
256
370
25
100
AcDbLine
10
13.7128
20
25.6126
11
13.7128
21
22.3614
0
LINE
5
808
100
AcDbEntity
8
top_silk
6
ByLayer
62
256
370
20
100
AcDbLine
10
20.0550
20
18.2557
11
20.0550
21
18.0561
0
LINE
5
809
100
AcDbEntity
8
top_silk
6
ByLayer
62
256
370
20
100
AcDbLine
10
21.3442
20
18.2339
11
21.3442
21
18.0343
0
LINE
5
810
100
AcDbEntity
8
top_silk
6
ByLayer
62
256
370
20
100
AcDbLine
10
22.7438
20
18.2339
11
22.7438
21
18.0343
0
LINE
5
811
100
AcDbEntity
8
top_silk
6
ByLayer
62
256
370
20
100
AcDbLine
10
23.7572
20
18.2339
11
23.7572
21
18.0343
0
LINE
5
812
100
AcDbEntity
8
top_silk
6
ByLayer
62
256
370
20
100
AcDbLine
10
25.1568
20
18.2339
11
25.1568
21
18.0343
0
LINE
5
813
100
AcDbEntity
8
top_silk
6
ByLayer
62
256
370
15
100
AcDbLine
10
28.4575
20
19.6690
11
31.5055
21
19.6690
0
LINE
5
814
100
AcDbEntity
8
top_silk
6
ByLayer
62
256
370
15
100
AcDbLine
10
28.4575
20
16.3670
11
31.5055
21
16.3670
0
LINE
5
815
100
AcDbEntity
8
top_silk
6
ByLayer
62
256
370
25
100
AcDbLine
10
17.2434
20
19.6436
11
17.2434
21
16.3924
0
LINE
5
816
100
AcDbEntity
8
top_silk
6
ByLayer
62
256
370
15
100
AcDbLine
10
28.4575
20
25.6380
11
31.5055
21
25.6380
0
LINE
5
817
100
AcDbEntity
8
top_silk
6
ByLayer
62
256
370
15
100
AcDbLine
10
28.4575
20
22.3360
11
31.5055
21
22.3360
0
LINE
5
818
100
AcDbEntity
8
top_silk
6
ByLayer
62
256
370
20
100
AcDbLine
10
22.7438
20
24.2029
11
22.7438
21
24.0033
0
LINE
5
819
100
AcDbEntity
8
top_silk
6
ByLayer
62
256
370
25
100
AcDbLine
10
13.7128
20
10.4234
11
17.2434
21
10.4234
0
LINE
5
820
100
AcDbEntity
8
top_silk
6
ByLayer
62
256
370
25
100
AcDbLine
10
13.7128
20
7.5786
11
17.2434
21
7.5786
0
LINE
5
821
100
AcDbEntity
8
top_silk
6
ByLayer
62
256
370
25
100
AcDbLine
10
13.7128
20
7.5786
11
13.7128
21
4.3274
0
LINE
5
822
100
AcDbEntity
8
top_silk
6
ByLayer
62
256
370
25
100
AcDbLine
10
13.7128
20
4.3274
11
17.2434
21
4.3274
0
LINE
5
823
100
AcDbEntity
8
top_silk
6
ByLayer
62
256
370
25
100
AcDbLine
10
17.2434
20
7.5786
11
17.2434
21
4.3274
0
LINE
5
824
100
AcDbEntity
8
top_silk
6
ByLayer
62
256
370
20
100
AcDbLine
10
18.6772
20
6.1689
11
18.6772
21
5.9693
0
LINE
5
825
100
AcDbEntity
8
top_silk
6
ByLayer
62
256
370
20
100
AcDbLine
10
20.0768
20
6.1689
11
20.0768
21
5.9693
0
LINE
5
826
100
AcDbEntity
8
top_silk
6
ByLayer
62
256
370
20
100
AcDbLine
10
22.7438
20
6.1689
11
22.7438
21
5.9693
0
LINE
5
827
100
AcDbEntity
8
top_silk
6
ByLayer
62
256
370
20
100
AcDbLine
10
21.3442
20
6.1689
11
21.3442
21
5.9693
0
LINE
5
828
100
AcDbEntity
8
top_silk
6
ByLayer
62
256
370
20
100
AcDbLine
10
23.7572
20
6.1689
11
23.7572
21
5.9693
0
LINE
5
829
100
AcDbEntity
8
top_silk
6
ByLayer
62
256
370
20
100
AcDbLine
10
25.1568
20
6.1689
11
25.1568
21
5.9693
0
LINE
5
830
100
AcDbEntity
8
top_silk
6
ByLayer
62
256
370
15
100
AcDbLine
10
28.4575
20
4.3020
11
31.5055
21
4.3020
0
LINE
5
831
100
AcDbEntity
8
top_silk
6
ByLayer
62
256
370
25
100
AcDbLine
10
17.2434
20
13.6746
11
17.2434
21
10.4234
0
LINE
5
832
100
AcDbEntity
8
top_silk
6
ByLayer
62
256
370
20
100
AcDbLine
10
18.6772
20
12.2649
11
18.6772
21
12.0653
0
LINE
5
833
100
AcDbEntity
8
top_silk
6
ByLayer
62
256
370
20
100
AcDbLine
10
20.0768
20
12.2649
11
20.0768
21
12.0653
0
LINE
5
834
100
AcDbEntity
8
top_silk
6
ByLayer
62
256
370
20
100
AcDbLine
10
23.7572
20
12.2649
11
23.7572
21
12.0653
0
LINE
5
835
100
AcDbEntity
8
top_silk
6
ByLayer
62
256
370
20
100
AcDbLine
10
25.1568
20
12.2649
11
25.1568
21
12.0653
0
LINE
5
836
100
AcDbEntity
8
top_silk
6
ByLayer
62
256
370
20
100
AcDbLine
10
22.7438
20
12.2649
11
22.7438
21
12.0653
0
LINE
5
837
100
AcDbEntity
8
top_silk
6
ByLayer
62
256
370
20
100
AcDbLine
10
21.3442
20
12.2649
11
21.3442
21
12.0653
0
LINE
5
838
100
AcDbEntity
8
top_silk
6
ByLayer
62
256
370
15
100
AcDbLine
10
28.4575
20
10.3980
11
31.5055
21
10.3980
0
LINE
5
839
100
AcDbEntity
8
top_silk
6
ByLayer
62
256
370
15
100
AcDbLine
10
28.4575
20
7.6040
11
31.5055
21
7.6040
0
LINE
5
840
100
AcDbEntity
8
top_silk
6
ByLayer
62
256
370
25
100
AcDbLine
10
13.7128
20
13.6746
11
17.2434
21
13.6746
0
LINE
5
841
100
AcDbEntity
8
top_silk
6
ByLayer
62
256
370
15
100
AcDbLine
10
28.4575
20
13.7000
11
31.5055
21
13.7000
0
LINE
5
842
100
AcDbEntity
8
top_silk
6
ByLayer
62
256
370
25
100
AcDbLine
10
13.7128
20
13.6746
11
13.7128
21
10.4234
0
LINE
5
843
100
AcDbEntity
8
top_silk
6
ByLayer
62
256
370
25
100
AcDbLine
10
35.5720
20
26.8140
11
35.5720
21
1.8140
0
LINE
5
844
100
AcDbEntity
8
top_silk
6
ByLayer
62
256
370
25
100
AcDbLine
10
35.5720
20
1.8140
11
2.5720
21
1.8140
0
LINE
5
845
100
AcDbEntity
8
top_silk
6
ByLayer
62
256
370
25
100
AcDbLine
10
6.0720
20
14.8140
11
6.0720
21
13.8140
0
LINE
5
846
100
AcDbEntity
8
top_silk
6
ByLayer
62
256
370
25
100
AcDbLine
10
5.5720
20
14.3140
11
6.5720
21
14.3140
0
LINE
5
847
100
AcDbEntity
8
top_silk
6
ByLayer
62
256
370
18
100
AcDbLine
10
8.7968
20
5.9880
11
9.0000
21
5.9880
0
LINE
5
848
100
AcDbEntity
8
top_silk
6
ByLayer
62
256
370
18
100
AcDbLine
10
9.0000
20
5.9880
11
9.0000
21
5.0990
0
LINE
5
849
100
AcDbEntity
8
top_silk
6
ByLayer
62
256
370
18
100
AcDbLine
10
8.8730
20
4.9720
11
9.0000
21
5.0990
0
LINE
5
850
100
AcDbEntity
8
top_silk
6
ByLayer
62
256
370
18
100
AcDbLine
10
8.7460
20
4.9720
11
8.8730
21
4.9720
0
LINE
5
851
100
AcDbEntity
8
top_silk
6
ByLayer
62
256
370
18
100
AcDbLine
10
8.6190
20
5.0990
11
8.7460
21
4.9720
0
LINE
5
852
100
AcDbEntity
8
top_silk
6
ByLayer
62
256
370
18
100
AcDbLine
10
8.6190
20
5.0990
11
8.6190
21
5.2260
0
LINE
5
853
100
AcDbEntity
8
top_silk
6
ByLayer
62
256
370
18
100
AcDbLine
10
9.3048
20
5.7848
11
9.5080
21
5.9880
0
LINE
5
854
100
AcDbEntity
8
top_silk
6
ByLayer
62
256
370
18
100
AcDbLine
10
9.5080
20
5.9880
11
9.5080
21
4.9720
0
LINE
5
855
100
AcDbEntity
8
top_silk
6
ByLayer
62
256
370
18
100
AcDbLine
10
9.3048
20
4.9720
11
9.6858
21
4.9720
0
LINE
5
856
100
AcDbEntity
8
top_silk
6
ByLayer
62
256
370
18
100
AcDbLine
10
11.5226
20
18.5048
11
11.5226
21
17.5751
0
LINE
5
857
100
AcDbEntity
8
top_silk
6
ByLayer
62
256
370
18
100
AcDbLine
10
11.5226
20
18.5048
11
11.6775
21
18.6597
0
LINE
5
858
100
AcDbEntity
8
top_silk
6
ByLayer
62
256
370
18
100
AcDbLine
10
11.6775
20
18.6597
11
11.9874
21
18.6597
0
LINE
5
859
100
AcDbEntity
8
top_silk
6
ByLayer
62
256
370
18
100
AcDbLine
10
11.9874
20
18.6597
11
12.1424
21
18.5048
0
LINE
5
860
100
AcDbEntity
8
top_silk
6
ByLayer
62
256
370
18
100
AcDbLine
10
12.1424
20
18.5048
11
12.1424
21
17.7301
0
LINE
5
861
100
AcDbEntity
8
top_silk
6
ByLayer
62
256
370
18
100
AcDbLine
10
11.8325
20
17.4202
11
12.1424
21
17.7301
0
LINE
5
862
100
AcDbEntity
8
top_silk
6
ByLayer
62
256
370
18
100
AcDbLine
10
11.6775
20
17.4202
11
11.8325
21
17.4202
0
LINE
5
863
100
AcDbEntity
8
top_silk
6
ByLayer
62
256
370
18
100
AcDbLine
10
11.5226
20
17.5751
11
11.6775
21
17.4202
0
LINE
5
864
100
AcDbEntity
8
top_silk
6
ByLayer
62
256
370
18
100
AcDbLine
10
11.8325
20
17.8850
11
12.1424
21
17.4202
0
LINE
5
865
100
AcDbEntity
8
top_silk
6
ByLayer
62
256
370
18
100
AcDbLine
10
12.5142
20
18.5048
11
12.6692
21
18.6597
0
LINE
5
866
100
AcDbEntity
8
top_silk
6
ByLayer
62
256
370
18
100
AcDbLine
10
12.6692
20
18.6597
11
12.9790
21
18.6597
0
LINE
5
867
100
AcDbEntity
8
top_silk
6
ByLayer
62
256
370
18
100
AcDbLine
10
12.9790
20
18.6597
11
13.1340
21
18.5048
0
LINE
5
868
100
AcDbEntity
8
top_silk
6
ByLayer
62
256
370
18
100
AcDbLine
10
12.9790
20
17.4202
11
13.1340
21
17.5751
0
LINE
5
869
100
AcDbEntity
8
top_silk
6
ByLayer
62
256
370
18
100
AcDbLine
10
12.6692
20
17.4202
11
12.9790
21
17.4202
0
LINE
5
870
100
AcDbEntity
8
top_silk
6
ByLayer
62
256
370
18
100
AcDbLine
10
12.5142
20
17.5751
11
12.6692
21
17.4202
0
LINE
5
871
100
AcDbEntity
8
top_silk
6
ByLayer
62
256
370
18
100
AcDbLine
10
12.6692
20
18.1019
11
12.9790
21
18.1019
0
LINE
5
872
100
AcDbEntity
8
top_silk
6
ByLayer
62
256
370
18
100
AcDbLine
10
13.1340
20
18.5048
11
13.1340
21
18.2569
0
LINE
5
873
100
AcDbEntity
8
top_silk
6
ByLayer
62
256
370
18
100
AcDbLine
10
13.1340
20
17.9470
11
13.1340
21
17.5751
0
LINE
5
874
100
AcDbEntity
8
top_silk
6
ByLayer
62
256
370
18
100
AcDbLine
10
13.1340
20
17.9470
11
12.9790
21
18.1019
0
LINE
5
875
100
AcDbEntity
8
top_silk
6
ByLayer
62
256
370
18
100
AcDbLine
10
13.1340
20
18.2569
11
12.9790
21
18.1019
0
LINE
5
876
100
AcDbEntity
8
top_silk
6
ByLayer
62
256
370
18
100
AcDbLine
10
11.4590
20
12.4962
11
11.4590
21
11.5665
0
LINE
5
877
100
AcDbEntity
8
top_silk
6
ByLayer
62
256
370
18
100
AcDbLine
10
11.4590
20
12.4962
11
11.6139
21
12.6511
0
LINE
5
878
100
AcDbEntity
8
top_silk
6
ByLayer
62
256
370
18
100
AcDbLine
10
11.6139
20
12.6511
11
11.9238
21
12.6511
0
LINE
5
879
100
AcDbEntity
8
top_silk
6
ByLayer
62
256
370
18
100
AcDbLine
10
11.9238
20
12.6511
11
12.0788
21
12.4962
0
LINE
5
880
100
AcDbEntity
8
top_silk
6
ByLayer
62
256
370
18
100
AcDbLine
10
12.0788
20
12.4962
11
12.0788
21
11.7215
0
LINE
5
881
100
AcDbEntity
8
top_silk
6
ByLayer
62
256
370
18
100
AcDbLine
10
11.7689
20
11.4116
11
12.0788
21
11.7215
0
LINE
5
882
100
AcDbEntity
8
top_silk
6
ByLayer
62
256
370
18
100
AcDbLine
10
11.6139
20
11.4116
11
11.7689
21
11.4116
0
LINE
5
883
100
AcDbEntity
8
top_silk
6
ByLayer
62
256
370
18
100
AcDbLine
10
11.4590
20
11.5665
11
11.6139
21
11.4116
0
LINE
5
884
100
AcDbEntity
8
top_silk
6
ByLayer
62
256
370
18
100
AcDbLine
10
11.7689
20
11.8764
11
12.0788
21
11.4116
0
LINE
5
885
100
AcDbEntity
8
top_silk
6
ByLayer
62
256
370
18
100
AcDbLine
10
12.4506
20
12.4962
11
12.6056
21
12.6511
0
LINE
5
886
100
AcDbEntity
8
top_silk
6
ByLayer
62
256
370
18
100
AcDbLine
10
12.6056
20
12.6511
11
13.0704
21
12.6511
0
LINE
5
887
100
AcDbEntity
8
top_silk
6
ByLayer
62
256
370
18
100
AcDbLine
10
13.0704
20
12.6511
11
13.2253
21
12.4962
0
LINE
5
888
100
AcDbEntity
8
top_silk
6
ByLayer
62
256
370
18
100
AcDbLine
10
13.2253
20
12.4962
11
13.2253
21
12.1863
0
LINE
5
889
100
AcDbEntity
8
top_silk
6
ByLayer
62
256
370
18
100
AcDbLine
10
12.4506
20
11.4116
11
13.2253
21
12.1863
0
LINE
5
890
100
AcDbEntity
8
top_silk
6
ByLayer
62
256
370
18
100
AcDbLine
10
12.4506
20
11.4116
11
13.2253
21
11.4116
0
LINE
5
891
100
AcDbEntity
8
top_silk
6
ByLayer
62
256
370
18
100
AcDbLine
10
11.6808
20
6.3518
11
11.6808
21
5.4221
0
LINE
5
892
100
AcDbEntity
8
top_silk
6
ByLayer
62
256
370
18
100
AcDbLine
10
11.6808
20
6.3518
11
11.8357
21
6.5067
0
LINE
5
893
100
AcDbEntity
8
top_silk
6
ByLayer
62
256
370
18
100
AcDbLine
10
11.8357
20
6.5067
11
12.1456
21
6.5067
0
LINE
5
894
100
AcDbEntity
8
top_silk
6
ByLayer
62
256
370
18
100
AcDbLine
10
12.1456
20
6.5067
11
12.3006
21
6.3518
0
LINE
5
895
100
AcDbEntity
8
top_silk
6
ByLayer
62
256
370
18
100
AcDbLine
10
12.3006
20
6.3518
11
12.3006
21
5.5771
0
LINE
5
896
100
AcDbEntity
8
top_silk
6
ByLayer
62
256
370
18
100
AcDbLine
10
11.9907
20
5.2672
11
12.3006
21
5.5771
0
LINE
5
897
100
AcDbEntity
8
top_silk
6
ByLayer
62
256
370
18
100
AcDbLine
10
11.8357
20
5.2672
11
11.9907
21
5.2672
0
LINE
5
898
100
AcDbEntity
8
top_silk
6
ByLayer
62
256
370
18
100
AcDbLine
10
11.6808
20
5.4221
11
11.8357
21
5.2672
0
LINE
5
899
100
AcDbEntity
8
top_silk
6
ByLayer
62
256
370
18
100
AcDbLine
10
11.9907
20
5.7320
11
12.3006
21
5.2672
0
LINE
5
900
100
AcDbEntity
8
top_silk
6
ByLayer
62
256
370
18
100
AcDbLine
10
12.6724
20
6.2588
11
12.9203
21
6.5067
0
LINE
5
901
100
AcDbEntity
8
top_silk
6
ByLayer
62
256
370
18
100
AcDbLine
10
12.9203
20
6.5067
11
12.9203
21
5.2672
0
LINE
5
902
100
AcDbEntity
8
top_silk
6
ByLayer
62
256
370
18
100
AcDbLine
10
12.6724
20
5.2672
11
13.1372
21
5.2672
0
LINE
5
903
100
AcDbEntity
8
top_silk
6
ByLayer
62
256
370
18
100
AcDbLine
10
11.3692
20
24.5586
11
11.3692
21
23.6289
0
LINE
5
904
100
AcDbEntity
8
top_silk
6
ByLayer
62
256
370
18
100
AcDbLine
10
11.3692
20
24.5586
11
11.5241
21
24.7135
0
LINE
5
905
100
AcDbEntity
8
top_silk
6
ByLayer
62
256
370
18
100
AcDbLine
10
11.5241
20
24.7135
11
11.8340
21
24.7135
0
LINE
5
906
100
AcDbEntity
8
top_silk
6
ByLayer
62
256
370
18
100
AcDbLine
10
11.8340
20
24.7135
11
11.9890
21
24.5586
0
LINE
5
907
100
AcDbEntity
8
top_silk
6
ByLayer
62
256
370
18
100
AcDbLine
10
11.9890
20
24.5586
11
11.9890
21
23.7839
0
LINE
5
908
100
AcDbEntity
8
top_silk
6
ByLayer
62
256
370
18
100
AcDbLine
10
11.6791
20
23.4740
11
11.9890
21
23.7839
0
LINE
5
909
100
AcDbEntity
8
top_silk
6
ByLayer
62
256
370
18
100
AcDbLine
10
11.5241
20
23.4740
11
11.6791
21
23.4740
0
LINE
5
910
100
AcDbEntity
8
top_silk
6
ByLayer
62
256
370
18
100
AcDbLine
10
11.3692
20
23.6289
11
11.5241
21
23.4740
0
LINE
5
911
100
AcDbEntity
8
top_silk
6
ByLayer
62
256
370
18
100
AcDbLine
10
11.6791
20
23.9388
11
11.9890
21
23.4740
0
LINE
5
912
100
AcDbEntity
8
top_silk
6
ByLayer
62
256
370
18
100
AcDbLine
10
12.3608
20
23.9388
11
12.9806
21
24.7135
0
LINE
5
913
100
AcDbEntity
8
top_silk
6
ByLayer
62
256
370
18
100
AcDbLine
10
12.3608
20
23.9388
11
13.1355
21
23.9388
0
LINE
5
914
100
AcDbEntity
8
top_silk
6
ByLayer
62
256
370
18
100
AcDbLine
10
12.9806
20
24.7135
11
12.9806
21
23.4740
0
LINE
5
915
100
AcDbEntity
8
top_silk
6
ByLayer
62
256
370
18
100
AcDbLine
10
12.1957
20
2.8032
11
12.5325
21
2.8032
0
LINE
5
916
100
AcDbEntity
8
top_silk
6
ByLayer
62
256
370
18
100
AcDbLine
10
12.0143
20
2.9846
11
12.1957
21
2.8032
0
LINE
5
917
100
AcDbEntity
8
top_silk
6
ByLayer
62
256
370
18
100
AcDbLine
10
12.0143
20
3.6582
11
12.0143
21
2.9846
0
LINE
5
918
100
AcDbEntity
8
top_silk
6
ByLayer
62
256
370
18
100
AcDbLine
10
12.0143
20
3.6582
11
12.1957
21
3.8395
0
LINE
5
919
100
AcDbEntity
8
top_silk
6
ByLayer
62
256
370
18
100
AcDbLine
10
12.1957
20
3.8395
11
12.5325
21
3.8395
0
LINE
5
920
100
AcDbEntity
8
top_silk
6
ByLayer
62
256
370
18
100
AcDbLine
10
12.9729
20
3.8395
11
12.9729
21
2.8032
0
LINE
5
921
100
AcDbEntity
8
top_silk
6
ByLayer
62
256
370
18
100
AcDbLine
10
13.3097
20
3.8395
11
13.4911
21
3.6582
0
LINE
5
922
100
AcDbEntity
8
top_silk
6
ByLayer
62
256
370
18
100
AcDbLine
10
13.4911
20
3.6582
11
13.4911
21
2.9846
0
LINE
5
923
100
AcDbEntity
8
top_silk
6
ByLayer
62
256
370
18
100
AcDbLine
10
13.3097
20
2.8032
11
13.4911
21
2.9846
0
LINE
5
924
100
AcDbEntity
8
top_silk
6
ByLayer
62
256
370
18
100
AcDbLine
10
12.8434
20
2.8032
11
13.3097
21
2.8032
0
LINE
5
925
100
AcDbEntity
8
top_silk
6
ByLayer
62
256
370
18
100
AcDbLine
10
12.8434
20
3.8395
11
13.3097
21
3.8395
0
LINE
5
926
100
AcDbEntity
8
top_silk
6
ByLayer
62
256
370
18
100
AcDbLine
10
13.8020
20
3.8395
11
14.3201
21
3.8395
0
LINE
5
927
100
AcDbEntity
8
top_silk
6
ByLayer
62
256
370
18
100
AcDbLine
10
14.0610
20
3.8395
11
14.0610
21
2.8032
0
LINE
5
928
100
AcDbEntity
8
top_silk
6
ByLayer
62
256
370
18
100
AcDbLine
10
15.0974
20
3.7100
11
15.2269
21
3.8395
0
LINE
5
929
100
AcDbEntity
8
top_silk
6
ByLayer
62
256
370
18
100
AcDbLine
10
15.2269
20
3.8395
11
15.6155
21
3.8395
0
LINE
5
930
100
AcDbEntity
8
top_silk
6
ByLayer
62
256
370
18
100
AcDbLine
10
15.6155
20
3.8395
11
15.7451
21
3.7100
0
LINE
5
931
100
AcDbEntity
8
top_silk
6
ByLayer
62
256
370
18
100
AcDbLine
10
15.7451
20
3.7100
11
15.7451
21
3.4509
0
LINE
5
932
100
AcDbEntity
8
top_silk
6
ByLayer
62
256
370
18
100
AcDbLine
10
15.0974
20
2.8032
11
15.7451
21
3.4509
0
LINE
5
933
100
AcDbEntity
8
top_silk
6
ByLayer
62
256
370
18
100
AcDbLine
10
15.0974
20
2.8032
11
15.7451
21
2.8032
0
LINE
5
934
100
AcDbEntity
8
top_silk
6
ByLayer
62
256
370
18
100
AcDbLine
10
16.0560
20
2.9327
11
16.1855
21
2.8032
0
LINE
5
935
100
AcDbEntity
8
top_silk
6
ByLayer
62
256
370
18
100
AcDbLine
10
16.0560
20
3.7100
11
16.0560
21
2.9327
0
LINE
5
936
100
AcDbEntity
8
top_silk
6
ByLayer
62
256
370
18
100
AcDbLine
10
16.0560
20
3.7100
11
16.1855
21
3.8395
0
LINE
5
937
100
AcDbEntity
8
top_silk
6
ByLayer
62
256
370
18
100
AcDbLine
10
16.1855
20
3.8395
11
16.4446
21
3.8395
0
LINE
5
938
100
AcDbEntity
8
top_silk
6
ByLayer
62
256
370
18
100
AcDbLine
10
16.4446
20
3.8395
11
16.5741
21
3.7100
0
LINE
5
939
100
AcDbEntity
8
top_silk
6
ByLayer
62
256
370
18
100
AcDbLine
10
16.5741
20
3.7100
11
16.5741
21
2.9327
0
LINE
5
940
100
AcDbEntity
8
top_silk
6
ByLayer
62
256
370
18
100
AcDbLine
10
16.4446
20
2.8032
11
16.5741
21
2.9327
0
LINE
5
941
100
AcDbEntity
8
top_silk
6
ByLayer
62
256
370
18
100
AcDbLine
10
16.1855
20
2.8032
11
16.4446
21
2.8032
0
LINE
5
942
100
AcDbEntity
8
top_silk
6
ByLayer
62
256
370
18
100
AcDbLine
10
16.0560
20
3.0623
11
16.5741
21
3.5804
0
LINE
5
943
100
AcDbEntity
8
top_silk
6
ByLayer
62
256
370
18
100
AcDbLine
10
16.8850
20
3.7100
11
17.0145
21
3.8395
0
LINE
5
944
100
AcDbEntity
8
top_silk
6
ByLayer
62
256
370
18
100
AcDbLine
10
17.0145
20
3.8395
11
17.4032
21
3.8395
0
LINE
5
945
100
AcDbEntity
8
top_silk
6
ByLayer
62
256
370
18
100
AcDbLine
10
17.4032
20
3.8395
11
17.5327
21
3.7100
0
LINE
5
946
100
AcDbEntity
8
top_silk
6
ByLayer
62
256
370
18
100
AcDbLine
10
17.5327
20
3.7100
11
17.5327
21
3.4509
0
LINE
5
947
100
AcDbEntity
8
top_silk
6
ByLayer
62
256
370
18
100
AcDbLine
10
16.8850
20
2.8032
11
17.5327
21
3.4509
0
LINE
5
948
100
AcDbEntity
8
top_silk
6
ByLayer
62
256
370
18
100
AcDbLine
10
16.8850
20
2.8032
11
17.5327
21
2.8032
0
LINE
5
949
100
AcDbEntity
8
top_silk
6
ByLayer
62
256
370
18
100
AcDbLine
10
17.8436
20
2.9327
11
17.9731
21
2.8032
0
LINE
5
950
100
AcDbEntity
8
top_silk
6
ByLayer
62
256
370
18
100
AcDbLine
10
17.8436
20
3.7100
11
17.8436
21
2.9327
0
LINE
5
951
100
AcDbEntity
8
top_silk
6
ByLayer
62
256
370
18
100
AcDbLine
10
17.8436
20
3.7100
11
17.9731
21
3.8395
0
LINE
5
952
100
AcDbEntity
8
top_silk
6
ByLayer
62
256
370
18
100
AcDbLine
10
17.9731
20
3.8395
11
18.2322
21
3.8395
0
LINE
5
953
100
AcDbEntity
8
top_silk
6
ByLayer
62
256
370
18
100
AcDbLine
10
18.2322
20
3.8395
11
18.3618
21
3.7100
0
LINE
5
954
100
AcDbEntity
8
top_silk
6
ByLayer
62
256
370
18
100
AcDbLine
10
18.3618
20
3.7100
11
18.3618
21
2.9327
0
LINE
5
955
100
AcDbEntity
8
top_silk
6
ByLayer
62
256
370
18
100
AcDbLine
10
18.2322
20
2.8032
11
18.3618
21
2.9327
0
LINE
5
956
100
AcDbEntity
8
top_silk
6
ByLayer
62
256
370
18
100
AcDbLine
10
17.9731
20
2.8032
11
18.2322
21
2.8032
0
LINE
5
957
100
AcDbEntity
8
top_silk
6
ByLayer
62
256
370
18
100
AcDbLine
10
17.8436
20
3.0623
11
18.3618
21
3.5804
0
LINE
5
958
100
AcDbEntity
8
top_silk
6
ByLayer
62
256
370
18
100
AcDbLine
10
20.5380
20
3.8395
11
20.5380
21
2.8032
0
LINE
5
959
100
AcDbEntity
8
top_silk
6
ByLayer
62
256
370
18
100
AcDbLine
10
20.5380
20
3.8395
11
21.1857
21
2.8032
0
LINE
5
960
100
AcDbEntity
8
top_silk
6
ByLayer
62
256
370
18
100
AcDbLine
10
21.1857
20
3.8395
11
21.1857
21
2.8032
0
LINE
5
961
100
AcDbEntity
8
top_silk
6
ByLayer
62
256
370
18
100
AcDbLine
10
21.4966
20
3.8395
11
21.4966
21
2.8032
0
LINE
5
962
100
AcDbEntity
8
top_silk
6
ByLayer
62
256
370
18
100
AcDbLine
10
21.4966
20
3.8395
11
21.8853
21
3.3214
0
LINE
5
963
100
AcDbEntity
8
top_silk
6
ByLayer
62
256
370
18
100
AcDbLine
10
21.8853
20
3.3214
11
22.2739
21
3.8395
0
LINE
5
964
100
AcDbEntity
8
top_silk
6
ByLayer
62
256
370
18
100
AcDbLine
10
22.2739
20
3.8395
11
22.2739
21
2.8032
0
LINE
5
965
100
AcDbEntity
8
top_silk
6
ByLayer
62
256
370
18
100
AcDbLine
10
24.9345
20
3.8694
11
24.9345
21
2.8331
0
LINE
5
966
100
AcDbEntity
8
top_silk
6
ByLayer
62
256
370
18
100
AcDbLine
10
24.9345
20
3.3513
11
25.4527
21
3.8694
0
LINE
5
967
100
AcDbEntity
8
top_silk
6
ByLayer
62
256
370
18
100
AcDbLine
10
24.9345
20
3.3513
11
25.4527
21
2.8331
0
LINE
5
968
100
AcDbEntity
8
top_silk
6
ByLayer
62
256
370
18
100
AcDbLine
10
26.2817
20
3.8694
11
26.4113
21
3.7399
0
LINE
5
969
100
AcDbEntity
8
top_silk
6
ByLayer
62
256
370
18
100
AcDbLine
10
25.8931
20
3.8694
11
26.2817
21
3.8694
0
LINE
5
970
100
AcDbEntity
8
top_silk
6
ByLayer
62
256
370
18
100
AcDbLine
10
25.7636
20
3.7399
11
25.8931
21
3.8694
0
LINE
5
971
100
AcDbEntity
8
top_silk
6
ByLayer
62
256
370
18
100
AcDbLine
10
25.7636
20
3.7399
11
25.7636
21
2.9626
0
LINE
5
972
100
AcDbEntity
8
top_silk
6
ByLayer
62
256
370
18
100
AcDbLine
10
25.7636
20
2.9626
11
25.8931
21
2.8331
0
LINE
5
973
100
AcDbEntity
8
top_silk
6
ByLayer
62
256
370
18
100
AcDbLine
10
25.8931
20
2.8331
11
26.2817
21
2.8331
0
LINE
5
974
100
AcDbEntity
8
top_silk
6
ByLayer
62
256
370
18
100
AcDbLine
10
26.2817
20
2.8331
11
26.4113
21
2.9626
0
LINE
5
975
100
AcDbEntity
8
top_silk
6
ByLayer
62
256
370
18
100
AcDbLine
10
26.4113
20
3.2217
11
26.4113
21
2.9626
0
LINE
5
976
100
AcDbEntity
8
top_silk
6
ByLayer
62
256
370
18
100
AcDbLine
10
26.2817
20
3.3513
11
26.4113
21
3.2217
0
LINE
5
977
100
AcDbEntity
8
top_silk
6
ByLayer
62
256
370
18
100
AcDbLine
10
26.0226
20
3.3513
11
26.2817
21
3.3513
0
LINE
5
978
100
AcDbEntity
8
top_silk
6
ByLayer
62
256
370
18
100
AcDbLine
10
26.8517
20
3.8694
11
26.8517
21
2.8331
0
LINE
5
979
100
AcDbEntity
8
top_silk
6
ByLayer
62
256
370
18
100
AcDbLine
10
27.1885
20
3.8694
11
27.3699
21
3.6881
0
LINE
5
980
100
AcDbEntity
8
top_silk
6
ByLayer
62
256
370
18
100
AcDbLine
10
27.3699
20
3.6881
11
27.3699
21
3.0145
0
LINE
5
981
100
AcDbEntity
8
top_silk
6
ByLayer
62
256
370
18
100
AcDbLine
10
27.1885
20
2.8331
11
27.3699
21
3.0145
0
LINE
5
982
100
AcDbEntity
8
top_silk
6
ByLayer
62
256
370
18
100
AcDbLine
10
26.7222
20
2.8331
11
27.1885
21
2.8331
0
LINE
5
983
100
AcDbEntity
8
top_silk
6
ByLayer
62
256
370
18
100
AcDbLine
10
26.7222
20
3.8694
11
27.1885
21
3.8694
0
LINE
5
984
100
AcDbEntity
8
top_silk
6
ByLayer
62
256
370
18
100
AcDbLine
10
27.6808
20
2.8331
11
28.1989
21
2.8331
0
LINE
5
985
100
AcDbEntity
8
top_silk
6
ByLayer
62
256
370
18
100
AcDbLine
10
28.5098
20
3.2217
11
29.0280
21
3.8694
0
LINE
5
986
100
AcDbEntity
8
top_silk
6
ByLayer
62
256
370
18
100
AcDbLine
10
28.5098
20
3.2217
11
29.1575
21
3.2217
0
LINE
5
987
100
AcDbEntity
8
top_silk
6
ByLayer
62
256
370
18
100
AcDbLine
10
29.0280
20
3.8694
11
29.0280
21
2.8331
0
LINE
5
988
100
AcDbEntity
8
top_silk
6
ByLayer
62
256
370
18
100
AcDbLine
10
29.4684
20
2.8331
11
30.1161
21
3.8694
0
LINE
5
989
100
AcDbEntity
8
top_silk
6
ByLayer
62
256
370
18
100
AcDbLine
10
29.4684
20
3.8694
11
30.1161
21
2.8331
0
LINE
5
990
100
AcDbEntity
8
top_silk
6
ByLayer
62
256
370
18
100
AcDbLine
10
30.4270
20
2.8331
11
30.9452
21
2.8331
0
LINE
5
991
100
AcDbEntity
8
top_silk
6
ByLayer
62
256
370
18
100
AcDbLine
10
31.2561
20
3.8694
11
31.5151
21
2.8331
0
LINE
5
992
100
AcDbEntity
8
top_silk
6
ByLayer
62
256
370
18
100
AcDbLine
10
31.5151
20
2.8331
11
31.7742
21
3.8694
0
LINE
5
993
100
AcDbEntity
8
top_silk
6
ByLayer
62
256
370
18
100
AcDbLine
10
32.0851
20
2.9626
11
32.2147
21
2.8331
0
LINE
5
994
100
AcDbEntity
8
top_silk
6
ByLayer
62
256
370
18
100
AcDbLine
10
32.0851
20
3.7399
11
32.0851
21
2.9626
0
LINE
5
995
100
AcDbEntity
8
top_silk
6
ByLayer
62
256
370
18
100
AcDbLine
10
32.0851
20
3.7399
11
32.2147
21
3.8694
0
LINE
5
996
100
AcDbEntity
8
top_silk
6
ByLayer
62
256
370
18
100
AcDbLine
10
32.2147
20
3.8694
11
32.4737
21
3.8694
0
LINE
5
997
100
AcDbEntity
8
top_silk
6
ByLayer
62
256
370
18
100
AcDbLine
10
32.4737
20
3.8694
11
32.6033
21
3.7399
0
LINE
5
998
100
AcDbEntity
8
top_silk
6
ByLayer
62
256
370
18
100
AcDbLine
10
32.6033
20
3.7399
11
32.6033
21
2.9626
0
LINE
5
999
100
AcDbEntity
8
top_silk
6
ByLayer
62
256
370
18
100
AcDbLine
10
32.4737
20
2.8331
11
32.6033
21
2.9626
0
LINE
5
1000
100
AcDbEntity
8
top_silk
6
ByLayer
62
256
370
18
100
AcDbLine
10
32.2147
20
2.8331
11
32.4737
21
2.8331
0
LINE
5
1001
100
AcDbEntity
8
top_silk
6
ByLayer
62
256
370
18
100
AcDbLine
10
32.0851
20
3.0922
11
32.6033
21
3.6103
0
LINE
5
1002
100
AcDbEntity
8
top_silk
6
ByLayer
62
256
370
18
100
AcDbLine
10
32.9142
20
2.8331
11
33.4323
21
2.8331
0
LINE
5
1003
100
AcDbEntity
8
top_silk
6
ByLayer
62
256
370
18
100
AcDbLine
10
33.7432
20
2.9626
11
33.8728
21
2.8331
0
LINE
5
1004
100
AcDbEntity
8
top_silk
6
ByLayer
62
256
370
18
100
AcDbLine
10
33.7432
20
3.7399
11
33.7432
21
2.9626
0
LINE
5
1005
100
AcDbEntity
8
top_silk
6
ByLayer
62
256
370
18
100
AcDbLine
10
33.7432
20
3.7399
11
33.8728
21
3.8694
0
LINE
5
1006
100
AcDbEntity
8
top_silk
6
ByLayer
62
256
370
18
100
AcDbLine
10
33.8728
20
3.8694
11
34.1319
21
3.8694
0
LINE
5
1007
100
AcDbEntity
8
top_silk
6
ByLayer
62
256
370
18
100
AcDbLine
10
34.1319
20
3.8694
11
34.2614
21
3.7399
0
LINE
5
1008
100
AcDbEntity
8
top_silk
6
ByLayer
62
256
370
18
100
AcDbLine
10
34.2614
20
3.7399
11
34.2614
21
2.9626
0
LINE
5
1009
100
AcDbEntity
8
top_silk
6
ByLayer
62
256
370
18
100
AcDbLine
10
34.1319
20
2.8331
11
34.2614
21
2.9626
0
LINE
5
1010
100
AcDbEntity
8
top_silk
6
ByLayer
62
256
370
18
100
AcDbLine
10
33.8728
20
2.8331
11
34.1319
21
2.8331
0
LINE
5
1011
100
AcDbEntity
8
top_silk
6
ByLayer
62
256
370
18
100
AcDbLine
10
33.7432
20
3.0922
11
34.2614
21
3.6103
0
LINE
5
1012
100
AcDbEntity
8
top_silk
6
ByLayer
62
256
370
18
100
AcDbLine
10
5.5848
20
25.6888
11
5.5848
21
24.6728
0
LINE
5
1013
100
AcDbEntity
8
top_silk
6
ByLayer
62
256
370
18
100
AcDbLine
10
5.5848
20
24.6728
11
6.0928
21
24.6728
0
LINE
5
1014
100
AcDbEntity
8
top_silk
6
ByLayer
62
256
370
18
100
AcDbLine
10
6.3976
20
25.6888
11
6.3976
21
24.6728
0
LINE
5
1015
100
AcDbEntity
8
top_silk
6
ByLayer
62
256
370
18
100
AcDbLine
10
6.3976
20
25.1808
11
6.9056
21
25.6888
0
LINE
5
1016
100
AcDbEntity
8
top_silk
6
ByLayer
62
256
370
18
100
AcDbLine
10
6.3976
20
25.1808
11
6.9056
21
24.6728
0
LINE
5
1017
100
AcDbEntity
8
top_silk
6
ByLayer
62
256
370
18
100
AcDbLine
10
7.2104
20
25.4856
11
7.4136
21
25.6888
0
LINE
5
1018
100
AcDbEntity
8
top_silk
6
ByLayer
62
256
370
18
100
AcDbLine
10
7.4136
20
25.6888
11
7.4136
21
24.6728
0
LINE
5
1019
100
AcDbEntity
8
top_silk
6
ByLayer
62
256
370
18
100
AcDbLine
10
7.2104
20
24.6728
11
7.5914
21
24.6728
0
CIRCLE
5
1020
100
AcDbEntity
8
drill_plated
6
ByLayer
62
256
370
0
100
AcDbCircle
10
8.4550
20
25.2570
40
0.2540
0
HATCH
5
1021
100
AcDbEntity
8
drill_plated
6
ByLayer
62
256
370
0
100
AcDbHatch
10
0
20
0
30
0
210
0
220
0
230
1
2
SOLID
70
1
71
0
91
1
92
0
93
1
72
2
10
8.4550
20
25.2570
40
0.2540
50
0
51
360
73
1
97
0
75
0
76
1
98
0
0
CIRCLE
5
1022
100
AcDbEntity
8
drill_plated
6
ByLayer
62
256
370
0
100
AcDbCircle
10
11.5030
20
25.2570
40
0.2540
0
HATCH
5
1023
100
AcDbEntity
8
drill_plated
6
ByLayer
62
256
370
0
100
AcDbHatch
10
0
20
0
30
0
210
0
220
0
230
1
2
SOLID
70
1
71
0
91
1
92
0
93
1
72
2
10
11.5030
20
25.2570
40
0.2540
50
0
51
360
73
1
97
0
75
0
76
1
98
0
0
LINE
5
1024
100
AcDbEntity
8
outline
6
ByLayer
62
256
370
25
100
AcDbLine
10
2.5720
20
26.8140
11
35.5720
21
26.8140
0
LINE
5
1025
100
AcDbEntity
8
outline
6
ByLayer
62
256
370
25
100
AcDbLine
10
35.5720
20
26.8140
11
35.5720
21
1.8140
0
LINE
5
1026
100
AcDbEntity
8
outline
6
ByLayer
62
256
370
25
100
AcDbLine
10
35.5720
20
1.8140
11
2.5720
21
1.8140
0
LINE
5
1027
100
AcDbEntity
8
outline
6
ByLayer
62
256
370
25
100
AcDbLine
10
2.5720
20
1.8140
11
2.5720
21
26.8140
0
ENDSEC
0
SECTION
2
OBJECTS
0
DICTIONARY
5
C
330
0
100
AcDbDictionary
281
1
3
ACAD_GROUP
350
D
0
DICTIONARY
5
D
330
C
100
AcDbDictionary
281
1
0
ENDSEC
0
EOF
